SplineFontDB: 3.2
FontName: Titillium-Thin
FullName: Titillium Thin
FamilyName: Titillium Thin
Weight: Thin
Copyright: Copyright (c) 2008-2011 by Accademia di Belle Arti di Urbino and others. All rights reserved.
Version: 57.000
ItalicAngle: 0
UnderlinePosition: -110
UnderlineWidth: 30
Ascent: 750
Descent: 250
InvalidEm: 0
sfntRevision: 0x00010000
LayerCount: 2
Layer: 0 0 "Zur+APwA-ck" 1
Layer: 1 0 "Zeichen" 0
XUID: [1021 1010 -703601740 717]
StyleMap: 0x0000
FSType: 0
OS2Version: 3
OS2_WeightWidthSlopeOnly: 1
OS2_UseTypoMetrics: 0
CreationTime: 1339467516
ModificationTime: 1577963173
PfmFamily: 33
TTFWeight: 100
TTFWidth: 5
LineGap: 200
VLineGap: 0
Panose: 2 11 4 0 0 0 0 0 0 0
OS2TypoAscent: 750
OS2TypoAOffset: 0
OS2TypoDescent: -250
OS2TypoDOffset: 0
OS2TypoLinegap: 200
OS2WinAscent: 1062
OS2WinAOffset: 0
OS2WinDescent: 267
OS2WinDOffset: 0
HheadAscent: 750
HheadAOffset: 0
HheadDescent: -250
HheadDOffset: 0
OS2SubXSize: 650
OS2SubYSize: 600
OS2SubXOff: 0
OS2SubYOff: 75
OS2SupXSize: 650
OS2SupYSize: 600
OS2SupXOff: 0
OS2SupYOff: 350
OS2StrikeYSize: 30
OS2StrikeYPos: 300
OS2CapHeight: 700
OS2XHeight: 500
OS2Vendor: 'UKWN'
OS2CodePages: 20000093.00000000
OS2UnicodeRanges: 00000007.00000001.00000000.00000000
Lookup: 1 0 0 "'locl' Localized Forms in Lateinisch lookup 0" { "'locl' Localized Forms in Lateinisch lookup 0 subtable"  } ['locl' ('DFLT' <'dflt' > 'latn' <'dflt' > ) ]
Lookup: 1 0 0 "'frac' Diagonal Fractions in Lateinisch lookup 1" { "'frac' Diagonal Fractions in Lateinisch lookup 1 subtable"  } ['frac' ('DFLT' <'dflt' > 'latn' <'dflt' > ) ]
Lookup: 6 0 0 "'frac' Diagonal Fractions in Lateinisch lookup 2" { "'frac' Diagonal Fractions in Lateinisch lookup 2 subtable"  } ['frac' ('DFLT' <'dflt' > 'latn' <'dflt' > ) ]
Lookup: 1 0 0 "'frac' Diagonal Fractions in Lateinisch lookup 3" { "'frac' Diagonal Fractions in Lateinisch lookup 3 subtable"  } ['frac' ('DFLT' <'dflt' > 'latn' <'dflt' > ) ]

StartChar: acute
Encoding: 180 180 2
Width: 268
Flags: MW
HStem: 701 21G<248 248>
VStem: 40 208<636 701>
LayerCount: 2
Fore
SplineSet
40 636 m 1
 232 732 l 1
 248 701 l 1
 55 609 l 1
 40 636 l 1
EndSplineSet
EndChar

StartChar: breve
Encoding: 728 728 3
Width: 215
Flags: MW
HStem: 595 32<90.5 155.5 90.5 165>
VStem: -15 35<695.5 723 695.5 723> 226 35<695.5 723>
LayerCount: 2
Fore
SplineSet
-15 723 m 1
 20 723 l 1
 20 668 58 627 123 627 c 0
 188 627 226 668 226 723 c 1
 261 723 l 1
 261 649 207 595 123 595 c 0
 39 595 -15 649 -15 723 c 1
EndSplineSet
EndChar

StartChar: caron
Encoding: 711 711 4
Width: 215
Flags: MW
HStem: 600 33<106 121 121 121 121 134> 712 20G<-15 27 27 27 214 256 256 256>
VStem: -15 271<732 732>
LayerCount: 2
Fore
SplineSet
106 600 m 1
 -15 732 l 1
 27 732 l 1
 121 633 l 1
 214 732 l 1
 256 732 l 1
 134 600 l 1
 106 600 l 1
EndSplineSet
EndChar

StartChar: cedilla
Encoding: 184 184 5
Width: 263
Flags: MW
HStem: -201 28<113 144.5 113 155> -85 28<109 130>
VStem: 76 33<-57 1 -57 1 -57 1> 178 35<-144.5 -111.5>
LayerCount: 2
Fore
SplineSet
213 -127 m 0
 213 -180 179 -201 131 -201 c 0
 87 -201 50 -197 50 -197 c 1
 52 -169 l 1
 52 -169 96 -173 130 -173 c 0
 159 -173 178 -162 178 -127 c 0
 178 -96 159 -85 130 -85 c 2
 76 -85 l 1
 76 1 l 1
 109 1 l 1
 109 -57 l 1
 180 -57 213 -71 213 -127 c 0
EndSplineSet
EndChar

StartChar: circumflex
Encoding: 710 710 6
Width: 215
Flags: MW
HStem: 600 132<-15 134 -15 134 106 213 106 256> 700 21G<121 121>
VStem: -15 271<600 600>
LayerCount: 2
Fore
SplineSet
-15 600 m 1xa0
 106 732 l 1
 134 732 l 1
 256 600 l 1
 213 600 l 1xa0
 121 700 l 1x60
 28 600 l 1
 -15 600 l 1xa0
EndSplineSet
EndChar

StartChar: commaaccent
Encoding: 63171 63171 7
Width: 170
Flags: MW
HStem: -267 189<42 116 42 116>
VStem: 42 74
LayerCount: 2
Fore
SplineSet
42 -267 m 1
 79 -78 l 1
 116 -78 l 1
 70 -267 l 1
 42 -267 l 1
EndSplineSet
EndChar

StartChar: dieresis
Encoding: 168 168 8
Width: 215
Flags: MW
HStem: 638 62<0 35 0 35 190 225>
VStem: 0 35<638 700 638 700> 190 35<638 700 638 700>
LayerCount: 2
Fore
SplineSet
0 638 m 1
 0 700 l 1
 35 700 l 1
 35 638 l 1
 0 638 l 1
190 638 m 1
 190 700 l 1
 225 700 l 1
 225 638 l 1
 190 638 l 1
EndSplineSet
EndChar

StartChar: dotaccent
Encoding: 729 729 9
Width: 215
Flags: MW
HStem: 645 55<90 125 90 125>
VStem: 90 35<645 700 645 700>
LayerCount: 2
Fore
SplineSet
90 645 m 1
 90 700 l 1
 125 700 l 1
 125 645 l 1
 90 645 l 1
EndSplineSet
EndChar

StartChar: hungarumlaut
Encoding: 733 733 10
Width: 215
Flags: MW
HStem: 595 131<112 152>
VStem: -51 366<622 699>
LayerCount: 2
Fore
SplineSet
134 622 m 1
 297 726 l 1
 315 699 l 1
 152 595 l 1
 134 622 l 1
-51 622 m 1
 112 726 l 1
 130 699 l 1
 -33 595 l 1
 -51 622 l 1
EndSplineSet
EndChar

StartChar: grave
Encoding: 96 96 11
Width: 215
Flags: MW
HStem: 701 21G<10 10>
VStem: 10 208<636 701>
LayerCount: 2
Fore
SplineSet
26 732 m 1
 218 636 l 1
 203 609 l 1
 10 701 l 1
 26 732 l 1
EndSplineSet
EndChar

StartChar: macron
Encoding: 175 175 12
Width: 215
Flags: MW
HStem: 642 32<-20 247 -20 247>
VStem: -20 267<642 674 642 674>
LayerCount: 2
Fore
SplineSet
-20 642 m 1
 -20 674 l 1
 247 674 l 1
 247 642 l 1
 -20 642 l 1
EndSplineSet
EndChar

StartChar: ogonek
Encoding: 731 731 13
Width: 434
Flags: MW
HStem: -200 34<238 261.5 238 262>
VStem: 168 37<-129.5 -100 -129.5 -96>
LayerCount: 2
Fore
SplineSet
286 1 m 1
 286 1 205 -84 205 -116 c 0
 205 -143 224 -166 252 -166 c 0
 271 -166 308 -159 308 -159 c 1
 312 -192 l 1
 312 -192 276 -200 248 -200 c 0
 202 -200 168 -169 168 -118 c 0
 168 -74 251 6 251 6 c 1
 286 1 l 1
EndSplineSet
EndChar

StartChar: ring
Encoding: 730 730 14
Width: 215
Flags: MW
HStem: 555 31<94.5 129 94.5 138.5> 713 32<94.5 129>
VStem: 16 34<632.5 667 632.5 676.5> 173 33<632.5 667>
LayerCount: 2
Fore
SplineSet
16 650 m 0
 16 703 58 745 112 745 c 0
 165 745 206 703 206 650 c 0
 206 596 165 555 112 555 c 0
 58 555 16 596 16 650 c 0
50 650 m 0
 50 615 77 586 112 586 c 0
 146 586 173 615 173 650 c 0
 173 684 146 713 112 713 c 0
 77 713 50 684 50 650 c 0
EndSplineSet
EndChar

StartChar: tilde
Encoding: 732 732 15
Width: 215
Flags: MW
HStem: 630 32<178 203 178 207.5> 668 21G<-35 -35> 684 31<34.5 61> 703 21G<256 256>
VStem: -35 300<668 673>
LayerCount: 2
Fore
SplineSet
256 703 m 1x58
 265 673 l 1
 265 673 223 630 192 630 c 0x98
 152 630 77 684 45 684 c 0
 24 684 -25 639 -25 639 c 1
 -35 668 l 1
 -35 668 14 715 47 715 c 0x28
 87 715 162 662 194 662 c 0x98
 212 662 256 703 256 703 c 1x58
EndSplineSet
EndChar

StartChar: A
Encoding: 65 65 16
Width: 592
Flags: MW
HStem: 0 21G<28 28 28 64 528 528 528 564> 215 34<140 452 140 463 129 452> 666 34<268 268 268 324>
VStem: 28 536<0 0>
LayerCount: 2
Fore
SplineSet
28 0 m 1
 243 700 l 1
 349 700 l 1
 564 0 l 1
 528 0 l 1
 463 215 l 1
 129 215 l 1
 64 0 l 1
 28 0 l 1
268 666 m 1
 140 249 l 1
 452 249 l 1
 324 666 l 1
 268 666 l 1
EndSplineSet
Position2: "'cpsp' Capital Spacing in Lateinisch lookup 0 subtable" dx=5 dy=0 dh=10 dv=0
EndChar

StartChar: Aacute
Encoding: 193 193 17
Width: 592
Flags: MW
HStem: 0 21G<28 28 28 64 528 528 528 564> 215 34<140 452 140 463 129 452> 666 34<268 268 268 324>
VStem: 28 536<0 0>
LayerCount: 2
Fore
SplineSet
28 0 m 1
 243 700 l 1
 349 700 l 1
 564 0 l 1
 528 0 l 1
 463 215 l 1
 129 215 l 1
 64 0 l 1
 28 0 l 1
268 666 m 1
 140 249 l 1
 452 249 l 1
 324 666 l 1
 268 666 l 1
202 826 m 1
 394 922 l 1
 410 891 l 1
 217 799 l 1
 202 826 l 1
EndSplineSet
Position2: "'cpsp' Capital Spacing in Lateinisch lookup 0 subtable" dx=5 dy=0 dh=10 dv=0
EndChar

StartChar: Abreve
Encoding: 258 258 18
Width: 592
Flags: MW
HStem: 0 21G<28 28 28 64 528 528 528 564> 215 34<140 452 140 463 129 452> 666 34<268 268 268 324> 805 32<267.5 322.5 267.5 332>
VStem: 157 35<896.5 924 896.5 924> 398 35<896.5 924>
LayerCount: 2
Fore
SplineSet
28 0 m 1
 243 700 l 1
 349 700 l 1
 564 0 l 1
 528 0 l 1
 463 215 l 1
 129 215 l 1
 64 0 l 1
 28 0 l 1
268 666 m 1
 140 249 l 1
 452 249 l 1
 324 666 l 1
 268 666 l 1
157 924 m 1
 192 924 l 1
 192 869 240 837 295 837 c 0
 350 837 398 869 398 924 c 1
 433 924 l 1
 433 850 369 805 295 805 c 0
 221 805 157 850 157 924 c 1
EndSplineSet
Position2: "'cpsp' Capital Spacing in Lateinisch lookup 0 subtable" dx=5 dy=0 dh=10 dv=0
EndChar

StartChar: Acircumflex
Encoding: 194 194 19
Width: 592
Flags: MW
HStem: 0 21G<28 28 28 64 528 528 528 564> 215 34<140 452 140 463 129 452> 666 34<268 268 268 324> 905 29<295 295>
VStem: 28 536<0 0>
LayerCount: 2
Fore
SplineSet
28 0 m 1
 243 700 l 1
 349 700 l 1
 564 0 l 1
 528 0 l 1
 463 215 l 1
 129 215 l 1
 64 0 l 1
 28 0 l 1
268 666 m 1
 140 249 l 1
 452 249 l 1
 324 666 l 1
 268 666 l 1
146 809 m 1
 280 934 l 1
 310 934 l 1
 444 809 l 1
 399 809 l 1
 295 905 l 1
 192 809 l 1
 146 809 l 1
EndSplineSet
Position2: "'cpsp' Capital Spacing in Lateinisch lookup 0 subtable" dx=5 dy=0 dh=10 dv=0
EndChar

StartChar: Agrave
Encoding: 192 192 20
Width: 592
Flags: MW
HStem: 0 21G<28 28 28 64 528 528 528 564> 215 34<140 452 140 463 129 452> 666 34<268 268 268 324>
VStem: 28 536<0 0>
LayerCount: 2
Fore
SplineSet
28 0 m 1
 243 700 l 1
 349 700 l 1
 564 0 l 1
 528 0 l 1
 463 215 l 1
 129 215 l 1
 64 0 l 1
 28 0 l 1
268 666 m 1
 140 249 l 1
 452 249 l 1
 324 666 l 1
 268 666 l 1
193 922 m 1
 385 826 l 1
 370 799 l 1
 177 891 l 1
 193 922 l 1
EndSplineSet
Position2: "'cpsp' Capital Spacing in Lateinisch lookup 0 subtable" dx=5 dy=0 dh=10 dv=0
EndChar

StartChar: Adieresis
Encoding: 196 196 21
Width: 592
Flags: MW
HStem: 0 21G<28 28 28 64 528 528 528 564> 215 34<140 452 140 463 129 452> 666 34<268 268 268 324> 838 62<180 215 180 215 376 411>
VStem: 180 35<838 900 838 900> 376 35<838 900 838 900>
LayerCount: 2
Fore
SplineSet
28 0 m 1
 243 700 l 1
 349 700 l 1
 564 0 l 1
 528 0 l 1
 463 215 l 1
 129 215 l 1
 64 0 l 1
 28 0 l 1
268 666 m 1
 140 249 l 1
 452 249 l 1
 324 666 l 1
 268 666 l 1
180 838 m 1
 180 900 l 1
 215 900 l 1
 215 838 l 1
 180 838 l 1
376 838 m 1
 376 900 l 1
 411 900 l 1
 411 838 l 1
 376 838 l 1
EndSplineSet
Position2: "'cpsp' Capital Spacing in Lateinisch lookup 0 subtable" dx=5 dy=0 dh=10 dv=0
EndChar

StartChar: Amacron
Encoding: 256 256 22
Width: 592
Flags: MW
HStem: 0 21G<28 28 28 64 528 528 528 564> 215 34<140 452 140 463 129 452> 666 34<268 268 268 324> 832 32<153 440 153 440>
VStem: 28 536<0 0>
LayerCount: 2
Fore
SplineSet
28 0 m 1
 243 700 l 1
 349 700 l 1
 564 0 l 1
 528 0 l 1
 463 215 l 1
 129 215 l 1
 64 0 l 1
 28 0 l 1
268 666 m 1
 140 249 l 1
 452 249 l 1
 324 666 l 1
 268 666 l 1
153 832 m 1
 153 864 l 1
 440 864 l 1
 440 832 l 1
 153 832 l 1
EndSplineSet
Position2: "'cpsp' Capital Spacing in Lateinisch lookup 0 subtable" dx=5 dy=0 dh=10 dv=0
EndChar

StartChar: Aogonek
Encoding: 260 260 23
Width: 592
Flags: MW
HStem: -200 34<515 538.5 515 539> 0 21G<28 28 28 64 562 562 562 564> 215 34<140 452 140 463 129 452> 666 34<268 268 268 324>
VStem: 445 37<-129.5 -100.5 -129.5 -96.5>
LayerCount: 2
Fore
SplineSet
28 0 m 1
 243 700 l 1
 349 700 l 1
 564 0 l 1
 562 0 l 1
 557 -4 482 -85 482 -116 c 0
 482 -143 501 -166 529 -166 c 0
 548 -166 585 -159 585 -159 c 1
 589 -192 l 1
 589 -192 553 -200 525 -200 c 0
 479 -200 445 -169 445 -118 c 0
 445 -75 522 0 526 4 c 1
 463 215 l 1
 129 215 l 1
 64 0 l 1
 28 0 l 1
268 666 m 1
 140 249 l 1
 452 249 l 1
 324 666 l 1
 268 666 l 1
EndSplineSet
Position2: "'cpsp' Capital Spacing in Lateinisch lookup 0 subtable" dx=5 dy=0 dh=10 dv=0
EndChar

StartChar: Aring
Encoding: 197 197 24
Width: 592
Flags: MW
HStem: 0 21G<28 64 28 28 528 564 528 528> 215 34<140 452 140 463 129 452> 666 34<268 317 270 317 270 324> 681 19 821 30<274 314>
VStem: 197 33<743 779 743 788> 358 33<743 779>
LayerCount: 2
Fore
SplineSet
391 759 m 0xee
 391 725 377 699 354 683 c 1
 564 0 l 1
 528 0 l 1
 463 215 l 1
 129 215 l 1
 64 0 l 1
 28 0 l 1
 237 681 l 1xde
 212 696 197 723 197 759 c 0
 197 817 236 851 294 851 c 0
 352 851 391 817 391 759 c 0xee
268 666 m 1
 140 249 l 1
 452 249 l 1
 324 666 l 1
 268 666 l 1
230 759 m 0
 230 727 245 707 270 700 c 1
 317 700 l 1
 343 707 358 727 358 759 c 0
 358 799 334 821 294 821 c 0
 254 821 230 799 230 759 c 0
EndSplineSet
Position2: "'cpsp' Capital Spacing in Lateinisch lookup 0 subtable" dx=5 dy=0 dh=10 dv=0
EndChar

StartChar: Atilde
Encoding: 195 195 25
Width: 592
Flags: MW
HStem: 0 21G<28 28 28 64 528 528 528 564> 215 34<140 452 140 463 129 452> 666 34<268 268 268 324> 833 32<361 386 361 392.5> 893 31<207.5 234>
VStem: 28 536<0 0>
LayerCount: 2
Fore
SplineSet
28 0 m 1
 243 700 l 1
 349 700 l 1
 564 0 l 1
 528 0 l 1
 463 215 l 1
 129 215 l 1
 64 0 l 1
 28 0 l 1
268 666 m 1
 140 249 l 1
 452 249 l 1
 324 666 l 1
 268 666 l 1
436 913 m 1xfc
 447 885 l 1
 447 885 408 833 377 833 c 0xfc
 334 833 250 893 218 893 c 0
 197 893 151 841 151 841 c 1
 141 870 l 1
 141 870 185 924 218 924 c 0xec
 261 924 345 865 377 865 c 0
 395 865 436 913 436 913 c 1xfc
EndSplineSet
Position2: "'cpsp' Capital Spacing in Lateinisch lookup 0 subtable" dx=5 dy=0 dh=10 dv=0
EndChar

StartChar: AE
Encoding: 198 198 26
Width: 879
Flags: MW
HStem: 0 34<455 828 455 828> 215 34<155 419 155 419 143 419> 344 34<455 768 455 768> 666 34<304 304 304 419 455 828 455 455>
VStem: 419 36<34 215 215 215 249 344 378 666>
LayerCount: 2
Fore
SplineSet
419 0 m 1
 419 215 l 1
 143 215 l 1
 65 0 l 1
 25 0 l 1
 276 700 l 1
 828 700 l 1
 828 666 l 1
 455 666 l 1
 455 378 l 1
 768 378 l 1
 768 344 l 1
 455 344 l 1
 455 34 l 1
 828 34 l 1
 828 0 l 1
 419 0 l 1
304 666 m 1
 155 249 l 1
 419 249 l 1
 419 666 l 1
 304 666 l 1
EndSplineSet
Position2: "'cpsp' Capital Spacing in Lateinisch lookup 0 subtable" dx=5 dy=0 dh=10 dv=0
EndChar

StartChar: AEacute
Encoding: 508 508 27
Width: 879
Flags: MW
HStem: 0 34<455 828 455 828> 215 34<155 419 155 419 143 419> 344 34<455 768 455 768> 666 34<304 304 304 419 455 828 455 455>
VStem: 419 36<34 215 215 215 249 344 378 666>
LayerCount: 2
Fore
SplineSet
419 0 m 1
 419 215 l 1
 143 215 l 1
 65 0 l 1
 25 0 l 1
 276 700 l 1
 828 700 l 1
 828 666 l 1
 455 666 l 1
 455 378 l 1
 768 378 l 1
 768 344 l 1
 455 344 l 1
 455 34 l 1
 828 34 l 1
 828 0 l 1
 419 0 l 1
304 666 m 1
 155 249 l 1
 419 249 l 1
 419 666 l 1
 304 666 l 1
446 826 m 1
 638 922 l 1
 654 891 l 1
 461 799 l 1
 446 826 l 1
EndSplineSet
Position2: "'cpsp' Capital Spacing in Lateinisch lookup 0 subtable" dx=5 dy=0 dh=10 dv=0
EndChar

StartChar: B
Encoding: 66 66 28
Width: 620
Flags: MW
HStem: 0 34<128 351 128 351> 341 34<128 343 128 343> 666 34<128 332 128 128>
VStem: 92 36<34 341 34 375 375 666> 497 37<477.5 575.5> 524 37<131 247 117 264>
LayerCount: 2
Fore
SplineSet
92 700 m 1xf4
 332 700 l 2
 466 700 534 645 534 527 c 0xf8
 534 428 494 382 437 361 c 1
 499 344 561 301 561 193 c 0
 561 41 477 0 351 0 c 2
 92 0 l 1
 92 700 l 1xf4
343 341 m 2
 128 341 l 1
 128 34 l 1
 351 34 l 2
 453 34 524 69 524 193 c 0xf4
 524 335 394 341 343 341 c 2
332 666 m 2
 128 666 l 1
 128 375 l 1
 343 375 l 2
 452 375 497 425 497 527 c 0xf8
 497 624 444 666 332 666 c 2
EndSplineSet
Position2: "'cpsp' Capital Spacing in Lateinisch lookup 0 subtable" dx=5 dy=0 dh=10 dv=0
EndChar

StartChar: C
Encoding: 67 67 29
Width: 545
Flags: MW
HStem: -9 34<224 347.5 224 350> 675 34<222 346>
VStem: 67 38<247 446.5 247 456>
LayerCount: 2
Fore
SplineSet
498 45 m 1
 501 11 l 1
 451 1 384 -9 316 -9 c 0
 110 -9 67 125 67 347 c 0
 67 565 103 709 316 709 c 0
 386 709 455 699 501 690 c 1
 498 655 l 1
 455 664 376 675 316 675 c 0
 128 675 105 546 105 347 c 0
 105 147 132 25 316 25 c 0
 379 25 446 35 498 45 c 1
EndSplineSet
Position2: "'cpsp' Capital Spacing in Lateinisch lookup 0 subtable" dx=5 dy=0 dh=10 dv=0
EndChar

StartChar: Cacute
Encoding: 262 262 30
Width: 545
Flags: MW
HStem: -9 34<224 347.5 224 350> 675 34<222 346>
VStem: 67 38<247 446.5 247 456>
LayerCount: 2
Fore
SplineSet
498 45 m 1
 501 11 l 1
 451 1 384 -9 316 -9 c 0
 110 -9 67 125 67 347 c 0
 67 565 103 709 316 709 c 0
 386 709 455 699 501 690 c 1
 498 655 l 1
 455 664 376 675 316 675 c 0
 128 675 105 546 105 347 c 0
 105 147 132 25 316 25 c 0
 379 25 446 35 498 45 c 1
205 826 m 1
 397 922 l 1
 413 891 l 1
 220 799 l 1
 205 826 l 1
EndSplineSet
Position2: "'cpsp' Capital Spacing in Lateinisch lookup 0 subtable" dx=5 dy=0 dh=10 dv=0
EndChar

StartChar: Ccaron
Encoding: 268 268 31
Width: 545
Flags: MW
HStem: -9 34<224 347.5 224 350> 675 34<222 346> 809 29<285 300 300 300 300 315>
VStem: 67 38<247 446.5 247 456>
LayerCount: 2
Fore
SplineSet
498 45 m 1
 501 11 l 1
 451 1 384 -9 316 -9 c 0
 110 -9 67 125 67 347 c 0
 67 565 103 709 316 709 c 0
 386 709 455 699 501 690 c 1
 498 655 l 1
 455 664 376 675 316 675 c 0
 128 675 105 546 105 347 c 0
 105 147 132 25 316 25 c 0
 379 25 446 35 498 45 c 1
285 809 m 1
 151 934 l 1
 196 934 l 1
 300 838 l 1
 403 934 l 1
 449 934 l 1
 315 809 l 1
 285 809 l 1
EndSplineSet
Position2: "'cpsp' Capital Spacing in Lateinisch lookup 0 subtable" dx=5 dy=0 dh=10 dv=0
EndChar

StartChar: Ccedilla
Encoding: 199 199 32
Width: 545
Flags: MW
HStem: -201 28<331 362.5 331 373> -85 28<327 348> -9 34<327 327> -8 33<294 294> 675 34<222 346>
VStem: 67 38<247 446.5 247 456> 294 33<-57 -9 -57 -8 -57 -8> 396 35<-144.5 -111.5>
LayerCount: 2
Fore
SplineSet
431 -127 m 0xef
 431 -180 397 -201 349 -201 c 0
 305 -201 268 -197 268 -197 c 1
 270 -169 l 1
 270 -169 314 -173 348 -173 c 0
 377 -173 396 -162 396 -127 c 0
 396 -96 377 -85 348 -85 c 2
 294 -85 l 1
 294 -8 l 1xdf
 107 1 67 133 67 347 c 0
 67 565 103 709 316 709 c 0
 386 709 455 699 501 690 c 1
 498 655 l 1
 455 664 376 675 316 675 c 0
 128 675 105 546 105 347 c 0
 105 147 132 25 316 25 c 0
 379 25 446 35 498 45 c 1
 501 11 l 1
 453 1 391 -8 327 -9 c 1
 327 -57 l 1
 398 -57 431 -71 431 -127 c 0xef
EndSplineSet
Position2: "'cpsp' Capital Spacing in Lateinisch lookup 0 subtable" dx=5 dy=0 dh=10 dv=0
EndChar

StartChar: Ccircumflex
Encoding: 264 264 33
Width: 545
Flags: MW
HStem: -9 34<224 347.5 224 350> 675 34<222 346> 905 29<318 318>
VStem: 67 38<247 446.5 247 456>
LayerCount: 2
Fore
SplineSet
498 45 m 1
 501 11 l 1
 451 1 384 -9 316 -9 c 0
 110 -9 67 125 67 347 c 0
 67 565 103 709 316 709 c 0
 386 709 455 699 501 690 c 1
 498 655 l 1
 455 664 376 675 316 675 c 0
 128 675 105 546 105 347 c 0
 105 147 132 25 316 25 c 0
 379 25 446 35 498 45 c 1
169 809 m 1
 303 934 l 1
 333 934 l 1
 467 809 l 1
 422 809 l 1
 318 905 l 1
 215 809 l 1
 169 809 l 1
EndSplineSet
Position2: "'cpsp' Capital Spacing in Lateinisch lookup 0 subtable" dx=5 dy=0 dh=10 dv=0
EndChar

StartChar: Cdotaccent
Encoding: 266 266 34
Width: 545
Flags: MW
HStem: -9 34<224 347.5 224 350> 675 34<222 346> 823 55<279 314 279 314>
VStem: 67 38<247 446.5 247 456> 279 35<823 878 823 878>
LayerCount: 2
Fore
SplineSet
498 45 m 1
 501 11 l 1
 451 1 384 -9 316 -9 c 0
 110 -9 67 125 67 347 c 0
 67 565 103 709 316 709 c 0
 386 709 455 699 501 690 c 1
 498 655 l 1
 455 664 376 675 316 675 c 0
 128 675 105 546 105 347 c 0
 105 147 132 25 316 25 c 0
 379 25 446 35 498 45 c 1
279 823 m 1
 279 878 l 1
 314 878 l 1
 314 823 l 1
 279 823 l 1
EndSplineSet
Position2: "'cpsp' Capital Spacing in Lateinisch lookup 0 subtable" dx=5 dy=0 dh=10 dv=0
EndChar

StartChar: D
Encoding: 68 68 35
Width: 649
Flags: MW
HStem: 0 34<128 352 128 352> 666 34<128 352 128 128>
VStem: 92 36<34 666 34 700 34 700> 548 38<283 433>
LayerCount: 2
Fore
SplineSet
352 0 m 2
 92 0 l 1
 92 700 l 1
 352 700 l 2
 528 700 586 534 586 358 c 0
 586 182 528 0 352 0 c 2
548 358 m 0
 548 508 502 666 352 666 c 2
 128 666 l 1
 128 34 l 1
 352 34 l 2
 502 34 548 208 548 358 c 0
EndSplineSet
Position2: "'cpsp' Capital Spacing in Lateinisch lookup 0 subtable" dx=5 dy=0 dh=10 dv=0
EndChar

StartChar: Dcaron
Encoding: 270 270 36
Width: 649
Flags: MW
HStem: 0 34<128 352 128 352> 666 34<128 352 128 128> 809 29<273 288 288 288 288 303>
VStem: 92 36<34 666 34 700 34 700> 548 38<283 433>
LayerCount: 2
Fore
SplineSet
352 0 m 2
 92 0 l 1
 92 700 l 1
 352 700 l 2
 528 700 586 534 586 358 c 0
 586 182 528 0 352 0 c 2
548 358 m 0
 548 508 502 666 352 666 c 2
 128 666 l 1
 128 34 l 1
 352 34 l 2
 502 34 548 208 548 358 c 0
273 809 m 1
 139 934 l 1
 184 934 l 1
 288 838 l 1
 391 934 l 1
 437 934 l 1
 303 809 l 1
 273 809 l 1
EndSplineSet
Position2: "'cpsp' Capital Spacing in Lateinisch lookup 0 subtable" dx=5 dy=0 dh=10 dv=0
EndChar

StartChar: Dcroat
Encoding: 272 272 37
Width: 651
Flags: MW
HStem: 0 34<130 354 130 354> 334 34<17 94 17 94 130 307> 666 34<130 354 130 130>
VStem: 94 36<34 334 34 334 34 334 368 666> 550 38<285 435>
LayerCount: 2
Fore
SplineSet
17 334 m 1
 17 368 l 1
 94 368 l 1
 94 700 l 1
 354 700 l 2
 530 700 588 536 588 360 c 0
 588 184 530 0 354 0 c 2
 94 0 l 1
 94 334 l 1
 17 334 l 1
550 360 m 0
 550 510 504 666 354 666 c 2
 130 666 l 1
 130 368 l 1
 307 368 l 1
 307 334 l 1
 130 334 l 1
 130 34 l 1
 354 34 l 2
 504 34 550 210 550 360 c 0
EndSplineSet
Position2: "'cpsp' Capital Spacing in Lateinisch lookup 0 subtable" dx=5 dy=0 dh=10 dv=0
EndChar

StartChar: E
Encoding: 69 69 38
Width: 552
Flags: MW
HStem: 0 34<128 501 128 501> 341 34<128 441 128 441> 666 34<128 501 128 128>
VStem: 92 36<34 341 375 666>
LayerCount: 2
Fore
SplineSet
92 0 m 1
 92 700 l 1
 501 700 l 1
 501 666 l 1
 128 666 l 1
 128 375 l 1
 441 375 l 1
 441 341 l 1
 128 341 l 1
 128 34 l 1
 501 34 l 1
 501 0 l 1
 92 0 l 1
EndSplineSet
Position2: "'cpsp' Capital Spacing in Lateinisch lookup 0 subtable" dx=5 dy=0 dh=10 dv=0
EndChar

StartChar: Eacute
Encoding: 201 201 39
Width: 552
Flags: MW
HStem: 0 34<128 501 128 501> 341 34<128 441 128 441> 666 34<128 501 128 128>
VStem: 92 36<34 341 375 666>
LayerCount: 2
Fore
SplineSet
92 0 m 1
 92 700 l 1
 501 700 l 1
 501 666 l 1
 128 666 l 1
 128 375 l 1
 441 375 l 1
 441 341 l 1
 128 341 l 1
 128 34 l 1
 501 34 l 1
 501 0 l 1
 92 0 l 1
192 826 m 1
 384 922 l 1
 400 891 l 1
 207 799 l 1
 192 826 l 1
EndSplineSet
Position2: "'cpsp' Capital Spacing in Lateinisch lookup 0 subtable" dx=5 dy=0 dh=10 dv=0
EndChar

StartChar: Ebreve
Encoding: 276 276 40
Width: 552
Flags: MW
HStem: 0 34<128 501 128 501> 341 34<128 441 128 441> 666 34<128 501 128 128> 805 32<279.5 334.5 279.5 344>
VStem: 92 36<34 341 375 666> 169 35<896.5 924 896.5 924> 410 35<896.5 924>
LayerCount: 2
Fore
SplineSet
92 0 m 1
 92 700 l 1
 501 700 l 1
 501 666 l 1
 128 666 l 1
 128 375 l 1
 441 375 l 1
 441 341 l 1
 128 341 l 1
 128 34 l 1
 501 34 l 1
 501 0 l 1
 92 0 l 1
169 924 m 1
 204 924 l 1
 204 869 252 837 307 837 c 0
 362 837 410 869 410 924 c 1
 445 924 l 1
 445 850 381 805 307 805 c 0
 233 805 169 850 169 924 c 1
EndSplineSet
Position2: "'cpsp' Capital Spacing in Lateinisch lookup 0 subtable" dx=5 dy=0 dh=10 dv=0
EndChar

StartChar: Ecaron
Encoding: 282 282 41
Width: 552
Flags: MW
HStem: 0 34<128 501 128 501> 341 34<128 441 128 441> 666 34<128 501 128 128> 809 29<283 298 298 298 298 313>
VStem: 92 36<34 341 375 666>
LayerCount: 2
Fore
SplineSet
92 0 m 1
 92 700 l 1
 501 700 l 1
 501 666 l 1
 128 666 l 1
 128 375 l 1
 441 375 l 1
 441 341 l 1
 128 341 l 1
 128 34 l 1
 501 34 l 1
 501 0 l 1
 92 0 l 1
283 809 m 1
 149 934 l 1
 194 934 l 1
 298 838 l 1
 401 934 l 1
 447 934 l 1
 313 809 l 1
 283 809 l 1
EndSplineSet
Position2: "'cpsp' Capital Spacing in Lateinisch lookup 0 subtable" dx=5 dy=0 dh=10 dv=0
EndChar

StartChar: Ecircumflex
Encoding: 202 202 42
Width: 552
Flags: MW
HStem: 0 34<128 501 128 501> 341 34<128 441 128 441> 666 34<128 501 128 128> 905 29<291 291>
VStem: 92 36<34 341 375 666>
LayerCount: 2
Fore
SplineSet
92 0 m 1
 92 700 l 1
 501 700 l 1
 501 666 l 1
 128 666 l 1
 128 375 l 1
 441 375 l 1
 441 341 l 1
 128 341 l 1
 128 34 l 1
 501 34 l 1
 501 0 l 1
 92 0 l 1
142 809 m 1
 276 934 l 1
 306 934 l 1
 440 809 l 1
 395 809 l 1
 291 905 l 1
 188 809 l 1
 142 809 l 1
EndSplineSet
Position2: "'cpsp' Capital Spacing in Lateinisch lookup 0 subtable" dx=5 dy=0 dh=10 dv=0
EndChar

StartChar: Edieresis
Encoding: 203 203 43
Width: 552
Flags: MW
HStem: 0 34<128 501 128 501> 341 34<128 441 128 441> 666 34<128 501 128 128> 838 62<180 215 180 215 376 411>
VStem: 92 36<34 341 375 666> 180 35<838 900 838 900> 376 35<838 900 838 900>
LayerCount: 2
Fore
SplineSet
92 0 m 1
 92 700 l 1
 501 700 l 1
 501 666 l 1
 128 666 l 1
 128 375 l 1
 441 375 l 1
 441 341 l 1
 128 341 l 1
 128 34 l 1
 501 34 l 1
 501 0 l 1
 92 0 l 1
180 838 m 1
 180 900 l 1
 215 900 l 1
 215 838 l 1
 180 838 l 1
376 838 m 1
 376 900 l 1
 411 900 l 1
 411 838 l 1
 376 838 l 1
EndSplineSet
Position2: "'cpsp' Capital Spacing in Lateinisch lookup 0 subtable" dx=5 dy=0 dh=10 dv=0
EndChar

StartChar: Edotaccent
Encoding: 278 278 44
Width: 552
Flags: MW
HStem: 0 34<128 501 128 501> 341 34<128 441 128 441> 666 34<128 501 128 128> 823 55<277 312 277 312>
VStem: 92 36<34 341 375 666> 277 35<823 878 823 878>
LayerCount: 2
Fore
SplineSet
92 0 m 1
 92 700 l 1
 501 700 l 1
 501 666 l 1
 128 666 l 1
 128 375 l 1
 441 375 l 1
 441 341 l 1
 128 341 l 1
 128 34 l 1
 501 34 l 1
 501 0 l 1
 92 0 l 1
277 823 m 1
 277 878 l 1
 312 878 l 1
 312 823 l 1
 277 823 l 1
EndSplineSet
Position2: "'cpsp' Capital Spacing in Lateinisch lookup 0 subtable" dx=5 dy=0 dh=10 dv=0
EndChar

StartChar: Egrave
Encoding: 200 200 45
Width: 552
Flags: MW
HStem: 0 34<128 501 128 501> 341 34<128 441 128 441> 666 34<128 501 128 128>
VStem: 92 36<34 341 375 666>
LayerCount: 2
Fore
SplineSet
92 0 m 1
 92 700 l 1
 501 700 l 1
 501 666 l 1
 128 666 l 1
 128 375 l 1
 441 375 l 1
 441 341 l 1
 128 341 l 1
 128 34 l 1
 501 34 l 1
 501 0 l 1
 92 0 l 1
205 922 m 1
 397 826 l 1
 382 799 l 1
 189 891 l 1
 205 922 l 1
EndSplineSet
Position2: "'cpsp' Capital Spacing in Lateinisch lookup 0 subtable" dx=5 dy=0 dh=10 dv=0
EndChar

StartChar: Emacron
Encoding: 274 274 46
Width: 552
Flags: MW
HStem: 0 34<128 501 128 501> 341 34<128 441 128 441> 666 34<128 501 128 128> 832 32<152 439 152 439>
VStem: 92 36<34 341 375 666>
LayerCount: 2
Fore
SplineSet
92 0 m 1
 92 700 l 1
 501 700 l 1
 501 666 l 1
 128 666 l 1
 128 375 l 1
 441 375 l 1
 441 341 l 1
 128 341 l 1
 128 34 l 1
 501 34 l 1
 501 0 l 1
 92 0 l 1
152 832 m 1
 152 864 l 1
 439 864 l 1
 439 832 l 1
 152 832 l 1
EndSplineSet
Position2: "'cpsp' Capital Spacing in Lateinisch lookup 0 subtable" dx=5 dy=0 dh=10 dv=0
EndChar

StartChar: Eogonek
Encoding: 280 280 47
Width: 552
Flags: MW
HStem: -200 34<424 447.5 424 448> 0 34<128 431 471 471 471 501> 341 34<128 441 128 441> 666 34<128 501 128 128>
VStem: 92 36<34 341 375 666> 354 37<-129.5 -100.5 -129.5 -98>
LayerCount: 2
Fore
SplineSet
92 0 m 1
 92 700 l 1
 501 700 l 1
 501 666 l 1
 128 666 l 1
 128 375 l 1
 441 375 l 1
 441 341 l 1
 128 341 l 1
 128 34 l 1
 501 34 l 1
 501 0 l 1
 471 0 l 1
 466 -4 391 -85 391 -116 c 0
 391 -143 410 -166 438 -166 c 0
 457 -166 494 -159 494 -159 c 1
 498 -192 l 1
 498 -192 462 -200 434 -200 c 0
 388 -200 354 -169 354 -118 c 0
 354 -78 417 -14 431 0 c 1
 92 0 l 1
EndSplineSet
Position2: "'cpsp' Capital Spacing in Lateinisch lookup 0 subtable" dx=5 dy=0 dh=10 dv=0
EndChar

StartChar: F
Encoding: 70 70 48
Width: 523
Flags: MW
HStem: 0 21G<92 92 92 128> 316 34<128 442 128 442> 666 34<128 493 128 128>
VStem: 92 36<0 316 350 666>
LayerCount: 2
Fore
SplineSet
92 0 m 1
 92 700 l 1
 493 700 l 1
 493 666 l 1
 128 666 l 1
 128 350 l 1
 442 350 l 1
 442 316 l 1
 128 316 l 1
 128 0 l 1
 92 0 l 1
EndSplineSet
Position2: "'cpsp' Capital Spacing in Lateinisch lookup 0 subtable" dx=5 dy=0 dh=10 dv=0
EndChar

StartChar: G
Encoding: 71 71 49
Width: 619
Flags: MW
HStem: -9 34<235 355 235 360> 313 34<361 547 361 511> 675 34<233 372.5>
VStem: 65 38<247 446.5 247 456> 511 36<45 313 313 313>
LayerCount: 2
Fore
SplineSet
361 313 m 1
 361 347 l 1
 547 347 l 1
 547 16 l 1
 511 9 393 -9 327 -9 c 0
 121 -9 65 125 65 347 c 0
 65 565 114 709 327 709 c 0
 432 709 547 684 547 684 c 1
 544 649 l 1
 544 649 418 675 327 675 c 0
 139 675 103 546 103 347 c 0
 103 147 143 25 327 25 c 0
 383 25 467 37 511 45 c 1
 511 313 l 1
 361 313 l 1
EndSplineSet
Position2: "'cpsp' Capital Spacing in Lateinisch lookup 0 subtable" dx=5 dy=0 dh=10 dv=0
EndChar

StartChar: Gbreve
Encoding: 286 286 50
Width: 619
Flags: MW
HStem: -9 34<235 355 235 360> 313 34<361 547 361 511> 675 34<233 372.5> 805 32<305.5 360.5 305.5 370>
VStem: 65 38<247 446.5 247 456> 195 35<896.5 924 896.5 924> 436 35<896.5 924> 511 36<45 313 313 313>
LayerCount: 2
Fore
SplineSet
361 313 m 1
 361 347 l 1
 547 347 l 1
 547 16 l 1
 511 9 393 -9 327 -9 c 0
 121 -9 65 125 65 347 c 0
 65 565 114 709 327 709 c 0
 432 709 547 684 547 684 c 1
 544 649 l 1
 544 649 418 675 327 675 c 0
 139 675 103 546 103 347 c 0
 103 147 143 25 327 25 c 0
 383 25 467 37 511 45 c 1
 511 313 l 1
 361 313 l 1
195 924 m 1
 230 924 l 1
 230 869 278 837 333 837 c 0
 388 837 436 869 436 924 c 1
 471 924 l 1
 471 850 407 805 333 805 c 0
 259 805 195 850 195 924 c 1
EndSplineSet
Position2: "'cpsp' Capital Spacing in Lateinisch lookup 0 subtable" dx=5 dy=0 dh=10 dv=0
EndChar

StartChar: Gcircumflex
Encoding: 284 284 51
Width: 619
Flags: MW
HStem: -5 34<235 355 235 360> 317 34<361 547 361 511> 679 34<233 372.5> 900 29<318 318>
VStem: 65 38<251 450.5 251 460> 511 36<49 317 317 317>
LayerCount: 2
Fore
SplineSet
361 317 m 1
 361 351 l 1
 547 351 l 1
 547 20 l 1
 511 13 393 -5 327 -5 c 0
 121 -5 65 129 65 351 c 0
 65 569 114 713 327 713 c 0
 432 713 547 688 547 688 c 1
 544 653 l 1
 544 653 418 679 327 679 c 0
 139 679 103 550 103 351 c 0
 103 151 143 29 327 29 c 0
 383 29 467 41 511 49 c 1
 511 317 l 1
 361 317 l 1
169 804 m 1
 303 929 l 1
 333 929 l 1
 467 804 l 1
 422 804 l 1
 318 900 l 1
 215 804 l 1
 169 804 l 1
EndSplineSet
Position2: "'cpsp' Capital Spacing in Lateinisch lookup 0 subtable" dx=5 dy=0 dh=10 dv=0
EndChar

StartChar: Gcommaaccent
Encoding: 290 290 52
Width: 619
Flags: MW
HStem: -9 34<235 355 235 360> 313 34<361 547 361 511> 675 34<233 372.5>
VStem: 65 38<247 446.5 247 456> 511 36<45 313 313 313>
LayerCount: 2
Fore
SplineSet
361 313 m 1
 361 347 l 1
 547 347 l 1
 547 16 l 1
 511 9 393 -9 327 -9 c 0
 121 -9 65 125 65 347 c 0
 65 565 114 709 327 709 c 0
 432 709 547 684 547 684 c 1
 544 649 l 1
 544 649 418 675 327 675 c 0
 139 675 103 546 103 347 c 0
 103 147 143 25 327 25 c 0
 383 25 467 37 511 45 c 1
 511 313 l 1
 361 313 l 1
324 -78 m 1
 287 -267 l 1
 315 -267 l 1
 361 -78 l 1
 324 -78 l 1
EndSplineSet
Position2: "'cpsp' Capital Spacing in Lateinisch lookup 0 subtable" dx=5 dy=0 dh=10 dv=0
EndChar

StartChar: Gdotaccent
Encoding: 288 288 53
Width: 619
Flags: MW
HStem: -9 34<235 355 235 360> 313 34<361 547 361 511> 675 34<233 372.5> 823 55<296 331 296 331>
VStem: 65 38<247 446.5 247 456> 296 35<823 878 823 878> 511 36<45 313 313 313>
LayerCount: 2
Fore
SplineSet
361 313 m 1
 361 347 l 1
 547 347 l 1
 547 16 l 1
 511 9 393 -9 327 -9 c 0
 121 -9 65 125 65 347 c 0
 65 565 114 709 327 709 c 0
 432 709 547 684 547 684 c 1
 544 649 l 1
 544 649 418 675 327 675 c 0
 139 675 103 546 103 347 c 0
 103 147 143 25 327 25 c 0
 383 25 467 37 511 45 c 1
 511 313 l 1
 361 313 l 1
296 823 m 1
 296 878 l 1
 331 878 l 1
 331 823 l 1
 296 823 l 1
EndSplineSet
Position2: "'cpsp' Capital Spacing in Lateinisch lookup 0 subtable" dx=5 dy=0 dh=10 dv=0
EndChar

StartChar: H
Encoding: 72 72 54
Width: 674
Flags: MW
HStem: 0 21G<92 128 92 92 546 582 546 546> 334 34<128 546 128 546>
VStem: 92 36<0 334 0 368 368 700> 546 36<0 334 334 334 368 700 0 700>
LayerCount: 2
Fore
SplineSet
546 0 m 1
 546 334 l 1
 128 334 l 1
 128 0 l 1
 92 0 l 1
 92 700 l 1
 128 700 l 1
 128 368 l 1
 546 368 l 1
 546 700 l 1
 582 700 l 1
 582 0 l 1
 546 0 l 1
EndSplineSet
Position2: "'cpsp' Capital Spacing in Lateinisch lookup 0 subtable" dx=5 dy=0 dh=10 dv=0
EndChar

StartChar: Hbar
Encoding: 294 294 55
Width: 686
Flags: MW
HStem: 0 21G<96 132 96 96 550 586 550 550> 334 34<132 550 132 550> 522 32<12 96 12 96 132 550 586 679>
VStem: 96 36<0 334 368 522 554 700> 550 36<0 334 334 334 368 522 0 522 554 700>
LayerCount: 2
Fore
SplineSet
12 522 m 1
 12 554 l 1
 96 554 l 1
 96 700 l 1
 132 700 l 1
 132 554 l 1
 550 554 l 1
 550 700 l 1
 586 700 l 1
 586 554 l 1
 679 554 l 1
 679 522 l 1
 586 522 l 1
 586 0 l 1
 550 0 l 1
 550 334 l 1
 132 334 l 1
 132 0 l 1
 96 0 l 1
 96 522 l 1
 12 522 l 1
132 368 m 1
 550 368 l 1
 550 522 l 1
 132 522 l 1
 132 368 l 1
EndSplineSet
Position2: "'cpsp' Capital Spacing in Lateinisch lookup 0 subtable" dx=5 dy=0 dh=10 dv=0
EndChar

StartChar: Hcircumflex
Encoding: 292 292 56
Width: 674
Flags: MW
HStem: 0 21G<92 128 92 92 546 582 546 546> 334 34<128 546 128 546> 905 29<338 338>
VStem: 92 36<0 334 0 368 368 700> 546 36<0 334 334 334 368 700 0 700>
LayerCount: 2
Fore
SplineSet
546 0 m 1
 546 334 l 1
 128 334 l 1
 128 0 l 1
 92 0 l 1
 92 700 l 1
 128 700 l 1
 128 368 l 1
 546 368 l 1
 546 700 l 1
 582 700 l 1
 582 0 l 1
 546 0 l 1
189 809 m 1
 323 934 l 1
 353 934 l 1
 487 809 l 1
 442 809 l 1
 338 905 l 1
 235 809 l 1
 189 809 l 1
EndSplineSet
Position2: "'cpsp' Capital Spacing in Lateinisch lookup 0 subtable" dx=5 dy=0 dh=10 dv=0
EndChar

StartChar: I
Encoding: 73 73 57
Width: 220
Flags: MW
HStem: 0 21G<92 92 92 128>
VStem: 92 36<0 700 0 700>
LayerCount: 2
Fore
SplineSet
92 0 m 1
 92 700 l 1
 128 700 l 1
 128 0 l 1
 92 0 l 1
EndSplineSet
Position2: "'cpsp' Capital Spacing in Lateinisch lookup 0 subtable" dx=5 dy=0 dh=10 dv=0
EndChar

StartChar: Iacute
Encoding: 205 205 58
Width: 220
Flags: MW
HStem: 0 21G<92 92 92 128>
VStem: 92 36<0 700 0 700>
LayerCount: 2
Fore
SplineSet
92 0 m 1
 92 700 l 1
 128 700 l 1
 128 0 l 1
 92 0 l 1
17 826 m 1
 209 922 l 1
 225 891 l 1
 32 799 l 1
 17 826 l 1
EndSplineSet
Position2: "'cpsp' Capital Spacing in Lateinisch lookup 0 subtable" dx=5 dy=0 dh=10 dv=0
EndChar

StartChar: Ibreve
Encoding: 300 300 59
Width: 220
Flags: MW
HStem: 0 21G<92 92 92 128> 805 32<84.5 139.5 84.5 149>
VStem: -26 35<896.5 924 896.5 924> 92 36<0 700 0 700> 215 35<896.5 924>
LayerCount: 2
Fore
SplineSet
92 0 m 1
 92 700 l 1
 128 700 l 1
 128 0 l 1
 92 0 l 1
-26 924 m 1
 9 924 l 1
 9 869 57 837 112 837 c 0
 167 837 215 869 215 924 c 1
 250 924 l 1
 250 850 186 805 112 805 c 0
 38 805 -26 850 -26 924 c 1
EndSplineSet
Position2: "'cpsp' Capital Spacing in Lateinisch lookup 0 subtable" dx=5 dy=0 dh=10 dv=0
EndChar

StartChar: Icircumflex
Encoding: 206 206 60
Width: 220
Flags: MW
HStem: 0 21G<92 92 92 128> 905 29<104 104>
VStem: 92 36<0 700 0 700>
LayerCount: 2
Fore
SplineSet
92 0 m 1
 92 700 l 1
 128 700 l 1
 128 0 l 1
 92 0 l 1
-45 809 m 1
 89 934 l 1
 119 934 l 1
 253 809 l 1
 208 809 l 1
 104 905 l 1
 1 809 l 1
 -45 809 l 1
EndSplineSet
Position2: "'cpsp' Capital Spacing in Lateinisch lookup 0 subtable" dx=5 dy=0 dh=10 dv=0
EndChar

StartChar: Idieresis
Encoding: 207 207 61
Width: 220
Flags: MW
HStem: 0 21G<92 92 92 128> 838 62<-6 29 -6 29 190 225>
VStem: -6 35<838 900 838 900> 92 36<0 700 0 700> 190 35<838 900 838 900>
LayerCount: 2
Fore
SplineSet
92 0 m 1
 92 700 l 1
 128 700 l 1
 128 0 l 1
 92 0 l 1
-6 838 m 1
 -6 900 l 1
 29 900 l 1
 29 838 l 1
 -6 838 l 1
190 838 m 1
 190 900 l 1
 225 900 l 1
 225 838 l 1
 190 838 l 1
EndSplineSet
Position2: "'cpsp' Capital Spacing in Lateinisch lookup 0 subtable" dx=5 dy=0 dh=10 dv=0
EndChar

StartChar: Idotaccent
Encoding: 304 304 62
Width: 220
Flags: MW
HStem: 0 21G<92 92 92 128> 823 55<93 128 93 128>
VStem: 92 36<0 700 0 700>
LayerCount: 2
Fore
SplineSet
92 0 m 1
 92 700 l 1
 128 700 l 1
 128 0 l 1
 92 0 l 1
93 823 m 1
 93 878 l 1
 128 878 l 1
 128 823 l 1
 93 823 l 1
EndSplineSet
Position2: "'cpsp' Capital Spacing in Lateinisch lookup 0 subtable" dx=5 dy=0 dh=10 dv=0
EndChar

StartChar: Igrave
Encoding: 204 204 63
Width: 220
Flags: MW
HStem: 0 21G<92 92 92 128>
VStem: 92 36<0 700 0 700>
LayerCount: 2
Fore
SplineSet
92 0 m 1
 92 700 l 1
 128 700 l 1
 128 0 l 1
 92 0 l 1
-2 922 m 1
 190 826 l 1
 175 799 l 1
 -18 891 l 1
 -2 922 l 1
EndSplineSet
Position2: "'cpsp' Capital Spacing in Lateinisch lookup 0 subtable" dx=5 dy=0 dh=10 dv=0
EndChar

StartChar: Imacron
Encoding: 298 298 64
Width: 220
Flags: MW
HStem: 0 21G<92 92 92 128> 832 32<-32 255 -32 255>
VStem: 92 36<0 700 0 700>
LayerCount: 2
Fore
SplineSet
92 0 m 1
 92 700 l 1
 128 700 l 1
 128 0 l 1
 92 0 l 1
-32 832 m 1
 -32 864 l 1
 255 864 l 1
 255 832 l 1
 -32 832 l 1
EndSplineSet
Position2: "'cpsp' Capital Spacing in Lateinisch lookup 0 subtable" dx=5 dy=0 dh=10 dv=0
EndChar

StartChar: Iogonek
Encoding: 302 302 65
Width: 220
Flags: MW
HStem: -200 34<80 103.5 80 104> 0 21G<128 128>
VStem: 10 37<-129.5 -100 -129.5 -96.5> 92 36<5 700>
LayerCount: 2
Fore
SplineSet
128 0 m 1
 128 0 47 -84 47 -116 c 0
 47 -143 66 -166 94 -166 c 0
 113 -166 150 -159 150 -159 c 1
 154 -192 l 1
 154 -192 118 -200 90 -200 c 0
 44 -200 10 -169 10 -118 c 0
 10 -75 89 2 92 5 c 2
 92 700 l 1
 128 700 l 1
 128 0 l 1
EndSplineSet
Position2: "'cpsp' Capital Spacing in Lateinisch lookup 0 subtable" dx=5 dy=0 dh=10 dv=0
EndChar

StartChar: Itilde
Encoding: 296 296 66
Width: 220
Flags: MW
HStem: 0 21G<92 92 92 128> 833 32<170 195 170 201.5> 893 31<16.5 43>
VStem: 92 36<0 700 0 700>
LayerCount: 2
Fore
SplineSet
92 0 m 1
 92 700 l 1
 128 700 l 1
 128 0 l 1
 92 0 l 1
245 913 m 1xf0
 256 885 l 1
 256 885 217 833 186 833 c 0xf0
 143 833 59 893 27 893 c 0
 6 893 -40 841 -40 841 c 1
 -50 870 l 1
 -50 870 -6 924 27 924 c 0xb0
 70 924 154 865 186 865 c 0
 204 865 245 913 245 913 c 1xf0
EndSplineSet
Position2: "'cpsp' Capital Spacing in Lateinisch lookup 0 subtable" dx=5 dy=0 dh=10 dv=0
EndChar

StartChar: J
Encoding: 74 74 67
Width: 280
Flags: MW
HStem: -73 34<18 76.5 18 78>
VStem: 155 36<96 700>
LayerCount: 2
Fore
SplineSet
191 700 m 1
 191 81 l 2
 191 -69 138 -73 18 -73 c 1
 18 -39 l 1
 135 -39 155 -37 155 96 c 2
 155 700 l 1
 191 700 l 1
EndSplineSet
Position2: "'cpsp' Capital Spacing in Lateinisch lookup 0 subtable" dx=5 dy=0 dh=10 dv=0
EndChar

StartChar: Jcircumflex
Encoding: 308 308 68
Width: 280
Flags: MW
HStem: -73 34<18 76.5 18 78> 900 29<172 172>
VStem: 155 36<96 700>
LayerCount: 2
Fore
SplineSet
191 700 m 1
 191 81 l 2
 191 -69 138 -73 18 -73 c 1
 18 -39 l 1
 135 -39 155 -37 155 96 c 2
 155 700 l 1
 191 700 l 1
23 804 m 1
 157 929 l 1
 187 929 l 1
 321 804 l 1
 276 804 l 1
 172 900 l 1
 69 804 l 1
 23 804 l 1
EndSplineSet
Position2: "'cpsp' Capital Spacing in Lateinisch lookup 0 subtable" dx=5 dy=0 dh=10 dv=0
EndChar

StartChar: K
Encoding: 75 75 69
Width: 553
Flags: MW
HStem: 0 21G<92 128 92 92 490 536 490 490> 329 34<128 257 128 259 128 257>
VStem: 92 36<0 329 0 363 363 700>
LayerCount: 2
Fore
SplineSet
490 0 m 1
 259 329 l 1
 128 329 l 1
 128 0 l 1
 92 0 l 1
 92 700 l 1
 128 700 l 1
 128 363 l 1
 257 363 l 1
 477 700 l 1
 520 700 l 1
 289 348 l 1
 536 0 l 1
 490 0 l 1
EndSplineSet
Position2: "'cpsp' Capital Spacing in Lateinisch lookup 0 subtable" dx=5 dy=0 dh=10 dv=0
EndChar

StartChar: Kcommaaccent
Encoding: 310 310 70
Width: 553
Flags: MW
HStem: 0 21G<92 128 92 92 490 536 490 490> 329 34<128 257 128 259 128 257>
VStem: 92 36<0 329 0 363 363 700>
LayerCount: 2
Fore
SplineSet
490 0 m 1
 259 329 l 1
 128 329 l 1
 128 0 l 1
 92 0 l 1
 92 700 l 1
 128 700 l 1
 128 363 l 1
 257 363 l 1
 477 700 l 1
 520 700 l 1
 289 348 l 1
 536 0 l 1
 490 0 l 1
277 -78 m 1
 240 -267 l 1
 268 -267 l 1
 314 -78 l 1
 277 -78 l 1
EndSplineSet
Position2: "'cpsp' Capital Spacing in Lateinisch lookup 0 subtable" dx=5 dy=0 dh=10 dv=0
EndChar

StartChar: L
Encoding: 76 76 71
Width: 483
Flags: MW
HStem: 0 34<128 469 128 469>
VStem: 92 36<34 700 34 700 34 700>
LayerCount: 2
Fore
SplineSet
469 0 m 1
 92 0 l 1
 92 700 l 1
 128 700 l 1
 128 34 l 1
 469 34 l 1
 469 0 l 1
EndSplineSet
Position2: "'cpsp' Capital Spacing in Lateinisch lookup 0 subtable" dx=5 dy=0 dh=10 dv=0
EndChar

StartChar: Lacute
Encoding: 313 313 72
Width: 483
Flags: MW
HStem: 0 34<128 469 128 469>
VStem: 92 36<34 700 34 700 34 700>
LayerCount: 2
Fore
SplineSet
469 0 m 1
 92 0 l 1
 92 700 l 1
 128 700 l 1
 128 34 l 1
 469 34 l 1
 469 0 l 1
150 826 m 1
 342 922 l 1
 358 891 l 1
 165 799 l 1
 150 826 l 1
EndSplineSet
Position2: "'cpsp' Capital Spacing in Lateinisch lookup 0 subtable" dx=5 dy=0 dh=10 dv=0
EndChar

StartChar: Lcaron
Encoding: 317 317 73
Width: 492
Flags: MW
HStem: 0 34<128 469 128 469> 483 217<390 424>
VStem: 92 36<34 700 34 700 34 700> 390 34<483 700 483 700>
LayerCount: 2
Fore
SplineSet
424 700 m 1
 424 483 l 1
 390 483 l 1
 390 700 l 1
 424 700 l 1
469 0 m 1
 92 0 l 1
 92 700 l 1
 128 700 l 1
 128 34 l 1
 469 34 l 1
 469 0 l 1
EndSplineSet
Position2: "'cpsp' Capital Spacing in Lateinisch lookup 0 subtable" dx=5 dy=0 dh=10 dv=0
EndChar

StartChar: Lcommaaccent
Encoding: 315 315 74
Width: 483
Flags: MW
HStem: -78 112<265 265 265 302> 0 34<128 469 128 469>
VStem: 92 36<34 700 34 700 34 700>
LayerCount: 2
Fore
SplineSet
265 -78 m 1xa0
 228 -267 l 1
 256 -267 l 1
 302 -78 l 1
 265 -78 l 1xa0
469 0 m 1x60
 92 0 l 1
 92 700 l 1
 128 700 l 1
 128 34 l 1
 469 34 l 1
 469 0 l 1x60
EndSplineSet
Position2: "'cpsp' Capital Spacing in Lateinisch lookup 0 subtable" dx=5 dy=0 dh=10 dv=0
EndChar

StartChar: Lslash
Encoding: 321 321 75
Width: 485
Flags: MW
HStem: 0 34<130 471 130 471>
VStem: 94 36<34 308 308 308 373 700>
LayerCount: 2
Fore
SplineSet
471 0 m 1
 94 0 l 1
 94 308 l 1
 28 262 l 1
 9 288 l 1
 94 347 l 1
 94 700 l 1
 130 700 l 1
 130 373 l 1
 301 493 l 1
 320 467 l 1
 130 333 l 1
 130 34 l 1
 471 34 l 1
 471 0 l 1
EndSplineSet
Position2: "'cpsp' Capital Spacing in Lateinisch lookup 0 subtable" dx=5 dy=0 dh=10 dv=0
EndChar

StartChar: M
Encoding: 77 77 76
Width: 828
Flags: MW
HStem: 0 21G 21 34<414 414 414 440 388 414> 666 34<128 142 128 128 686 700 686 686>
VStem: 92 36<0 666 0 700 0 700> 700 36<0 666 666 666>
LayerCount: 2
Fore
SplineSet
92 0 m 1xb8
 92 700 l 1
 168 700 l 1
 414 55 l 1x78
 660 700 l 1
 736 700 l 1
 736 0 l 1
 700 0 l 1xb8
 700 666 l 1
 686 666 l 1
 440 21 l 1
 388 21 l 1x78
 142 666 l 1
 128 666 l 1
 128 0 l 1
 92 0 l 1xb8
EndSplineSet
Position2: "'cpsp' Capital Spacing in Lateinisch lookup 0 subtable" dx=5 dy=0 dh=10 dv=0
EndChar

StartChar: N
Encoding: 78 78 77
Width: 665
Flags: MW
HStem: 0 34<488 537 510 537 510 573> 666 34<128 154 128 128>
VStem: 92 36<0 666 0 700 0 700> 537 36<34 700 0 700>
LayerCount: 2
Fore
SplineSet
92 0 m 1
 92 700 l 1
 177 700 l 1
 510 34 l 1
 537 34 l 1
 537 700 l 1
 573 700 l 1
 573 0 l 1
 488 0 l 1
 154 666 l 1
 128 666 l 1
 128 0 l 1
 92 0 l 1
EndSplineSet
Position2: "'cpsp' Capital Spacing in Lateinisch lookup 0 subtable" dx=5 dy=0 dh=10 dv=0
EndChar

StartChar: Nacute
Encoding: 323 323 78
Width: 665
Flags: MW
HStem: 0 34<488 537 510 537 510 573> 666 34<128 154 128 128>
VStem: 92 36<0 666 0 700 0 700> 537 36<34 700 0 700>
LayerCount: 2
Fore
SplineSet
92 0 m 1
 92 700 l 1
 177 700 l 1
 510 34 l 1
 537 34 l 1
 537 700 l 1
 573 700 l 1
 573 0 l 1
 488 0 l 1
 154 666 l 1
 128 666 l 1
 128 0 l 1
 92 0 l 1
232 826 m 1
 424 922 l 1
 440 891 l 1
 247 799 l 1
 232 826 l 1
EndSplineSet
Position2: "'cpsp' Capital Spacing in Lateinisch lookup 0 subtable" dx=5 dy=0 dh=10 dv=0
EndChar

StartChar: Ncaron
Encoding: 327 327 79
Width: 665
Flags: MW
HStem: 0 34<488 537 510 537 510 573> 666 34<128 154 128 128> 804 29<318 333 333 333 333 348>
VStem: 92 36<0 666 0 700 0 700> 537 36<34 700 0 700>
LayerCount: 2
Fore
SplineSet
92 0 m 1
 92 700 l 1
 177 700 l 1
 510 34 l 1
 537 34 l 1
 537 700 l 1
 573 700 l 1
 573 0 l 1
 488 0 l 1
 154 666 l 1
 128 666 l 1
 128 0 l 1
 92 0 l 1
318 804 m 1
 184 929 l 1
 229 929 l 1
 333 833 l 1
 436 929 l 1
 482 929 l 1
 348 804 l 1
 318 804 l 1
EndSplineSet
Position2: "'cpsp' Capital Spacing in Lateinisch lookup 0 subtable" dx=5 dy=0 dh=10 dv=0
EndChar

StartChar: Ncommaaccent
Encoding: 325 325 80
Width: 665
Flags: MW
HStem: 0 34<488 537 510 537 510 573> 666 34<128 154 128 128>
VStem: 92 36<0 666 0 700 0 700> 537 36<34 700 0 700>
LayerCount: 2
Fore
SplineSet
340 -78 m 1
 303 -267 l 1
 331 -267 l 1
 377 -78 l 1
 340 -78 l 1
92 0 m 1
 92 700 l 1
 177 700 l 1
 510 34 l 1
 537 34 l 1
 537 700 l 1
 573 700 l 1
 573 0 l 1
 488 0 l 1
 154 666 l 1
 128 666 l 1
 128 0 l 1
 92 0 l 1
EndSplineSet
Position2: "'cpsp' Capital Spacing in Lateinisch lookup 0 subtable" dx=5 dy=0 dh=10 dv=0
EndChar

StartChar: Ntilde
Encoding: 209 209 81
Width: 665
Flags: MW
HStem: 0 34<488 537 510 537 510 573> 666 34<128 154 128 128> 833 32<399 424 399 430.5> 893 31<245.5 272>
VStem: 92 36<0 666 0 700 0 700> 537 36<34 700 0 700>
LayerCount: 2
Fore
SplineSet
92 0 m 1
 92 700 l 1
 177 700 l 1
 510 34 l 1
 537 34 l 1
 537 700 l 1
 573 700 l 1
 573 0 l 1
 488 0 l 1
 154 666 l 1
 128 666 l 1
 128 0 l 1
 92 0 l 1
474 913 m 1xfc
 485 885 l 1
 485 885 446 833 415 833 c 0xfc
 372 833 288 893 256 893 c 0
 235 893 189 841 189 841 c 1
 179 870 l 1
 179 870 223 924 256 924 c 0xdc
 299 924 383 865 415 865 c 0
 433 865 474 913 474 913 c 1xfc
EndSplineSet
Position2: "'cpsp' Capital Spacing in Lateinisch lookup 0 subtable" dx=5 dy=0 dh=10 dv=0
EndChar

StartChar: O
Encoding: 79 79 82
Width: 666
Flags: MW
HStem: -9 34<236.5 429.5 236.5 440.5> 675 34<238 427>
VStem: 65 38<242 451.5 242 461> 563 38<237 450.5>
LayerCount: 2
Fore
SplineSet
333 25 m 0
 526 25 563 127 563 347 c 0
 563 554 521 675 333 675 c 0
 143 675 103 556 103 347 c 0
 103 137 140 25 333 25 c 0
333 -9 m 0
 117 -9 65 115 65 347 c 0
 65 575 119 709 333 709 c 0
 547 709 601 577 601 347 c 0
 601 105 548 -9 333 -9 c 0
EndSplineSet
Position2: "'cpsp' Capital Spacing in Lateinisch lookup 0 subtable" dx=5 dy=0 dh=10 dv=0
EndChar

StartChar: Oacute
Encoding: 211 211 83
Width: 666
Flags: MW
HStem: -9 34<236.5 429.5 236.5 440.5> 675 34<238 427>
VStem: 65 38<242 451.5 242 461> 563 38<237 450.5>
LayerCount: 2
Fore
SplineSet
333 25 m 0
 526 25 563 127 563 347 c 0
 563 554 521 675 333 675 c 0
 143 675 103 556 103 347 c 0
 103 137 140 25 333 25 c 0
333 -9 m 0
 117 -9 65 115 65 347 c 0
 65 575 119 709 333 709 c 0
 547 709 601 577 601 347 c 0
 601 105 548 -9 333 -9 c 0
219 826 m 1
 411 922 l 1
 427 891 l 1
 234 799 l 1
 219 826 l 1
EndSplineSet
Position2: "'cpsp' Capital Spacing in Lateinisch lookup 0 subtable" dx=5 dy=0 dh=10 dv=0
EndChar

StartChar: Obreve
Encoding: 334 334 84
Width: 666
Flags: MW
HStem: -9 34<236.5 429.5 236.5 440.5> 675 34<238 427> 805 32<306.5 361.5 306.5 371>
VStem: 65 38<242 451.5 242 461> 196 35<896.5 924 896.5 924> 437 35<896.5 924> 563 38<237 450.5>
LayerCount: 2
Fore
SplineSet
333 25 m 0
 526 25 563 127 563 347 c 0
 563 554 521 675 333 675 c 0
 143 675 103 556 103 347 c 0
 103 137 140 25 333 25 c 0
333 -9 m 0
 117 -9 65 115 65 347 c 0
 65 575 119 709 333 709 c 0
 547 709 601 577 601 347 c 0
 601 105 548 -9 333 -9 c 0
196 924 m 1
 231 924 l 1
 231 869 279 837 334 837 c 0
 389 837 437 869 437 924 c 1
 472 924 l 1
 472 850 408 805 334 805 c 0
 260 805 196 850 196 924 c 1
EndSplineSet
Position2: "'cpsp' Capital Spacing in Lateinisch lookup 0 subtable" dx=5 dy=0 dh=10 dv=0
EndChar

StartChar: Ocircumflex
Encoding: 212 212 85
Width: 666
Flags: MW
HStem: -9 34<236.5 429.5 236.5 440.5> 675 34<238 427> 905 29<333 333>
VStem: 65 38<242 451.5 242 461> 563 38<237 450.5>
LayerCount: 2
Fore
SplineSet
333 25 m 0
 526 25 563 127 563 347 c 0
 563 554 521 675 333 675 c 0
 143 675 103 556 103 347 c 0
 103 137 140 25 333 25 c 0
333 -9 m 0
 117 -9 65 115 65 347 c 0
 65 575 119 709 333 709 c 0
 547 709 601 577 601 347 c 0
 601 105 548 -9 333 -9 c 0
184 809 m 1
 318 934 l 1
 348 934 l 1
 482 809 l 1
 437 809 l 1
 333 905 l 1
 230 809 l 1
 184 809 l 1
EndSplineSet
Position2: "'cpsp' Capital Spacing in Lateinisch lookup 0 subtable" dx=5 dy=0 dh=10 dv=0
EndChar

StartChar: Odieresis
Encoding: 214 214 86
Width: 666
Flags: MW
HStem: -9 34<236.5 429.5 236.5 440.5> 675 34<238 427> 838 62<218 253 218 253 414 449>
VStem: 65 38<242 451.5 242 461> 218 35<838 900 838 900> 414 35<838 900 838 900> 563 38<237 450.5>
LayerCount: 2
Fore
SplineSet
333 25 m 0
 526 25 563 127 563 347 c 0
 563 554 521 675 333 675 c 0
 143 675 103 556 103 347 c 0
 103 137 140 25 333 25 c 0
333 -9 m 0
 117 -9 65 115 65 347 c 0
 65 575 119 709 333 709 c 0
 547 709 601 577 601 347 c 0
 601 105 548 -9 333 -9 c 0
218 838 m 1
 218 900 l 1
 253 900 l 1
 253 838 l 1
 218 838 l 1
414 838 m 1
 414 900 l 1
 449 900 l 1
 449 838 l 1
 414 838 l 1
EndSplineSet
Position2: "'cpsp' Capital Spacing in Lateinisch lookup 0 subtable" dx=5 dy=0 dh=10 dv=0
EndChar

StartChar: Ograve
Encoding: 210 210 87
Width: 666
Flags: MW
HStem: -9 34<236.5 429.5 236.5 440.5> 675 34<238 427>
VStem: 65 38<242 451.5 242 461> 563 38<237 450.5>
LayerCount: 2
Fore
SplineSet
333 25 m 0
 526 25 563 127 563 347 c 0
 563 554 521 675 333 675 c 0
 143 675 103 556 103 347 c 0
 103 137 140 25 333 25 c 0
333 -9 m 0
 117 -9 65 115 65 347 c 0
 65 575 119 709 333 709 c 0
 547 709 601 577 601 347 c 0
 601 105 548 -9 333 -9 c 0
242 922 m 1
 434 826 l 1
 419 799 l 1
 226 891 l 1
 242 922 l 1
EndSplineSet
Position2: "'cpsp' Capital Spacing in Lateinisch lookup 0 subtable" dx=5 dy=0 dh=10 dv=0
EndChar

StartChar: Ohungarumlaut
Encoding: 336 336 88
Width: 666
Flags: MW
HStem: -9 34<236.5 429.5 236.5 440.5> 675 34<238 427>
VStem: 65 38<242 451.5 242 461> 563 38<237 450.5>
LayerCount: 2
Fore
SplineSet
333 25 m 0
 526 25 563 127 563 347 c 0
 563 554 521 675 333 675 c 0
 143 675 103 556 103 347 c 0
 103 137 140 25 333 25 c 0
333 -9 m 0
 117 -9 65 115 65 347 c 0
 65 575 119 709 333 709 c 0
 547 709 601 577 601 347 c 0
 601 105 548 -9 333 -9 c 0
337 791 m 1
 528 878 l 1
 543 849 l 1
 351 761 l 1
 337 791 l 1
146 791 m 1
 338 879 l 1
 352 849 l 1
 161 762 l 1
 146 791 l 1
EndSplineSet
Position2: "'cpsp' Capital Spacing in Lateinisch lookup 0 subtable" dx=5 dy=0 dh=10 dv=0
EndChar

StartChar: Omacron
Encoding: 332 332 89
Width: 666
Flags: MW
HStem: -9 34<236.5 429.5 236.5 440.5> 675 34<238 427> 832 32<190 477 190 477>
VStem: 65 38<242 451.5 242 461> 563 38<237 450.5>
LayerCount: 2
Fore
SplineSet
333 25 m 0
 526 25 563 127 563 347 c 0
 563 554 521 675 333 675 c 0
 143 675 103 556 103 347 c 0
 103 137 140 25 333 25 c 0
333 -9 m 0
 117 -9 65 115 65 347 c 0
 65 575 119 709 333 709 c 0
 547 709 601 577 601 347 c 0
 601 105 548 -9 333 -9 c 0
190 832 m 1
 190 864 l 1
 477 864 l 1
 477 832 l 1
 190 832 l 1
EndSplineSet
Position2: "'cpsp' Capital Spacing in Lateinisch lookup 0 subtable" dx=5 dy=0 dh=10 dv=0
EndChar

StartChar: Oslash
Encoding: 216 216 90
Width: 666
Flags: MW
HStem: -9 34<308.5 429.5 308.5 440.5> 662 21G<503 503> 675 34<238 359.5>
VStem: 65 38<277.5 451.5 277.5 461> 563 38<237 412>
LayerCount: 2
Fore
SplineSet
333 -9 m 0xb8
 278 -9 234 -1 199 14 c 1
 141 -109 l 1
 111 -98 l 1
 170 29 l 1
 88 83 65 190 65 347 c 0
 65 575 119 709 333 709 c 0xb8
 392 709 438 699 475 680 c 1
 528 792 l 1
 558 780 l 1
 503 662 l 1xd8
 578 605 601 497 601 347 c 0
 601 105 548 -9 333 -9 c 0xb8
103 347 m 0
 103 208 119 112 186 63 c 1
 460 647 l 1
 428 665 386 675 333 675 c 0
 143 675 103 556 103 347 c 0
333 25 m 0
 526 25 563 127 563 347 c 0
 563 477 546 574 486 627 c 1
 214 46 l 1
 245 32 284 25 333 25 c 0
EndSplineSet
Position2: "'cpsp' Capital Spacing in Lateinisch lookup 0 subtable" dx=5 dy=0 dh=10 dv=0
EndChar

StartChar: Oslashacute
Encoding: 510 510 91
Width: 668
Flags: MW
HStem: -9 34<309.5 430.5 309.5 441.5> 662 21G<504 504> 675 34<239 360.5>
VStem: 66 38<277.5 451.5 277.5 461> 564 38<237 412>
LayerCount: 2
Fore
SplineSet
334 -9 m 0xb8
 279 -9 235 -1 200 14 c 1
 142 -109 l 1
 112 -98 l 1
 171 29 l 1
 89 83 66 190 66 347 c 0
 66 575 120 709 334 709 c 0xb8
 393 709 439 699 476 680 c 1
 529 792 l 1
 559 780 l 1
 504 662 l 1xd8
 579 605 602 497 602 347 c 0
 602 105 549 -9 334 -9 c 0xb8
104 347 m 0
 104 208 120 112 187 63 c 1
 461 647 l 1
 429 665 387 675 334 675 c 0
 144 675 104 556 104 347 c 0
334 25 m 0
 527 25 564 127 564 347 c 0
 564 477 547 574 487 627 c 1
 215 46 l 1
 246 32 285 25 334 25 c 0
236 826 m 1
 428 922 l 1
 444 891 l 1
 251 799 l 1
 236 826 l 1
EndSplineSet
Position2: "'cpsp' Capital Spacing in Lateinisch lookup 0 subtable" dx=5 dy=0 dh=10 dv=0
EndChar

StartChar: Otilde
Encoding: 213 213 92
Width: 666
Flags: MW
HStem: -9 34<236.5 429.5 236.5 440.5> 675 34<238 427> 833 32<396 421 396 427.5> 893 31<242.5 269>
VStem: 65 38<242 451.5 242 461> 563 38<237 450.5>
LayerCount: 2
Fore
SplineSet
333 25 m 0
 526 25 563 127 563 347 c 0
 563 554 521 675 333 675 c 0
 143 675 103 556 103 347 c 0
 103 137 140 25 333 25 c 0
333 -9 m 0
 117 -9 65 115 65 347 c 0
 65 575 119 709 333 709 c 0
 547 709 601 577 601 347 c 0
 601 105 548 -9 333 -9 c 0
471 913 m 1xfc
 482 885 l 1
 482 885 443 833 412 833 c 0xfc
 369 833 285 893 253 893 c 0
 232 893 186 841 186 841 c 1
 176 870 l 1
 176 870 220 924 253 924 c 0xdc
 296 924 380 865 412 865 c 0
 430 865 471 913 471 913 c 1xfc
EndSplineSet
Position2: "'cpsp' Capital Spacing in Lateinisch lookup 0 subtable" dx=5 dy=0 dh=10 dv=0
EndChar

StartChar: OE
Encoding: 338 338 93
Width: 940
Flags: MW
HStem: -9 34<236.5 344 236.5 351.5> -1 37<526 889 526 889 491 889> 342 36<526 829 526 829> 663 37<490 889> 664 36<526 889 526 526> 675 34<238 345.5>
VStem: 65 38<242 451.5 242 460> 490 36<36 342 378 663 663 663>
LayerCount: 2
Fore
SplineSet
889 -1 m 1x6b
 491 -1 l 1x6b
 449 -5 370 -9 333 -9 c 0
 117 -9 65 115 65 345 c 0
 65 575 119 709 333 709 c 0xa7
 370 709 453 706 490 700 c 1
 889 700 l 1
 889 664 l 1
 526 664 l 1
 526 378 l 1
 829 378 l 1
 829 342 l 1
 526 342 l 1
 526 36 l 1
 889 36 l 1
 889 -1 l 1x6b
333 25 m 0xa7
 355 25 455 31 490 34 c 1
 490 663 l 1xb3
 455 666 358 675 333 675 c 0
 143 675 103 556 103 347 c 0
 103 137 140 25 333 25 c 0xa7
EndSplineSet
Position2: "'cpsp' Capital Spacing in Lateinisch lookup 0 subtable" dx=5 dy=0 dh=10 dv=0
EndChar

StartChar: P
Encoding: 80 80 94
Width: 595
Flags: MW
HStem: 0 21G<92 128 92 92> 257 34<128 347 128 347> 666 34<128 347 128 128>
VStem: 92 36<0 257 291 666> 516 38<424.5 545.5>
LayerCount: 2
Fore
SplineSet
347 257 m 2
 128 257 l 1
 128 0 l 1
 92 0 l 1
 92 700 l 1
 347 700 l 2
 492 700 554 630 554 485 c 0
 554 340 492 257 347 257 c 2
128 291 m 1
 347 291 l 2
 468 291 516 364 516 485 c 0
 516 606 468 666 347 666 c 2
 128 666 l 1
 128 291 l 1
EndSplineSet
Position2: "'cpsp' Capital Spacing in Lateinisch lookup 0 subtable" dx=5 dy=0 dh=10 dv=0
EndChar

StartChar: Q
Encoding: 81 81 95
Width: 666
Flags: MW
HStem: -9 34<236.5 354.5> 675 34<238 427>
VStem: 65 38<242 451.5 242 461> 563 38<260.5 450.5>
LayerCount: 2
Fore
SplineSet
530 -138 m 1
 443 5 l 1
 412 -4 376 -9 333 -9 c 0
 117 -9 65 115 65 347 c 0
 65 575 119 709 333 709 c 0
 547 709 601 577 601 347 c 0
 601 174 574 67 480 19 c 1
 566 -121 l 1
 530 -138 l 1
333 25 m 0
 526 25 563 127 563 347 c 0
 563 554 521 675 333 675 c 0
 143 675 103 556 103 347 c 0
 103 137 140 25 333 25 c 0
EndSplineSet
Position2: "'cpsp' Capital Spacing in Lateinisch lookup 0 subtable" dx=5 dy=0 dh=10 dv=0
EndChar

StartChar: R
Encoding: 82 82 96
Width: 613
Flags: MW
HStem: 0 21G<92 128 92 92 523 523 523 564> 290 34<128 343 343 367 128 343> 666 34<128 343 128 128>
VStem: 92 36<0 290 0 324 324 666> 513 38<448 558>
LayerCount: 2
Fore
SplineSet
367 290 m 1
 128 290 l 1
 128 0 l 1
 92 0 l 1
 92 700 l 1
 343 700 l 2
 482 700 551 640 551 500 c 0
 551 392 510 315 406 295 c 1
 564 0 l 1
 523 0 l 1
 367 290 l 1
513 500 m 0
 513 616 460 666 343 666 c 2
 128 666 l 1
 128 324 l 1
 343 324 l 2
 470 324 513 396 513 500 c 0
EndSplineSet
Position2: "'cpsp' Capital Spacing in Lateinisch lookup 0 subtable" dx=5 dy=0 dh=10 dv=0
EndChar

StartChar: Racute
Encoding: 340 340 97
Width: 613
Flags: MW
HStem: 324 342<128 343 128 343> 700 21G<92 343 92 92>
VStem: 92 472<0 700 0 0>
LayerCount: 2
Fore
SplineSet
128 290 m 1
 367 290 l 1
 523 0 l 1
 564 0 l 1
 406 295 l 1
 510 315 551 392 551 500 c 0
 551 640 482 700 343 700 c 2
 92 700 l 1
 92 0 l 1
 128 0 l 1
 128 290 l 1
513 500 m 0
 513 396 470 324 343 324 c 2
 128 324 l 1
 128 666 l 1
 343 666 l 2
 460 666 513 616 513 500 c 0
199 826 m 1
 391 922 l 1
 407 891 l 1
 214 799 l 1
 199 826 l 1
EndSplineSet
Position2: "'cpsp' Capital Spacing in Lateinisch lookup 0 subtable" dx=5 dy=0 dh=10 dv=0
EndChar

StartChar: Rcaron
Encoding: 344 344 98
Width: 613
Flags: MW
HStem: 0 21G<92 128 92 92 523 523 523 564> 290 34<128 343 343 367 128 343> 666 34<128 343 128 128> 809 29<286 301 301 301 301 316>
VStem: 92 36<0 290 0 324 324 666> 513 38<448 558>
LayerCount: 2
Fore
SplineSet
367 290 m 1
 128 290 l 1
 128 0 l 1
 92 0 l 1
 92 700 l 1
 343 700 l 2
 482 700 551 640 551 500 c 0
 551 392 510 315 406 295 c 1
 564 0 l 1
 523 0 l 1
 367 290 l 1
513 500 m 0
 513 616 460 666 343 666 c 2
 128 666 l 1
 128 324 l 1
 343 324 l 2
 470 324 513 396 513 500 c 0
286 809 m 1
 152 934 l 1
 197 934 l 1
 301 838 l 1
 404 934 l 1
 450 934 l 1
 316 809 l 1
 286 809 l 1
EndSplineSet
Position2: "'cpsp' Capital Spacing in Lateinisch lookup 0 subtable" dx=5 dy=0 dh=10 dv=0
EndChar

StartChar: Rcommaaccent
Encoding: 342 342 99
Width: 613
Flags: MW
HStem: -267 189<268 342 268 342> 0 21G<92 128 92 92 523 523 523 564> 290 34<128 343 343 367 128 343> 666 34<128 343 128 128>
VStem: 92 36<0 290 0 324 324 666> 513 38<448 558>
LayerCount: 2
Fore
SplineSet
268 -267 m 1
 305 -78 l 1
 342 -78 l 1
 296 -267 l 1
 268 -267 l 1
367 290 m 1
 128 290 l 1
 128 0 l 1
 92 0 l 1
 92 700 l 1
 343 700 l 2
 482 700 551 640 551 500 c 0
 551 392 510 315 406 295 c 1
 564 0 l 1
 523 0 l 1
 367 290 l 1
513 500 m 0
 513 616 460 666 343 666 c 2
 128 666 l 1
 128 324 l 1
 343 324 l 2
 470 324 513 396 513 500 c 0
EndSplineSet
Position2: "'cpsp' Capital Spacing in Lateinisch lookup 0 subtable" dx=5 dy=0 dh=10 dv=0
EndChar

StartChar: S
Encoding: 83 83 100
Width: 540
Flags: MW
HStem: -7 34<237.5 330 237.5 343> 677 34<215 301>
VStem: 56 38<476 587 476 599.5> 448 38<137.5 251>
LayerCount: 2
Fore
SplineSet
471 695 m 1
 467 660 l 1
 467 660 330 677 272 677 c 0
 158 677 94 637 94 537 c 0
 94 415 156 400 282 380 c 0
 414 359 486 329 486 203 c 0
 486 47 412 -7 274 -7 c 0
 199 -7 60 9 60 9 c 1
 64 44 l 1
 64 44 202 27 273 27 c 0
 387 27 448 75 448 200 c 0
 448 302 396 325 273 344 c 0
 136 365 56 388 56 535 c 0
 56 664 139 711 272 711 c 0
 349 711 471 695 471 695 c 1
EndSplineSet
Position2: "'cpsp' Capital Spacing in Lateinisch lookup 0 subtable" dx=5 dy=0 dh=10 dv=0
EndChar

StartChar: Sacute
Encoding: 346 346 101
Width: 540
Flags: MW
HStem: -7 34<237.5 330 237.5 343> 677 34<215 301>
VStem: 56 38<476 587 476 599.5> 448 38<137.5 251>
LayerCount: 2
Fore
SplineSet
471 695 m 1
 467 660 l 1
 467 660 330 677 272 677 c 0
 158 677 94 637 94 537 c 0
 94 415 156 400 282 380 c 0
 414 359 486 329 486 203 c 0
 486 47 412 -7 274 -7 c 0
 199 -7 60 9 60 9 c 1
 64 44 l 1
 64 44 202 27 273 27 c 0
 387 27 448 75 448 200 c 0
 448 302 396 325 273 344 c 0
 136 365 56 388 56 535 c 0
 56 664 139 711 272 711 c 0
 349 711 471 695 471 695 c 1
177 826 m 1
 369 922 l 1
 385 891 l 1
 192 799 l 1
 177 826 l 1
EndSplineSet
Position2: "'cpsp' Capital Spacing in Lateinisch lookup 0 subtable" dx=5 dy=0 dh=10 dv=0
EndChar

StartChar: Scaron
Encoding: 352 352 102
Width: 540
Flags: MW
HStem: -7 34<237.5 330 237.5 343> 677 34<215 301> 809 29<260 275 275 275 275 290>
VStem: 56 38<476 587 476 599.5> 448 38<137.5 251>
LayerCount: 2
Fore
SplineSet
471 695 m 1
 467 660 l 1
 467 660 330 677 272 677 c 0
 158 677 94 637 94 537 c 0
 94 415 156 400 282 380 c 0
 414 359 486 329 486 203 c 0
 486 47 412 -7 274 -7 c 0
 199 -7 60 9 60 9 c 1
 64 44 l 1
 64 44 202 27 273 27 c 0
 387 27 448 75 448 200 c 0
 448 302 396 325 273 344 c 0
 136 365 56 388 56 535 c 0
 56 664 139 711 272 711 c 0
 349 711 471 695 471 695 c 1
260 809 m 1
 126 934 l 1
 171 934 l 1
 275 838 l 1
 378 934 l 1
 424 934 l 1
 290 809 l 1
 260 809 l 1
EndSplineSet
Position2: "'cpsp' Capital Spacing in Lateinisch lookup 0 subtable" dx=5 dy=0 dh=10 dv=0
EndChar

StartChar: Scedilla
Encoding: 350 350 103
Width: 540
Flags: MW
HStem: -201 28<295 326.5 295 337> -85 28<291 312> -7 34<258 258> -6 33<291 291> 677 34<215 301>
VStem: 56 38<476 587 476 599.5> 258 33<-57 -7 -7 -7> 360 35<-144.5 -111.5> 448 38<137.5 251>
LayerCount: 2
Fore
SplineSet
395 -127 m 0xdf80
 395 -180 361 -201 313 -201 c 0
 269 -201 232 -197 232 -197 c 1
 234 -169 l 1
 234 -169 278 -173 312 -173 c 0
 341 -173 360 -162 360 -127 c 0
 360 -96 341 -85 312 -85 c 2
 258 -85 l 1
 258 -7 l 1
 181 -5 60 9 60 9 c 1xef80
 64 44 l 1
 64 44 202 27 273 27 c 0
 387 27 448 75 448 200 c 0
 448 302 396 325 273 344 c 0
 136 365 56 388 56 535 c 0
 56 664 139 711 272 711 c 0
 349 711 471 695 471 695 c 1
 467 660 l 1
 467 660 330 677 272 677 c 0
 158 677 94 637 94 537 c 0
 94 415 156 400 282 380 c 0
 414 359 486 329 486 203 c 0
 486 53 418 -2 291 -6 c 1
 291 -57 l 1
 362 -57 395 -71 395 -127 c 0xdf80
EndSplineSet
Substitution2: "'locl' Localized Forms in Lateinisch lookup 0 subtable" Scommaaccent
Position2: "'cpsp' Capital Spacing in Lateinisch lookup 0 subtable" dx=5 dy=0 dh=10 dv=0
EndChar

StartChar: Scircumflex
Encoding: 348 348 104
Width: 540
Flags: MW
HStem: -7 34<237.5 330 237.5 343> 677 34<215 301> 900 29<273 273>
VStem: 56 38<476 587 476 599.5> 448 38<137.5 251>
LayerCount: 2
Fore
SplineSet
471 695 m 1
 467 660 l 1
 467 660 330 677 272 677 c 0
 158 677 94 637 94 537 c 0
 94 415 156 400 282 380 c 0
 414 359 486 329 486 203 c 0
 486 47 412 -7 274 -7 c 0
 199 -7 60 9 60 9 c 1
 64 44 l 1
 64 44 202 27 273 27 c 0
 387 27 448 75 448 200 c 0
 448 302 396 325 273 344 c 0
 136 365 56 388 56 535 c 0
 56 664 139 711 272 711 c 0
 349 711 471 695 471 695 c 1
124 804 m 1
 258 929 l 1
 288 929 l 1
 422 804 l 1
 377 804 l 1
 273 900 l 1
 170 804 l 1
 124 804 l 1
EndSplineSet
Position2: "'cpsp' Capital Spacing in Lateinisch lookup 0 subtable" dx=5 dy=0 dh=10 dv=0
EndChar

StartChar: Scommaaccent
Encoding: 536 536 105
Width: 540
Flags: MW
HStem: -7 34<237.5 330 237.5 343> 677 34<215 301>
VStem: 56 38<476 587 476 599.5> 448 38<137.5 251>
LayerCount: 2
Fore
SplineSet
272 -78 m 1
 235 -267 l 1
 263 -267 l 1
 309 -78 l 1
 272 -78 l 1
471 695 m 1
 467 660 l 1
 467 660 330 677 272 677 c 0
 158 677 94 637 94 537 c 0
 94 415 156 400 282 380 c 0
 414 359 486 329 486 203 c 0
 486 47 412 -7 274 -7 c 0
 199 -7 60 9 60 9 c 1
 64 44 l 1
 64 44 202 27 273 27 c 0
 387 27 448 75 448 200 c 0
 448 302 396 325 273 344 c 0
 136 365 56 388 56 535 c 0
 56 664 139 711 272 711 c 0
 349 711 471 695 471 695 c 1
EndSplineSet
Position2: "'cpsp' Capital Spacing in Lateinisch lookup 0 subtable" dx=5 dy=0 dh=10 dv=0
EndChar

StartChar: T
Encoding: 84 84 106
Width: 526
Flags: MW
HStem: 0 21G<246 282 246 246> 666 34<13 513 13 246 282 282 282 513>
VStem: 246 36<0 666 0 666>
LayerCount: 2
Fore
SplineSet
13 666 m 1
 13 700 l 1
 513 700 l 1
 513 666 l 1
 282 666 l 1
 282 0 l 1
 246 0 l 1
 246 666 l 1
 13 666 l 1
EndSplineSet
Position2: "'cpsp' Capital Spacing in Lateinisch lookup 0 subtable" dx=5 dy=0 dh=10 dv=0
EndChar

StartChar: Tbar
Encoding: 358 358 107
Width: 530
Flags: MW
HStem: 0 21G<248 284 248 248> 332 32<65 248 65 248 284 465> 666 34<15 515 15 248 284 284 284 515>
VStem: 248 36<0 332 0 332 364 666>
LayerCount: 2
Fore
SplineSet
15 666 m 1
 15 700 l 1
 515 700 l 1
 515 666 l 1
 284 666 l 1
 284 364 l 1
 465 364 l 1
 465 332 l 1
 284 332 l 1
 284 0 l 1
 248 0 l 1
 248 332 l 1
 65 332 l 1
 65 364 l 1
 248 364 l 1
 248 666 l 1
 15 666 l 1
EndSplineSet
Position2: "'cpsp' Capital Spacing in Lateinisch lookup 0 subtable" dx=5 dy=0 dh=10 dv=0
EndChar

StartChar: Tcaron
Encoding: 356 356 108
Width: 526
Flags: MW
HStem: 0 21G<246 282 246 246> 666 34<13 513 13 246 282 282 282 513> 809 29<249 264 264 264 264 279>
VStem: 246 36<0 666 0 666>
LayerCount: 2
Fore
SplineSet
13 666 m 1
 13 700 l 1
 513 700 l 1
 513 666 l 1
 282 666 l 1
 282 0 l 1
 246 0 l 1
 246 666 l 1
 13 666 l 1
249 809 m 1
 115 934 l 1
 160 934 l 1
 264 838 l 1
 367 934 l 1
 413 934 l 1
 279 809 l 1
 249 809 l 1
EndSplineSet
Position2: "'cpsp' Capital Spacing in Lateinisch lookup 0 subtable" dx=5 dy=0 dh=10 dv=0
EndChar

StartChar: Tcommaaccent
Encoding: 538 538 109
Width: 526
Flags: MW
HStem: 0 21G<246 282 246 246> 666 34<13 513 13 246 282 282 282 513>
VStem: 246 36<0 666 0 666>
LayerCount: 2
Fore
SplineSet
262 -78 m 1
 225 -267 l 1
 253 -267 l 1
 299 -78 l 1
 262 -78 l 1
13 666 m 1
 13 700 l 1
 513 700 l 1
 513 666 l 1
 282 666 l 1
 282 0 l 1
 246 0 l 1
 246 666 l 1
 13 666 l 1
EndSplineSet
Position2: "'cpsp' Capital Spacing in Lateinisch lookup 0 subtable" dx=5 dy=0 dh=10 dv=0
EndChar

StartChar: U
Encoding: 85 85 110
Width: 638
Flags: MW
HStem: -9 34<255.5 377 255.5 389>
VStem: 88 36<196 700> 514 36<196 700>
LayerCount: 2
Fore
SplineSet
124 196 m 2
 124 70 197 25 314 25 c 0
 440 25 514 69 514 196 c 2
 514 700 l 1
 550 700 l 1
 550 196 l 2
 550 46 464 -9 314 -9 c 0
 174 -9 88 45 88 196 c 2
 88 700 l 1
 124 700 l 1
 124 196 l 2
EndSplineSet
Position2: "'cpsp' Capital Spacing in Lateinisch lookup 0 subtable" dx=5 dy=0 dh=10 dv=0
EndChar

StartChar: Uacute
Encoding: 218 218 111
Width: 638
Flags: MW
HStem: -9 34<255.5 377 255.5 389>
VStem: 88 36<196 700> 514 36<196 700>
LayerCount: 2
Fore
SplineSet
124 196 m 2
 124 70 197 25 314 25 c 0
 440 25 514 69 514 196 c 2
 514 700 l 1
 550 700 l 1
 550 196 l 2
 550 46 464 -9 314 -9 c 0
 174 -9 88 45 88 196 c 2
 88 700 l 1
 124 700 l 1
 124 196 l 2
215 826 m 1
 407 922 l 1
 423 891 l 1
 230 799 l 1
 215 826 l 1
EndSplineSet
Position2: "'cpsp' Capital Spacing in Lateinisch lookup 0 subtable" dx=5 dy=0 dh=10 dv=0
EndChar

StartChar: Ubreve
Encoding: 364 364 112
Width: 638
Flags: MW
HStem: -9 34<255.5 377 255.5 389> 805 32<291.5 346.5 291.5 356>
VStem: 88 36<196 700> 181 35<896.5 924 896.5 924> 422 35<896.5 924> 514 36<196 700>
LayerCount: 2
Fore
SplineSet
124 196 m 2
 124 70 197 25 314 25 c 0
 440 25 514 69 514 196 c 2
 514 700 l 1
 550 700 l 1
 550 196 l 2
 550 46 464 -9 314 -9 c 0
 174 -9 88 45 88 196 c 2
 88 700 l 1
 124 700 l 1
 124 196 l 2
181 924 m 1
 216 924 l 1
 216 869 264 837 319 837 c 0
 374 837 422 869 422 924 c 1
 457 924 l 1
 457 850 393 805 319 805 c 0
 245 805 181 850 181 924 c 1
EndSplineSet
Position2: "'cpsp' Capital Spacing in Lateinisch lookup 0 subtable" dx=5 dy=0 dh=10 dv=0
EndChar

StartChar: Ucircumflex
Encoding: 219 219 113
Width: 638
Flags: MW
HStem: -9 34<255.5 377 255.5 389> 905 29<318 318>
VStem: 88 36<196 700> 514 36<196 700>
LayerCount: 2
Fore
SplineSet
124 196 m 2
 124 70 197 25 314 25 c 0
 440 25 514 69 514 196 c 2
 514 700 l 1
 550 700 l 1
 550 196 l 2
 550 46 464 -9 314 -9 c 0
 174 -9 88 45 88 196 c 2
 88 700 l 1
 124 700 l 1
 124 196 l 2
169 809 m 1
 303 934 l 1
 333 934 l 1
 467 809 l 1
 422 809 l 1
 318 905 l 1
 215 809 l 1
 169 809 l 1
EndSplineSet
Position2: "'cpsp' Capital Spacing in Lateinisch lookup 0 subtable" dx=5 dy=0 dh=10 dv=0
EndChar

StartChar: Udieresis
Encoding: 220 220 114
Width: 638
Flags: MW
HStem: -9 34<255.5 377 255.5 389> 838 62<204 239 204 239 400 435>
VStem: 88 36<196 700> 204 35<838 900 838 900> 400 35<838 900 838 900> 514 36<196 700>
LayerCount: 2
Fore
SplineSet
124 196 m 2
 124 70 197 25 314 25 c 0
 440 25 514 69 514 196 c 2
 514 700 l 1
 550 700 l 1
 550 196 l 2
 550 46 464 -9 314 -9 c 0
 174 -9 88 45 88 196 c 2
 88 700 l 1
 124 700 l 1
 124 196 l 2
204 838 m 1
 204 900 l 1
 239 900 l 1
 239 838 l 1
 204 838 l 1
400 838 m 1
 400 900 l 1
 435 900 l 1
 435 838 l 1
 400 838 l 1
EndSplineSet
Position2: "'cpsp' Capital Spacing in Lateinisch lookup 0 subtable" dx=5 dy=0 dh=10 dv=0
EndChar

StartChar: Ugrave
Encoding: 217 217 115
Width: 638
Flags: MW
HStem: -9 34<255.5 377 255.5 389>
VStem: 88 36<196 700> 514 36<196 700>
LayerCount: 2
Fore
SplineSet
124 196 m 2
 124 70 197 25 314 25 c 0
 440 25 514 69 514 196 c 2
 514 700 l 1
 550 700 l 1
 550 196 l 2
 550 46 464 -9 314 -9 c 0
 174 -9 88 45 88 196 c 2
 88 700 l 1
 124 700 l 1
 124 196 l 2
226 922 m 1
 418 826 l 1
 403 799 l 1
 210 891 l 1
 226 922 l 1
EndSplineSet
Position2: "'cpsp' Capital Spacing in Lateinisch lookup 0 subtable" dx=5 dy=0 dh=10 dv=0
EndChar

StartChar: Uhungarumlaut
Encoding: 368 368 116
Width: 638
Flags: MW
HStem: -9 34<255.5 377 255.5 389>
VStem: 88 36<196 700> 514 36<196 700>
LayerCount: 2
Fore
SplineSet
124 196 m 2
 124 70 197 25 314 25 c 0
 440 25 514 69 514 196 c 2
 514 700 l 1
 550 700 l 1
 550 196 l 2
 550 46 464 -9 314 -9 c 0
 174 -9 88 45 88 196 c 2
 88 700 l 1
 124 700 l 1
 124 196 l 2
347 791 m 1
 538 878 l 1
 553 849 l 1
 361 761 l 1
 347 791 l 1
156 791 m 1
 348 879 l 1
 362 849 l 1
 171 762 l 1
 156 791 l 1
EndSplineSet
Position2: "'cpsp' Capital Spacing in Lateinisch lookup 0 subtable" dx=5 dy=0 dh=10 dv=0
EndChar

StartChar: Umacron
Encoding: 362 362 117
Width: 638
Flags: MW
HStem: -9 34<255.5 377 255.5 389> 832 32<176 463 176 463>
VStem: 88 36<196 700> 514 36<196 700>
LayerCount: 2
Fore
SplineSet
124 196 m 2
 124 70 197 25 314 25 c 0
 440 25 514 69 514 196 c 2
 514 700 l 1
 550 700 l 1
 550 196 l 2
 550 46 464 -9 314 -9 c 0
 174 -9 88 45 88 196 c 2
 88 700 l 1
 124 700 l 1
 124 196 l 2
176 832 m 1
 176 864 l 1
 463 864 l 1
 463 832 l 1
 176 832 l 1
EndSplineSet
Position2: "'cpsp' Capital Spacing in Lateinisch lookup 0 subtable" dx=5 dy=0 dh=10 dv=0
EndChar

StartChar: Uogonek
Encoding: 370 370 118
Width: 637
Flags: MW
HStem: -200 34<361 384.5 361 385> -9 34<254.5 321.5>
VStem: 87 36<196 700> 291 37<-129.5 -101> 513 36<196 700>
LayerCount: 2
Fore
SplineSet
123 196 m 2
 123 70 196 25 313 25 c 0
 439 25 513 69 513 196 c 2
 513 700 l 1
 549 700 l 1
 549 196 l 2
 549 81 499 22 409 1 c 1
 409 1 328 -84 328 -116 c 0
 328 -143 347 -166 375 -166 c 0
 394 -166 431 -159 431 -159 c 1
 435 -192 l 1
 435 -192 399 -200 371 -200 c 0
 325 -200 291 -169 291 -118 c 0
 291 -84 338 -30 361 -7 c 1
 346 -8 330 -9 313 -9 c 0
 173 -9 87 45 87 196 c 2
 87 700 l 1
 123 700 l 1
 123 196 l 2
EndSplineSet
Position2: "'cpsp' Capital Spacing in Lateinisch lookup 0 subtable" dx=5 dy=0 dh=10 dv=0
EndChar

StartChar: Uring
Encoding: 366 366 119
Width: 638
Flags: MW
HStem: -9 34<255.5 377 255.5 389> 758 30<299 339 299 348> 912 30<299 339>
VStem: 88 36<196 700> 222 33<830 870 830 879> 383 33<830 870> 514 36<196 700>
LayerCount: 2
Fore
SplineSet
124 196 m 2
 124 70 197 25 314 25 c 0
 440 25 514 69 514 196 c 2
 514 700 l 1
 550 700 l 1
 550 196 l 2
 550 46 464 -9 314 -9 c 0
 174 -9 88 45 88 196 c 2
 88 700 l 1
 124 700 l 1
 124 196 l 2
416 850 m 0
 416 792 377 758 319 758 c 0
 261 758 222 792 222 850 c 0
 222 908 261 942 319 942 c 0
 377 942 416 908 416 850 c 0
255 850 m 0
 255 810 279 788 319 788 c 0
 359 788 383 810 383 850 c 0
 383 890 359 912 319 912 c 0
 279 912 255 890 255 850 c 0
EndSplineSet
Position2: "'cpsp' Capital Spacing in Lateinisch lookup 0 subtable" dx=5 dy=0 dh=10 dv=0
EndChar

StartChar: Utilde
Encoding: 360 360 120
Width: 638
Flags: MW
HStem: -9 34<255.5 377 255.5 389> 833 32<389 414 389 420.5> 893 31<235.5 262>
VStem: 88 36<196 700> 514 36<196 700>
LayerCount: 2
Fore
SplineSet
124 196 m 2
 124 70 197 25 314 25 c 0
 440 25 514 69 514 196 c 2
 514 700 l 1
 550 700 l 1
 550 196 l 2
 550 46 464 -9 314 -9 c 0
 174 -9 88 45 88 196 c 2
 88 700 l 1
 124 700 l 1
 124 196 l 2
464 913 m 1xf8
 475 885 l 1
 475 885 436 833 405 833 c 0xf8
 362 833 278 893 246 893 c 0
 225 893 179 841 179 841 c 1
 169 870 l 1
 169 870 213 924 246 924 c 0xb8
 289 924 373 865 405 865 c 0
 423 865 464 913 464 913 c 1xf8
EndSplineSet
Position2: "'cpsp' Capital Spacing in Lateinisch lookup 0 subtable" dx=5 dy=0 dh=10 dv=0
EndChar

StartChar: V
Encoding: 86 86 121
Width: 568
Flags: MW
HStem: 0 34<252 316 252 342 226 316>
VStem: 30 508<700 700>
LayerCount: 2
Fore
SplineSet
502 700 m 1
 538 700 l 1
 342 0 l 1
 226 0 l 1
 30 700 l 1
 66 700 l 1
 252 34 l 1
 316 34 l 1
 502 700 l 1
EndSplineSet
Position2: "'cpsp' Capital Spacing in Lateinisch lookup 0 subtable" dx=5 dy=0 dh=10 dv=0
EndChar

StartChar: W
Encoding: 87 87 122
Width: 856
Flags: MW
HStem: 0 34<214 253 214 281 185 253 603 642> 641 49<428 428>
VStem: 38 780<700 700>
LayerCount: 2
Fore
SplineSet
38 700 m 1
 74 700 l 1
 214 34 l 1
 253 34 l 1
 406 690 l 1
 450 690 l 1
 603 34 l 1
 642 34 l 1
 782 700 l 1
 818 700 l 1
 671 0 l 1
 575 0 l 1
 428 641 l 1
 281 0 l 1
 185 0 l 1
 38 700 l 1
EndSplineSet
Position2: "'cpsp' Capital Spacing in Lateinisch lookup 0 subtable" dx=5 dy=0 dh=10 dv=0
EndChar

StartChar: Wacute
Encoding: 7810 7810 123
Width: 856
Flags: MW
HStem: 0 34<214 253 214 281 185 253 603 642> 641 49<428 428>
VStem: 38 780<700 700>
LayerCount: 2
Fore
SplineSet
38 700 m 1
 74 700 l 1
 214 34 l 1
 253 34 l 1
 406 690 l 1
 450 690 l 1
 603 34 l 1
 642 34 l 1
 782 700 l 1
 818 700 l 1
 671 0 l 1
 575 0 l 1
 428 641 l 1
 281 0 l 1
 185 0 l 1
 38 700 l 1
334 826 m 1
 526 922 l 1
 542 891 l 1
 349 799 l 1
 334 826 l 1
EndSplineSet
Position2: "'cpsp' Capital Spacing in Lateinisch lookup 0 subtable" dx=5 dy=0 dh=10 dv=0
EndChar

StartChar: Wcircumflex
Encoding: 372 372 124
Width: 856
Flags: MW
HStem: 0 34<214 253 214 281 185 253 603 642> 641 49<428 428> 900 29<428 428>
VStem: 38 780<700 700>
LayerCount: 2
Fore
SplineSet
38 700 m 1
 74 700 l 1
 214 34 l 1
 253 34 l 1
 406 690 l 1
 450 690 l 1
 603 34 l 1
 642 34 l 1
 782 700 l 1
 818 700 l 1
 671 0 l 1
 575 0 l 1
 428 641 l 1
 281 0 l 1
 185 0 l 1
 38 700 l 1
279 804 m 1
 413 929 l 1
 443 929 l 1
 577 804 l 1
 532 804 l 1
 428 900 l 1
 325 804 l 1
 279 804 l 1
EndSplineSet
Position2: "'cpsp' Capital Spacing in Lateinisch lookup 0 subtable" dx=5 dy=0 dh=10 dv=0
EndChar

StartChar: Wdieresis
Encoding: 7812 7812 125
Width: 856
Flags: MW
HStem: 0 34<214 253 214 281 185 253 603 642> 641 49<428 428> 838 62<313 348 313 348 509 544>
VStem: 313 35<838 900 838 900> 509 35<838 900 838 900>
LayerCount: 2
Fore
SplineSet
38 700 m 1
 74 700 l 1
 214 34 l 1
 253 34 l 1
 406 690 l 1
 450 690 l 1
 603 34 l 1
 642 34 l 1
 782 700 l 1
 818 700 l 1
 671 0 l 1
 575 0 l 1
 428 641 l 1
 281 0 l 1
 185 0 l 1
 38 700 l 1
313 838 m 1
 313 900 l 1
 348 900 l 1
 348 838 l 1
 313 838 l 1
509 838 m 1
 509 900 l 1
 544 900 l 1
 544 838 l 1
 509 838 l 1
EndSplineSet
Position2: "'cpsp' Capital Spacing in Lateinisch lookup 0 subtable" dx=5 dy=0 dh=10 dv=0
EndChar

StartChar: Wgrave
Encoding: 7808 7808 126
Width: 856
Flags: MW
HStem: 0 34<214 253 214 281 185 253 603 642> 641 49<428 428>
VStem: 38 780<700 700>
LayerCount: 2
Fore
SplineSet
38 700 m 1
 74 700 l 1
 214 34 l 1
 253 34 l 1
 406 690 l 1
 450 690 l 1
 603 34 l 1
 642 34 l 1
 782 700 l 1
 818 700 l 1
 671 0 l 1
 575 0 l 1
 428 641 l 1
 281 0 l 1
 185 0 l 1
 38 700 l 1
330 922 m 1
 522 826 l 1
 507 799 l 1
 314 891 l 1
 330 922 l 1
EndSplineSet
Position2: "'cpsp' Capital Spacing in Lateinisch lookup 0 subtable" dx=5 dy=0 dh=10 dv=0
EndChar

StartChar: X
Encoding: 88 88 127
Width: 551
Flags: MW
HStem: 0 21G<25 68 25 25 483 526 483 483>
VStem: 25 501<0 0>
LayerCount: 2
Fore
SplineSet
68 700 m 1
 276 374 l 1
 483 700 l 1
 526 700 l 1
 303 347 l 1
 526 0 l 1
 483 0 l 1
 277 322 l 1
 68 0 l 1
 25 0 l 1
 251 347 l 1
 25 700 l 1
 68 700 l 1
EndSplineSet
Position2: "'cpsp' Capital Spacing in Lateinisch lookup 0 subtable" dx=5 dy=0 dh=10 dv=0
EndChar

StartChar: Y
Encoding: 89 89 128
Width: 526
Flags: MW
HStem: 0 21G<245 281 245 245>
VStem: 245 36<0 301 0 301>
LayerCount: 2
Fore
SplineSet
281 301 m 1
 281 0 l 1
 245 0 l 1
 245 301 l 1
 17 700 l 1
 59 700 l 1
 263 341 l 1
 467 700 l 1
 509 700 l 1
 281 301 l 1
EndSplineSet
Position2: "'cpsp' Capital Spacing in Lateinisch lookup 0 subtable" dx=5 dy=0 dh=10 dv=0
EndChar

StartChar: Yacute
Encoding: 221 221 129
Width: 526
Flags: MW
HStem: 0 21G<245 281 245 245>
VStem: 245 36<0 301 0 301>
LayerCount: 2
Fore
SplineSet
281 301 m 1
 281 0 l 1
 245 0 l 1
 245 301 l 1
 17 700 l 1
 59 700 l 1
 263 341 l 1
 467 700 l 1
 509 700 l 1
 281 301 l 1
190 826 m 1
 382 922 l 1
 398 891 l 1
 205 799 l 1
 190 826 l 1
EndSplineSet
Position2: "'cpsp' Capital Spacing in Lateinisch lookup 0 subtable" dx=5 dy=0 dh=10 dv=0
EndChar

StartChar: Ycircumflex
Encoding: 374 374 130
Width: 526
Flags: MW
HStem: 0 21G<245 281 245 245> 905 29<263 263>
VStem: 245 36<0 301 0 301>
LayerCount: 2
Fore
SplineSet
281 301 m 1
 281 0 l 1
 245 0 l 1
 245 301 l 1
 17 700 l 1
 59 700 l 1
 263 341 l 1
 467 700 l 1
 509 700 l 1
 281 301 l 1
114 809 m 1
 248 934 l 1
 278 934 l 1
 412 809 l 1
 367 809 l 1
 263 905 l 1
 160 809 l 1
 114 809 l 1
EndSplineSet
Position2: "'cpsp' Capital Spacing in Lateinisch lookup 0 subtable" dx=5 dy=0 dh=10 dv=0
EndChar

StartChar: Ydieresis
Encoding: 376 376 131
Width: 526
Flags: MW
HStem: 0 21G<245 281 245 245> 838 62<147 182 147 182 343 378>
VStem: 147 35<838 900 838 900> 245 36<0 301 0 301> 343 35<838 900 838 900>
LayerCount: 2
Fore
SplineSet
281 301 m 1
 281 0 l 1
 245 0 l 1
 245 301 l 1
 17 700 l 1
 59 700 l 1
 263 341 l 1
 467 700 l 1
 509 700 l 1
 281 301 l 1
147 838 m 1
 147 900 l 1
 182 900 l 1
 182 838 l 1
 147 838 l 1
343 838 m 1
 343 900 l 1
 378 900 l 1
 378 838 l 1
 343 838 l 1
EndSplineSet
Position2: "'cpsp' Capital Spacing in Lateinisch lookup 0 subtable" dx=5 dy=0 dh=10 dv=0
EndChar

StartChar: Ygrave
Encoding: 7922 7922 132
Width: 526
Flags: MW
HStem: 0 21G<245 281 245 245>
VStem: 245 36<0 301 0 301>
LayerCount: 2
Fore
SplineSet
281 301 m 1
 281 0 l 1
 245 0 l 1
 245 301 l 1
 17 700 l 1
 59 700 l 1
 263 341 l 1
 467 700 l 1
 509 700 l 1
 281 301 l 1
154 922 m 1
 346 826 l 1
 331 799 l 1
 138 891 l 1
 154 922 l 1
EndSplineSet
Position2: "'cpsp' Capital Spacing in Lateinisch lookup 0 subtable" dx=5 dy=0 dh=10 dv=0
EndChar

StartChar: Z
Encoding: 90 90 133
Width: 539
Flags: MW
HStem: -1 34<81 494 81 494> 666 34<44 494 44 457>
VStem: 44 37<33 55 33 68 33 68> 457 37<642 666 666 666>
LayerCount: 2
Fore
SplineSet
44 666 m 1
 44 700 l 1
 494 700 l 1
 494 630 l 1
 81 55 l 1
 81 33 l 1
 494 33 l 1
 494 -1 l 1
 44 -1 l 1
 44 68 l 1
 457 642 l 1
 457 666 l 1
 44 666 l 1
EndSplineSet
Position2: "'cpsp' Capital Spacing in Lateinisch lookup 0 subtable" dx=5 dy=0 dh=10 dv=0
EndChar

StartChar: Zacute
Encoding: 377 377 134
Width: 539
Flags: MW
HStem: -1 34<81 494 81 494> 666 34<44 494 44 457>
VStem: 44 37<33 55 33 68 33 68> 457 37<642 666 666 666>
LayerCount: 2
Fore
SplineSet
44 666 m 1
 44 700 l 1
 494 700 l 1
 494 630 l 1
 81 55 l 1
 81 33 l 1
 494 33 l 1
 494 -1 l 1
 44 -1 l 1
 44 68 l 1
 457 642 l 1
 457 666 l 1
 44 666 l 1
175 826 m 1
 367 922 l 1
 383 891 l 1
 190 799 l 1
 175 826 l 1
EndSplineSet
Position2: "'cpsp' Capital Spacing in Lateinisch lookup 0 subtable" dx=5 dy=0 dh=10 dv=0
EndChar

StartChar: Zcaron
Encoding: 381 381 135
Width: 539
Flags: MW
HStem: -1 34<81 494 81 494> 666 34<44 494 44 457> 809 29<266 281 281 281 281 296>
VStem: 44 37<33 55 33 68 33 68> 457 37<642 666 666 666>
LayerCount: 2
Fore
SplineSet
44 666 m 1
 44 700 l 1
 494 700 l 1
 494 630 l 1
 81 55 l 1
 81 33 l 1
 494 33 l 1
 494 -1 l 1
 44 -1 l 1
 44 68 l 1
 457 642 l 1
 457 666 l 1
 44 666 l 1
266 809 m 1
 132 934 l 1
 177 934 l 1
 281 838 l 1
 384 934 l 1
 430 934 l 1
 296 809 l 1
 266 809 l 1
EndSplineSet
Position2: "'cpsp' Capital Spacing in Lateinisch lookup 0 subtable" dx=5 dy=0 dh=10 dv=0
EndChar

StartChar: Zdotaccent
Encoding: 379 379 136
Width: 539
Flags: MW
HStem: -1 34<81 494 81 494> 666 34<44 494 44 457> 823 55<251 286 251 286>
VStem: 44 37<33 55 33 68 33 68> 251 35<823 878 823 878> 457 37<642 666 666 666>
LayerCount: 2
Fore
SplineSet
44 666 m 1
 44 700 l 1
 494 700 l 1
 494 630 l 1
 81 55 l 1
 81 33 l 1
 494 33 l 1
 494 -1 l 1
 44 -1 l 1
 44 68 l 1
 457 642 l 1
 457 666 l 1
 44 666 l 1
251 823 m 1
 251 878 l 1
 286 878 l 1
 286 823 l 1
 251 823 l 1
EndSplineSet
Position2: "'cpsp' Capital Spacing in Lateinisch lookup 0 subtable" dx=5 dy=0 dh=10 dv=0
EndChar

StartChar: g
Encoding: 103 103 139
Width: 501
Flags: MW
HStem: -239 32<188 319 188 330.5> 27 32<269.5 340.5> 179 32<228 287.5 188 293.5> 465 35<374 482> 478 32<188 263 182.5 287.5>
VStem: 58 36<-126.5 -55 -126.5 -47> 65 36<295 393 293 402.5> 121 34<97.5 119.5 88.5 120.5> 377 37<293 377.5 281.5 393> 432 37<-128 -34.5>
LayerCount: 2
Fore
SplineSet
256 -239 m 0xf440
 90 -239 58 -198 58 -80 c 0xf440
 58 -14 89 9 143 48 c 1
 127 58 121 82 121 113 c 0xf340
 121 128 151 191 151 191 c 1
 105 206 65 247 65 343 c 0
 65 462 129 510 236 510 c 0xea40
 290 510 342 497 342 497 c 1
 482 500 l 1
 482 465 l 1
 374 465 l 1
 399 442 414 412 414 343 c 0
 414 220 355 179 232 179 c 0
 224 179 190 181 178 183 c 1
 178 183 155 126 155 113 c 0xf3c0
 155 64 161 59 292 59 c 0
 416 59 469 39 469 -85 c 0
 469 -193 405 -239 256 -239 c 0xf440
290 27 m 0
 249 27 169 30 169 30 c 1
 111 -10 94 -31 94 -79 c 0
 94 -174 119 -207 257 -207 c 0
 381 -207 432 -171 432 -85 c 0
 432 16 391 27 290 27 c 0
235 211 m 0xeac0
 340 211 377 243 377 343 c 0
 377 443 340 478 235 478 c 0
 141 478 101 443 101 343 c 0
 101 243 141 211 235 211 c 0xeac0
EndSplineSet
EndChar

StartChar: h
Encoding: 104 104 140
Width: 526
Flags: MW
HStem: 0 21G<79 114 79 79 417 417 417 452> 477 32<245 343.5> 710 20G<79 114 114 114>
VStem: 79 35<0 437 470 730> 417 35<0 258 258 260 0 343>
LayerCount: 2
Fore
SplineSet
114 0 m 1
 79 0 l 1
 79 730 l 1
 114 730 l 1
 114 470 l 1
 114 470 202 509 288 509 c 0
 424 509 452 454 452 260 c 2
 452 0 l 1
 417 0 l 1
 417 258 l 2
 417 428 399 477 288 477 c 0
 199 477 114 437 114 437 c 1
 114 0 l 1
EndSplineSet
EndChar

StartChar: s
Encoding: 115 115 141
Width: 461
Flags: MW
HStem: -9 32<194.5 267 194.5 281> 477 32<190 256>
VStem: 51 37<346 417.5 346 428> 375 37<93 177>
LayerCount: 2
Fore
SplineSet
394 494 m 1
 392 461 l 1
 392 461 290 477 222 477 c 0
 158 477 88 458 88 377 c 0
 88 315 115 296 230 278 c 0
 361 257 412 238 412 144 c 0
 412 27 340 -9 222 -9 c 0
 165 -9 57 7 57 7 c 1
 61 40 l 1
 61 40 169 23 220 23 c 0
 314 23 375 45 375 141 c 0
 375 213 339 227 220 245 c 0
 103 263 51 282 51 375 c 0
 51 481 141 509 222 509 c 0
 299 509 394 494 394 494 c 1
EndSplineSet
EndChar

StartChar: endash
Encoding: 8211 8211 143
Width: 643
Flags: MW
HStem: 252 34<72 572 72 572>
VStem: 72 500<252 286 252 286>
LayerCount: 2
Fore
SplineSet
72 286 m 1
 572 286 l 1
 572 252 l 1
 72 252 l 1
 72 286 l 1
EndSplineSet
Substitution2: "'case' Case-Sensitive Forms in Lateinisch lookup 4 subtable" endash.cap
EndChar

StartChar: dollar
Encoding: 36 36 144
Width: 560
Flags: MW
HStem: -7 32<281 284 284 337.5> 637 32<229.5 287> 666 21G<349 349>
VStem: 80 35<451 552 451 564> 449 35<129.5 233>
LayerCount: 2
Fore
SplineSet
470 654 m 1xb8
 466 621 l 1
 466 621 401 629 344 633 c 1xb8
 308 355 l 1
 423 335 484 304 484 191 c 0
 484 44 415 -7 285 -7 c 0
 277 -7 270 -7 261 -6 c 1
 247 -120 l 1
 247 -120 212 -117 212 -113 c 2
 226 -5 l 1
 158 -1 83 8 83 8 c 1
 87 41 l 1
 87 41 164 31 230 27 c 1
 269 326 l 1
 149 345 80 370 80 503 c 0
 80 625 158 669 283 669 c 0
 292 669 303 669 314 668 c 1xd8
 330 790 l 1
 365 790 l 1
 349 666 l 1
 409 662 470 654 470 654 c 1xb8
115 505 m 0
 115 397 167 377 273 360 c 1
 310 636 l 1
 299 637 291 637 283 637 c 0xd8
 176 637 115 599 115 505 c 0
449 188 m 0
 449 278 405 303 304 321 c 1
 265 25 l 1
 284 25 l 2
 391 25 449 71 449 188 c 0
EndSplineSet
EndChar

StartChar: exclam
Encoding: 33 33 145
Width: 225
Flags: MW
HStem: 0 80<93 133 93 133>
VStem: 93 40<0 80 0 80> 95 35<214 700 214 700>
LayerCount: 2
Fore
SplineSet
93 0 m 1xc0
 93 80 l 1
 133 80 l 1
 133 0 l 1
 93 0 l 1xc0
95 214 m 1xa0
 95 700 l 1
 130 700 l 1
 130 214 l 1
 95 214 l 1xa0
EndSplineSet
EndChar

StartChar: summation
Encoding: 8721 8721 146
Width: 560
Flags: MW
HStem: -151 34<90 503 90 503> 715 34<90 503 90 90>
VStem: 53 37<-117 -85 -117 -76 -117 -76 688 715> 339 35<314 314>
LayerCount: 2
Fore
SplineSet
339 314 m 1
 53 676 l 1
 53 749 l 1
 503 749 l 1
 503 715 l 1
 90 715 l 1
 90 688 l 1
 374 328 l 1
 374 298 l 1
 90 -85 l 1
 90 -117 l 1
 503 -117 l 1
 503 -151 l 1
 53 -151 l 1
 53 -76 l 1
 339 314 l 1
EndSplineSet
EndChar

StartChar: a
Encoding: 97 97 147
Width: 495
Flags: MW
HStem: -9 32<149.5 227 149.5 229> -8 31 475 34<228.5 301.5>
VStem: 48 37<100.5 171.5 100.5 179.5> 376 35<65 269 269 269 301 353 65 396.5>
LayerCount: 2
Fore
SplineSet
411 353 m 2xb8
 411 65 l 2
 414 36 451 26 486 23 c 1xb8
 484 -8 l 1x78
 441 -8 403 3 381 34 c 1
 381 34 279 -9 179 -9 c 0
 97 -9 48 40 48 137 c 0
 48 222 88 271 186 281 c 2
 376 301 l 1
 376 353 l 2
 376 440 338 475 265 475 c 0
 192 475 76 458 76 458 c 1
 73 491 l 1
 73 491 185 509 265 509 c 0
 366 509 411 456 411 353 c 2xb8
376 269 m 1
 190 250 l 2
 112 242 85 206 85 137 c 0
 85 64 119 23 180 23 c 0
 274 23 376 64 376 64 c 1
 376 269 l 1
EndSplineSet
EndChar

StartChar: o
Encoding: 111 111 148
Width: 526
Flags: MW
HStem: -9 32<189 337 189 345.5> 477 32<199 327>
VStem: 60 37<173 343 173 351.5> 429 37<173 343>
LayerCount: 2
Fore
SplineSet
263 509 m 0
 411 509 466 444 466 259 c 0
 466 58 428 -9 263 -9 c 0
 98 -9 60 58 60 259 c 0
 60 444 115 509 263 509 c 0
263 23 m 0
 411 23 429 87 429 259 c 0
 429 427 391 477 263 477 c 0
 135 477 97 427 97 259 c 0
 97 87 115 23 263 23 c 0
EndSplineSet
EndChar

StartChar: n
Encoding: 110 110 149
Width: 527
Flags: MW
HStem: 0 21G<79 114 79 79 418 418 418 453> 460 40<79 114> 477 32<246 344.5>
VStem: 79 35<0 427 460 500> 418 35<0 258 258 260 0 343>
LayerCount: 2
Fore
SplineSet
114 0 m 1xb8
 79 0 l 1
 79 500 l 1
 114 500 l 1xd8
 114 460 l 1
 114 460 203 509 289 509 c 0
 425 509 453 454 453 260 c 2
 453 0 l 1
 418 0 l 1
 418 258 l 2
 418 428 400 477 289 477 c 0
 200 477 114 427 114 427 c 1
 114 0 l 1xb8
EndSplineSet
EndChar

StartChar: numbersign
Encoding: 35 35 150
Width: 560
Flags: MW
HStem: 0 21G<150 186 150 150 374 410 374 374> 190 32<30 150 30 150 186 374 410 530> 448 32<30 150 30 150 186 374 410 530>
VStem: 150 36<0 190 0 190 222 448 480 670> 374 36<0 190 0 190 222 448 480 670>
LayerCount: 2
Fore
SplineSet
530 190 m 1
 410 190 l 1
 410 0 l 1
 374 0 l 1
 374 190 l 1
 186 190 l 1
 186 0 l 1
 150 0 l 1
 150 190 l 1
 30 190 l 1
 30 222 l 1
 150 222 l 1
 150 448 l 1
 30 448 l 1
 30 480 l 1
 150 480 l 1
 150 670 l 1
 186 670 l 1
 186 480 l 1
 374 480 l 1
 374 670 l 1
 410 670 l 1
 410 480 l 1
 530 480 l 1
 530 448 l 1
 410 448 l 1
 410 222 l 1
 530 222 l 1
 530 190 l 1
374 222 m 1
 374 448 l 1
 186 448 l 1
 186 222 l 1
 374 222 l 1
EndSplineSet
EndChar

StartChar: at
Encoding: 64 64 151
Width: 979
Flags: MW
HStem: -199 32<365.5 524 365.5 528> -10 30<722 803 722 809.5> -9 32<436 498.5 436 504.5> 477 32<434 533.5 423 534.5> 687 32<365.5 645>
VStem: 60 37<95 420.5 95 430> 295 35<140.5 316 140.5 329> 637 35<300 450 450 450 482 500> 888 37<288 305 143.5 306 143.5 438>
LayerCount: 2
Fore
SplineSet
925 305 m 2xdf80
 925 288 l 2
 925 -1 857 -10 762 -10 c 0xdf80
 666 -10 655 53 655 53 c 1
 655 53 545 -9 464 -9 c 0xbf80
 402 -9 295 0 295 243 c 0
 295 415 341 509 505 509 c 0
 562 509 637 482 637 482 c 1
 637 500 l 1
 672 500 l 1
 672 300 l 2
 672 48 677 20 767 20 c 0
 839 20 888 29 888 288 c 2
 888 306 l 2
 888 570 786 687 504 687 c 0
 227 687 97 580 97 261 c 0
 97 -71 227 -167 504 -167 c 0
 544 -167 647 -157 647 -157 c 1
 650 -190 l 1
 650 -190 552 -199 504 -199 c 0
 208 -199 60 -100 60 261 c 0
 60 599 208 719 504 719 c 0
 809 719 925 589 925 305 c 2xdf80
464 23 m 0xbf80
 533 23 648 83 648 83 c 1
 648 83 637 197 637 300 c 2
 637 450 l 1
 637 450 564 477 505 477 c 0
 363 477 330 392 330 240 c 0
 330 41 408 23 464 23 c 0xbf80
EndSplineSet
EndChar

StartChar: ydieresis
Encoding: 255 255 152
Width: 471
Flags: MW
HStem: -230 21G<175 212 175 175> 0 32<215 247 186 256> 480 20G<31 68 68 68 404 441 441 441> 638 62<121 156 121 156 311 346>
VStem: 121 35<638 700 638 700> 311 35<638 700 638 700>
LayerCount: 2
Fore
SplineSet
31 500 m 1
 68 500 l 1
 215 32 l 1
 256 32 l 1
 404 500 l 1
 441 500 l 1
 212 -230 l 1
 175 -230 l 1
 247 0 l 1
 186 0 l 1
 31 500 l 1
121 638 m 1
 121 700 l 1
 156 700 l 1
 156 638 l 1
 121 638 l 1
311 638 m 1
 311 700 l 1
 346 700 l 1
 346 638 l 1
 311 638 l 1
EndSplineSet
EndChar

StartChar: scaron
Encoding: 353 353 153
Width: 461
Flags: MW
HStem: -9 32<194.5 267 194.5 281> 477 32<190 256> 600 33<225 240 240 240 240 253> 712 20G<104 146 146 146 333 375 375 375>
VStem: 51 37<346 417.5 346 428> 375 37<93 177>
LayerCount: 2
Fore
SplineSet
394 494 m 1
 392 461 l 1
 392 461 290 477 222 477 c 0
 158 477 88 458 88 377 c 0
 88 315 115 296 230 278 c 0
 361 257 412 238 412 144 c 0
 412 27 340 -9 222 -9 c 0
 165 -9 57 7 57 7 c 1
 61 40 l 1
 61 40 169 23 220 23 c 0
 314 23 375 45 375 141 c 0
 375 213 339 227 220 245 c 0
 103 263 51 282 51 375 c 0
 51 481 141 509 222 509 c 0
 299 509 394 494 394 494 c 1
225 600 m 1
 104 732 l 1
 146 732 l 1
 240 633 l 1
 333 732 l 1
 375 732 l 1
 253 600 l 1
 225 600 l 1
EndSplineSet
EndChar

StartChar: yacute
Encoding: 253 253 154
Width: 471
Flags: MW
HStem: -230 21G<175 212 175 175> 0 32<215 247 186 256> 480 20G<31 68 68 68 404 441 441 441> 701 21G<383 383>
VStem: 31 410<500 500>
LayerCount: 2
Fore
SplineSet
31 500 m 1
 68 500 l 1
 215 32 l 1
 256 32 l 1
 404 500 l 1
 441 500 l 1
 212 -230 l 1
 175 -230 l 1
 247 0 l 1
 186 0 l 1
 31 500 l 1
175 636 m 1
 367 732 l 1
 383 701 l 1
 190 609 l 1
 175 636 l 1
EndSplineSet
EndChar

StartChar: zcaron
Encoding: 382 382 155
Width: 455
Flags: MW
HStem: 0 32<87 413 42 42> 468 32<42 413 42 369 42 413> 600 33<212 227 227 227 227 240> 712 20G<91 133 133 133 320 362 362 362>
VStem: 42 371<0 32 0 32 468 500>
LayerCount: 2
Fore
SplineSet
42 468 m 1
 42 500 l 1
 413 500 l 1
 413 468 l 1
 87 32 l 1
 413 32 l 1
 413 0 l 1
 42 0 l 1
 42 32 l 1
 369 468 l 1
 42 468 l 1
212 600 m 1
 91 732 l 1
 133 732 l 1
 227 633 l 1
 320 732 l 1
 362 732 l 1
 240 600 l 1
 212 600 l 1
EndSplineSet
EndChar

StartChar: degree
Encoding: 176 176 156
Width: 560
Flags: MW
HStem: 438 32<249 311 249 320.5> 677 32<249 311>
VStem: 144 34<542 604 542 613.5> 384 32<542 604>
LayerCount: 2
Fore
SplineSet
144 573 m 0
 144 654 199 709 280 709 c 0
 361 709 416 654 416 573 c 0
 416 492 361 438 280 438 c 0
 199 438 144 492 144 573 c 0
178 573 m 0
 178 511 218 470 280 470 c 0
 342 470 384 511 384 573 c 0
 384 635 342 677 280 677 c 0
 218 677 178 635 178 573 c 0
EndSplineSet
EndChar

StartChar: section
Encoding: 167 167 157
Width: 487
Flags: MW
HStem: -123 31<217.5 289 217.5 300.5> 628 32<202.5 271>
VStem: 62 35<247.5 310.5 247.5 317> 72 35<487.5 555.5 471.5 565> 383 35<-8.5 57.5 -17 75.5> 386 35<224 293.5>
LayerCount: 2
Fore
SplineSet
403 647 m 1xd8
 401 615 l 1
 401 615 295 628 247 628 c 0
 158 628 107 593 107 518 c 0
 107 425 156 410 255 395 c 0
 358 379 421 354 421 255 c 0xd4
 421 190 382 128 382 128 c 1
 406 109 418 80 418 35 c 0
 418 -69 356 -123 245 -123 c 0
 185 -123 77 -110 77 -110 c 1
 80 -78 l 1
 80 -78 190 -92 245 -92 c 0
 333 -92 383 -51 383 34 c 0
 383 117 332 126 238 139 c 0
 125 155 62 185 62 283 c 0xe8
 62 351 116 403 116 403 c 1
 87 425 72 458 72 517 c 0
 72 613 138 660 247 660 c 0
 310 660 403 647 403 647 c 1xd8
248 363 m 0
 205 370 169 376 141 389 c 1
 141 389 97 336 97 285 c 0xe8
 97 210 146 185 245 171 c 0
 291 164 329 157 356 144 c 1
 356 144 386 196 386 252 c 0
 386 335 332 350 248 363 c 0
EndSplineSet
EndChar

StartChar: copyright
Encoding: 169 169 158
Width: 647
Flags: MW
HStem: 169 32<258.5 387.5 258.5 396.5> 281 32<291 337 291 338.5> 555 32<288 339> 668 32<258.5 387.5>
VStem: 68 32<369.5 498.5 369.5 507.5> 214 32<395 471.5 395 478.5> 547 32<369.5 498.5>
LayerCount: 2
Fore
SplineSet
68 434 m 0
 68 581 176 700 323 700 c 0
 470 700 579 581 579 434 c 0
 579 287 470 169 323 169 c 0
 176 169 68 287 68 434 c 0
100 434 m 0
 100 305 194 201 323 201 c 0
 452 201 547 305 547 434 c 0
 547 563 452 668 323 668 c 0
 194 668 100 563 100 434 c 0
396 321 m 1
 397 289 l 1
 397 289 354 281 323 281 c 0
 235 281 214 342 214 433 c 0
 214 524 233 587 323 587 c 0
 361 587 397 580 397 580 c 1
 396 548 l 1
 396 548 355 555 323 555 c 0
 253 555 246 510 246 433 c 0
 246 357 259 313 323 313 c 0
 351 313 396 321 396 321 c 1
EndSplineSet
EndChar

StartChar: trademark
Encoding: 8482 8482 159
Width: 689
Flags: MW
HStem: 342 37<468 468 468 485 450 468> 590 31<99 299 99 183 216 216 216 299>
VStem: 183 33<332 590 332 590> 334 32<331 589 331 621> 573 32<331 589 589 589>
LayerCount: 2
Fore
SplineSet
99 590 m 1
 99 621 l 1
 299 621 l 1
 299 590 l 1
 216 590 l 1
 216 332 l 1
 183 332 l 1
 183 590 l 1
 99 590 l 1
334 331 m 1
 334 621 l 1
 384 621 l 1
 468 379 l 1
 555 621 l 1
 605 621 l 1
 605 331 l 1
 573 331 l 1
 573 589 l 1
 485 342 l 1
 450 342 l 1
 366 589 l 1
 366 331 l 1
 334 331 l 1
EndSplineSet
EndChar

StartChar: registered
Encoding: 174 174 160
Width: 647
Flags: MW
HStem: 169 32<258.5 387.5 258.5 396.5> 402 31<253 332 253 333> 550 31<253 253 253 314 314 315> 668 32<258.5 387.5>
VStem: 68 32<369.5 498.5 369.5 507.5> 221 32<286 402 286 433 433 550> 395 32<469.5 514.5> 547 32<369.5 498.5>
LayerCount: 2
Fore
SplineSet
68 434 m 0
 68 581 176 700 323 700 c 0
 470 700 579 581 579 434 c 0
 579 287 470 169 323 169 c 0
 176 169 68 287 68 434 c 0
100 434 m 0
 100 305 194 201 323 201 c 0
 452 201 547 305 547 434 c 0
 547 563 452 668 323 668 c 0
 194 668 100 563 100 434 c 0
398 286 m 1
 332 402 l 1
 253 402 l 1
 253 286 l 1
 221 286 l 1
 221 581 l 1
 314 581 l 2
 390 581 427 560 427 492 c 0
 427 445 412 416 368 405 c 1
 433 286 l 1
 398 286 l 1
253 550 m 1
 253 433 l 1
 333 433 l 2
 377 433 395 447 395 492 c 0
 395 537 369 550 315 550 c 2
 253 550 l 1
EndSplineSet
EndChar

StartChar: aacute
Encoding: 225 225 161
Width: 495
Flags: MW
HStem: -9 32<149.5 227 149.5 229> -8 31 475 34<228.5 301.5> 701 21G<340 340>
VStem: 48 37<100.5 171.5 100.5 179.5> 376 35<65 269 269 269 301 353 65 396.5>
LayerCount: 2
Fore
SplineSet
411 353 m 2xbc
 411 65 l 2
 414 36 451 26 486 23 c 1xbc
 484 -8 l 1x7c
 441 -8 403 3 381 34 c 1
 381 34 279 -9 179 -9 c 0
 97 -9 48 40 48 137 c 0
 48 222 88 271 186 281 c 2
 376 301 l 1
 376 353 l 2
 376 440 338 475 265 475 c 0
 192 475 76 458 76 458 c 1
 73 491 l 1
 73 491 185 509 265 509 c 0
 366 509 411 456 411 353 c 2xbc
376 269 m 1
 190 250 l 2
 112 242 85 206 85 137 c 0
 85 64 119 23 180 23 c 0
 274 23 376 64 376 64 c 1
 376 269 l 1
132 636 m 1
 324 732 l 1
 340 701 l 1
 147 609 l 1
 132 636 l 1
EndSplineSet
EndChar

StartChar: agrave
Encoding: 224 224 162
Width: 495
Flags: MW
HStem: -9 32<149.5 227 149.5 229> -8 31 475 34<228.5 301.5> 701 21G<133 133> 712 20G<149 149>
VStem: 48 37<100.5 171.5 100.5 179.5> 376 35<65 269 269 269 301 353 65 396.5>
LayerCount: 2
Fore
SplineSet
411 353 m 2xb6
 411 65 l 2
 414 36 451 26 486 23 c 1xae
 484 -8 l 1x76
 441 -8 403 3 381 34 c 1
 381 34 279 -9 179 -9 c 0
 97 -9 48 40 48 137 c 0
 48 222 88 271 186 281 c 2
 376 301 l 1
 376 353 l 2
 376 440 338 475 265 475 c 0
 192 475 76 458 76 458 c 1
 73 491 l 1
 73 491 185 509 265 509 c 0
 366 509 411 456 411 353 c 2xb6
376 269 m 1
 190 250 l 2
 112 242 85 206 85 137 c 0
 85 64 119 23 180 23 c 0
 274 23 376 64 376 64 c 1
 376 269 l 1
149 732 m 1
 341 636 l 1
 326 609 l 1
 133 701 l 1
 149 732 l 1
EndSplineSet
EndChar

StartChar: acircumflex
Encoding: 226 226 163
Width: 495
Flags: MW
HStem: -9 32<149.5 227 149.5 229> -8 31 475 34<228.5 301.5> 600 132<103 252 103 252 224 331 224 374> 700 21G<239 239>
VStem: 48 37<100.5 171.5 100.5 179.5> 376 35<65 269 269 269 301 353 65 396.5>
LayerCount: 2
Fore
SplineSet
411 353 m 2xae
 411 65 l 2
 414 36 451 26 486 23 c 1xb6
 484 -8 l 1x6e
 441 -8 403 3 381 34 c 1
 381 34 279 -9 179 -9 c 0
 97 -9 48 40 48 137 c 0
 48 222 88 271 186 281 c 2
 376 301 l 1
 376 353 l 2
 376 440 338 475 265 475 c 0
 192 475 76 458 76 458 c 1
 73 491 l 1
 73 491 185 509 265 509 c 0
 366 509 411 456 411 353 c 2xae
376 269 m 1
 190 250 l 2
 112 242 85 206 85 137 c 0
 85 64 119 23 180 23 c 0
 274 23 376 64 376 64 c 1
 376 269 l 1
103 600 m 1
 224 732 l 1
 252 732 l 1
 374 600 l 1
 331 600 l 1xb6
 239 700 l 1xae
 146 600 l 1
 103 600 l 1
EndSplineSet
EndChar

StartChar: adieresis
Encoding: 228 228 164
Width: 495
Flags: MW
HStem: -9 32<149.5 227 149.5 229> -8 31 475 34<228.5 301.5> 638 62<132 167 132 167 322 357>
VStem: 48 37<100.5 171.5 100.5 179.5> 132 35<638 700 638 700> 322 35<638 700 638 700> 376 35<65 269 269 269 301 353 65 396.5>
LayerCount: 2
Fore
SplineSet
411 353 m 2xbd
 411 65 l 2
 414 36 451 26 486 23 c 1xbd
 484 -8 l 1x7d
 441 -8 403 3 381 34 c 1
 381 34 279 -9 179 -9 c 0
 97 -9 48 40 48 137 c 0
 48 222 88 271 186 281 c 2
 376 301 l 1
 376 353 l 2
 376 440 338 475 265 475 c 0
 192 475 76 458 76 458 c 1
 73 491 l 1
 73 491 185 509 265 509 c 0
 366 509 411 456 411 353 c 2xbd
376 269 m 1
 190 250 l 2
 112 242 85 206 85 137 c 0
 85 64 119 23 180 23 c 0
 274 23 376 64 376 64 c 1
 376 269 l 1
132 638 m 1
 132 700 l 1
 167 700 l 1
 167 638 l 1
 132 638 l 1
322 638 m 1xbf
 322 700 l 1
 357 700 l 1
 357 638 l 1
 322 638 l 1xbf
EndSplineSet
EndChar

StartChar: atilde
Encoding: 227 227 165
Width: 495
Flags: MW
HStem: -9 32<149.5 227 149.5 229> -8 31 475 34<228.5 301.5> 630 32<305 330 305 334.5> 668 21G<92 92> 684 31<161.5 188> 703 21G<383 383>
VStem: 48 37<100.5 171.5 100.5 179.5> 376 35<65 269 269 269 301 353 65 396.5>
LayerCount: 2
Fore
SplineSet
411 353 m 2xab80
 411 65 l 2
 414 36 451 26 486 23 c 1xb380
 484 -8 l 1x6b80
 441 -8 403 3 381 34 c 1
 381 34 279 -9 179 -9 c 0
 97 -9 48 40 48 137 c 0
 48 222 88 271 186 281 c 2
 376 301 l 1
 376 353 l 2
 376 440 338 475 265 475 c 0
 192 475 76 458 76 458 c 1
 73 491 l 1
 73 491 185 509 265 509 c 0
 366 509 411 456 411 353 c 2xab80
376 269 m 1
 190 250 l 2
 112 242 85 206 85 137 c 0
 85 64 119 23 180 23 c 0
 274 23 376 64 376 64 c 1
 376 269 l 1
383 703 m 1
 392 673 l 1
 392 673 350 630 319 630 c 0xb380
 279 630 204 684 172 684 c 0
 151 684 102 639 102 639 c 1
 92 668 l 1
 92 668 141 715 174 715 c 0xa580
 214 715 289 662 321 662 c 0
 339 662 383 703 383 703 c 1
EndSplineSet
EndChar

StartChar: aring
Encoding: 229 229 166
Width: 495
Flags: MW
HStem: -9 32<149.5 227 149.5 229> -8 31 475 34<228.5 301.5> 555 31<231.5 266 231.5 275.5> 713 32<231.5 266>
VStem: 48 37<100.5 171.5 100.5 179.5> 153 34<632.5 667 632.5 676.5> 310 33<632.5 667> 376 35<65 269 269 269 301 353 65 396.5>
LayerCount: 2
Fore
SplineSet
411 353 m 2xbf80
 411 65 l 2
 414 36 451 26 486 23 c 1xbf80
 484 -8 l 1x7f80
 441 -8 403 3 381 34 c 1
 381 34 279 -9 179 -9 c 0
 97 -9 48 40 48 137 c 0
 48 222 88 271 186 281 c 2
 376 301 l 1
 376 353 l 2
 376 440 338 475 265 475 c 0
 192 475 76 458 76 458 c 1
 73 491 l 1
 73 491 185 509 265 509 c 0
 366 509 411 456 411 353 c 2xbf80
376 269 m 1
 190 250 l 2
 112 242 85 206 85 137 c 0
 85 64 119 23 180 23 c 0
 274 23 376 64 376 64 c 1
 376 269 l 1
153 650 m 0
 153 703 195 745 249 745 c 0
 302 745 343 703 343 650 c 0
 343 596 302 555 249 555 c 0
 195 555 153 596 153 650 c 0
187 650 m 0
 187 615 214 586 249 586 c 0
 283 586 310 615 310 650 c 0
 310 684 283 713 249 713 c 0
 214 713 187 684 187 650 c 0
EndSplineSet
EndChar

StartChar: eacute
Encoding: 233 233 167
Width: 502
Flags: MW
HStem: -9 32<246 282 189 282.5> 236 32<95 413 95 450 95 413> 477 32<210 312> 701 21G<379 379>
VStem: 58 37<168.5 236 268 344> 413 37<268 269 236 344.5>
LayerCount: 2
Fore
SplineSet
247 23 m 0
 317 23 429 32 429 32 c 1
 431 0 l 1
 431 0 319 -9 246 -9 c 0
 97 -8 58 87 58 250 c 0
 58 448 146 509 260 509 c 0
 383 509 450 442 450 269 c 2
 450 236 l 1
 95 236 l 1
 95 98 131 23 247 23 c 0
95 268 m 1
 413 268 l 1
 413 421 364 477 260 477 c 0
 160 477 95 420 95 268 c 1
171 636 m 1
 363 732 l 1
 379 701 l 1
 186 609 l 1
 171 636 l 1
EndSplineSet
EndChar

StartChar: egrave
Encoding: 232 232 168
Width: 502
Flags: MW
HStem: -9 32<246 282 189 282.5> 236 32<95 413 95 450 95 413> 477 32<210 312> 702 21G<128 128>
VStem: 58 37<168.5 236 268 344> 413 37<268 269 236 344.5>
LayerCount: 2
Fore
SplineSet
247 23 m 0
 317 23 429 32 429 32 c 1
 431 0 l 1
 431 0 319 -9 246 -9 c 0
 97 -8 58 87 58 250 c 0
 58 448 146 509 260 509 c 0
 383 509 450 442 450 269 c 2
 450 236 l 1
 95 236 l 1
 95 98 131 23 247 23 c 0
95 268 m 1
 413 268 l 1
 413 421 364 477 260 477 c 0
 160 477 95 420 95 268 c 1
144 733 m 1
 336 637 l 1
 321 610 l 1
 128 702 l 1
 144 733 l 1
EndSplineSet
EndChar

StartChar: ecircumflex
Encoding: 234 234 169
Width: 502
Flags: MW
HStem: -9 32<246 282 189 282.5> 236 32<95 413 95 450 95 413> 477 32<210 312> 600 132<128 277 128 277 249 356 249 399> 700 21G<264 264>
VStem: 58 37<168.5 236 268 344> 413 37<268 269 236 344.5>
LayerCount: 2
Fore
SplineSet
247 23 m 0xee
 317 23 429 32 429 32 c 1
 431 0 l 1
 431 0 319 -9 246 -9 c 0
 97 -8 58 87 58 250 c 0
 58 448 146 509 260 509 c 0
 383 509 450 442 450 269 c 2
 450 236 l 1
 95 236 l 1
 95 98 131 23 247 23 c 0xee
95 268 m 1
 413 268 l 1
 413 421 364 477 260 477 c 0
 160 477 95 420 95 268 c 1
128 600 m 1xf6
 249 732 l 1
 277 732 l 1
 399 600 l 1
 356 600 l 1xf6
 264 700 l 1xee
 171 600 l 1
 128 600 l 1xf6
EndSplineSet
EndChar

StartChar: edieresis
Encoding: 235 235 170
Width: 502
Flags: MW
HStem: -9 32<246 282 189 282.5> 236 32<95 413 95 450 95 413> 477 32<210 312> 638 62<144 179 144 179 334 369>
VStem: 58 37<168.5 236 268 344> 144 35<638 700 638 700> 334 35<638 700 638 700> 413 37<268 269 236 344.5>
LayerCount: 2
Fore
SplineSet
247 23 m 0
 317 23 429 32 429 32 c 1
 431 0 l 1
 431 0 319 -9 246 -9 c 0
 97 -8 58 87 58 250 c 0
 58 448 146 509 260 509 c 0
 383 509 450 442 450 269 c 2
 450 236 l 1
 95 236 l 1
 95 98 131 23 247 23 c 0
95 268 m 1
 413 268 l 1
 413 421 364 477 260 477 c 0
 160 477 95 420 95 268 c 1
144 638 m 1
 144 700 l 1
 179 700 l 1
 179 638 l 1
 144 638 l 1
334 638 m 1
 334 700 l 1
 369 700 l 1
 369 638 l 1
 334 638 l 1
EndSplineSet
EndChar

StartChar: idieresis
Encoding: 239 239 171
Width: 193
Flags: MW
HStem: 638 62<-19 16 -19 16 171 206>
VStem: -19 35<638 700 638 700> 171 35<638 700 638 700>
LayerCount: 2
Fore
SplineSet
79 500 m 1
 79 0 l 1
 114 0 l 1
 114 500 l 1
 79 500 l 1
-19 638 m 1
 -19 700 l 1
 16 700 l 1
 16 638 l 1
 -19 638 l 1
171 638 m 1
 171 700 l 1
 206 700 l 1
 206 638 l 1
 171 638 l 1
EndSplineSet
EndChar

StartChar: ntilde
Encoding: 241 241 172
Width: 527
Flags: MW
HStem: 630 32<338 363 338 367.5> 668 21G<125 125> 684 31<194.5 221> 703 21G<416 416>
VStem: 114 304<0 258 0 427 0 427 0 500 0 500>
LayerCount: 2
Fore
SplineSet
79 0 m 1x58
 114 0 l 1
 114 427 l 1
 114 427 200 477 289 477 c 0
 400 477 418 428 418 258 c 2
 418 0 l 1
 453 0 l 1
 453 260 l 2
 453 454 425 509 289 509 c 0
 203 509 114 460 114 460 c 1
 114 500 l 1
 79 500 l 1
 79 0 l 1x58
416 703 m 1
 425 673 l 1
 425 673 383 630 352 630 c 0x98
 312 630 237 684 205 684 c 0
 184 684 135 639 135 639 c 1
 125 668 l 1
 125 668 174 715 207 715 c 0x28
 247 715 322 662 354 662 c 0x98
 372 662 416 703 416 703 c 1
EndSplineSet
EndChar

StartChar: oacute
Encoding: 243 243 173
Width: 526
Flags: MW
HStem: 701 21G<387 387>
VStem: 60 406<158.5 351.5> 97 332<173 343>
LayerCount: 2
Fore
SplineSet
263 509 m 0xc0
 115 509 60 444 60 259 c 0
 60 58 98 -9 263 -9 c 0
 428 -9 466 58 466 259 c 0
 466 444 411 509 263 509 c 0xc0
263 23 m 0xa0
 115 23 97 87 97 259 c 0
 97 427 135 477 263 477 c 0
 391 477 429 427 429 259 c 0
 429 87 411 23 263 23 c 0xa0
179 636 m 1
 371 732 l 1
 387 701 l 1
 194 609 l 1
 179 636 l 1
EndSplineSet
EndChar

StartChar: ograve
Encoding: 242 242 174
Width: 526
Flags: MW
HStem: -9 32<189 337 189 345.5> 477 32<199 327> 701 21G<154 154>
VStem: 60 37<173 343 173 351.5> 429 37<173 343>
LayerCount: 2
Fore
SplineSet
263 509 m 0
 411 509 466 444 466 259 c 0
 466 58 428 -9 263 -9 c 0
 98 -9 60 58 60 259 c 0
 60 444 115 509 263 509 c 0
263 23 m 0
 411 23 429 87 429 259 c 0
 429 427 391 477 263 477 c 0
 135 477 97 427 97 259 c 0
 97 87 115 23 263 23 c 0
170 732 m 1
 362 636 l 1
 347 609 l 1
 154 701 l 1
 170 732 l 1
EndSplineSet
EndChar

StartChar: ocircumflex
Encoding: 244 244 175
Width: 526
Flags: MW
HStem: 509 223<249 277 249 337> 600 132<128 277 128 277 249 356 249 399> 700 21G<264 264>
VStem: 97 332<173 343>
LayerCount: 2
Fore
SplineSet
263 509 m 0x90
 115 509 60 444 60 259 c 0
 60 58 98 -9 263 -9 c 0
 428 -9 466 58 466 259 c 0
 466 444 411 509 263 509 c 0x90
263 23 m 0
 115 23 97 87 97 259 c 0
 97 427 135 477 263 477 c 0
 391 477 429 427 429 259 c 0
 429 87 411 23 263 23 c 0
128 600 m 1x50
 249 732 l 1
 277 732 l 1
 399 600 l 1
 356 600 l 1x50
 264 700 l 1x30
 171 600 l 1
 128 600 l 1x50
EndSplineSet
EndChar

StartChar: odieresis
Encoding: 246 246 176
Width: 526
Flags: MW
HStem: 638 62<146 181 146 181 336 371>
VStem: 97 332<173 343> 146 35<638 700 638 700> 336 35<638 700 638 700>
LayerCount: 2
Fore
SplineSet
263 509 m 0xb0
 115 509 60 444 60 259 c 0
 60 58 98 -9 263 -9 c 0
 428 -9 466 58 466 259 c 0
 466 444 411 509 263 509 c 0xb0
263 23 m 0xc0
 115 23 97 87 97 259 c 0
 97 427 135 477 263 477 c 0
 391 477 429 427 429 259 c 0
 429 87 411 23 263 23 c 0xc0
146 638 m 1xb0
 146 700 l 1
 181 700 l 1
 181 638 l 1
 146 638 l 1xb0
336 638 m 1
 336 700 l 1
 371 700 l 1
 371 638 l 1
 336 638 l 1
EndSplineSet
EndChar

StartChar: otilde
Encoding: 245 245 177
Width: 526
Flags: MW
HStem: 630 32<327 352 327 356.5> 668 21G<114 114> 684 31<183.5 210> 703 21G<405 405>
VStem: 60 406<158.5 351.5> 97 332<173 343>
LayerCount: 2
Fore
SplineSet
263 509 m 0x58
 115 509 60 444 60 259 c 0
 60 58 98 -9 263 -9 c 0
 428 -9 466 58 466 259 c 0
 466 444 411 509 263 509 c 0x58
263 23 m 0x94
 115 23 97 87 97 259 c 0
 97 427 135 477 263 477 c 0
 391 477 429 427 429 259 c 0
 429 87 411 23 263 23 c 0x94
405 703 m 1
 414 673 l 1
 414 673 372 630 341 630 c 0x94
 301 630 226 684 194 684 c 0
 173 684 124 639 124 639 c 1
 114 668 l 1
 114 668 163 715 196 715 c 0x24
 236 715 311 662 343 662 c 0
 361 662 405 703 405 703 c 1
EndSplineSet
EndChar

StartChar: uacute
Encoding: 250 250 178
Width: 516
Flags: MW
HStem: 701 21G<380 380>
VStem: 109 293<242 500>
LayerCount: 2
Fore
SplineSet
437 500 m 1
 402 500 l 1
 402 73 l 1
 402 73 327 23 238 23 c 0
 127 23 109 72 109 242 c 2
 109 500 l 1
 74 500 l 1
 74 240 l 2
 74 46 102 -9 238 -9 c 0
 324 -9 402 40 402 40 c 1
 402 0 l 1
 437 0 l 1
 437 500 l 1
172 636 m 1
 364 732 l 1
 380 701 l 1
 187 609 l 1
 172 636 l 1
EndSplineSet
EndChar

StartChar: ugrave
Encoding: 249 249 179
Width: 516
Flags: MW
HStem: -9 32<182.5 281> 0 21G<402 437 402 402> 480 20G<74 109 109 109 402 437 437 437> 701 21G<125 125> 712 20G<141 141>
VStem: 74 35<240 242 242 500> 402 35<0 40 40 40 73 500 0 500>
LayerCount: 2
Fore
SplineSet
402 500 m 1xb6
 437 500 l 1
 437 0 l 1
 402 0 l 1x6e
 402 40 l 1
 402 40 324 -9 238 -9 c 0
 102 -9 74 46 74 240 c 2
 74 500 l 1
 109 500 l 1
 109 242 l 2
 109 72 127 23 238 23 c 0
 327 23 402 73 402 73 c 1
 402 500 l 1xb6
141 732 m 1
 333 636 l 1
 318 609 l 1
 125 701 l 1
 141 732 l 1
EndSplineSet
EndChar

StartChar: ucircumflex
Encoding: 251 251 180
Width: 516
Flags: MW
HStem: 600 132<121 270 121 270 242 349 242 392> 700 21G<257 257>
VStem: 109 293<242 500>
LayerCount: 2
Fore
SplineSet
437 500 m 1x60
 402 500 l 1
 402 73 l 1
 402 73 327 23 238 23 c 0
 127 23 109 72 109 242 c 2
 109 500 l 1
 74 500 l 1
 74 240 l 2
 74 46 102 -9 238 -9 c 0
 324 -9 402 40 402 40 c 1
 402 0 l 1
 437 0 l 1
 437 500 l 1x60
121 600 m 1xa0
 242 732 l 1
 270 732 l 1
 392 600 l 1
 349 600 l 1xa0
 257 700 l 1x60
 164 600 l 1
 121 600 l 1xa0
EndSplineSet
EndChar

StartChar: udieresis
Encoding: 252 252 181
Width: 516
Flags: MW
HStem: 638 62<149 184 149 184 339 374>
VStem: 109 293<242 500> 149 35<638 700 638 700> 339 35<638 700 638 700>
LayerCount: 2
Fore
SplineSet
437 500 m 1xb0
 402 500 l 1
 402 73 l 1
 402 73 327 23 238 23 c 0
 127 23 109 72 109 242 c 2
 109 500 l 1
 74 500 l 1
 74 240 l 2xc0
 74 46 102 -9 238 -9 c 0
 324 -9 402 40 402 40 c 1
 402 0 l 1
 437 0 l 1
 437 500 l 1xb0
149 638 m 1xb0
 149 700 l 1
 184 700 l 1
 184 638 l 1
 149 638 l 1xb0
339 638 m 1
 339 700 l 1
 374 700 l 1
 374 638 l 1
 339 638 l 1
EndSplineSet
EndChar

StartChar: minus
Encoding: 8722 8722 182
Width: 560
Flags: MW
HStem: 234 34<69 491 69 491>
VStem: 69 422<234 268 234 268>
LayerCount: 2
Fore
SplineSet
69 234 m 1
 69 268 l 1
 491 268 l 1
 491 234 l 1
 69 234 l 1
EndSplineSet
EndChar

StartChar: multiply
Encoding: 215 215 183
Width: 560
Flags: MW
HStem: 52 398<105 105 105 455>
VStem: 81 398<76 76 76 426>
LayerCount: 2
Fore
SplineSet
105 450 m 1
 280 274 l 1
 455 450 l 1
 479 426 l 1
 303 251 l 1
 479 76 l 1
 455 52 l 1
 280 228 l 1
 105 52 l 1
 81 76 l 1
 257 251 l 1
 81 426 l 1
 105 450 l 1
EndSplineSet
EndChar

StartChar: dotlessi
Encoding: 305 305 184
Width: 193
Flags: MW
HStem: 0 21G<79 79 79 114> 480 20G<79 114 114 114>
VStem: 79 35<0 500 0 500>
LayerCount: 2
Fore
SplineSet
79 0 m 1
 79 500 l 1
 114 500 l 1
 114 0 l 1
 79 0 l 1
EndSplineSet
EndChar

StartChar: iacute
Encoding: 237 237 185
Width: 193
Flags: MW
HStem: 701 21G<251 251>
VStem: 43 208<636 701>
LayerCount: 2
Fore
SplineSet
43 636 m 1
 235 732 l 1
 251 701 l 1
 58 609 l 1
 43 636 l 1
79 500 m 1
 79 0 l 1
 114 0 l 1
 114 500 l 1
 79 500 l 1
EndSplineSet
EndChar

StartChar: igrave
Encoding: 236 236 186
Width: 193
Flags: MW
HStem: 0 21G<79 79 79 114> 480 20G<79 114 114 114> 701 21G<-60 -60>
VStem: 79 35<0 500 0 500>
LayerCount: 2
Fore
SplineSet
79 0 m 1
 79 500 l 1
 114 500 l 1
 114 0 l 1
 79 0 l 1
-44 732 m 1
 148 636 l 1
 133 609 l 1
 -60 701 l 1
 -44 732 l 1
EndSplineSet
EndChar

StartChar: icircumflex
Encoding: 238 238 187
Width: 193
Flags: MW
HStem: 600 132<-39 110 -39 110 82 189 82 232> 700 21G<97 97>
VStem: -39 271<600 600>
LayerCount: 2
Fore
SplineSet
79 500 m 1x60
 79 0 l 1
 114 0 l 1
 114 500 l 1
 79 500 l 1x60
-39 600 m 1xa0
 82 732 l 1
 110 732 l 1
 232 600 l 1
 189 600 l 1xa0
 97 700 l 1x60
 4 600 l 1
 -39 600 l 1xa0
EndSplineSet
EndChar

StartChar: germandbls
Encoding: 223 223 188
Width: 549
Flags: MW
HStem: -9 34<288 368 288 379> 0 21G<79 114 79 79> 705 21G<203.5 301> 719 20G<190.5 315.5>
VStem: 79 35<0 548> 251 37<411 433 411 442> 383 38<575.5 640.5> 468 38<129 217.5>
LayerCount: 2
Fore
SplineSet
114 0 m 1x6f
 79 0 l 1x6f
 79 561 l 2
 79 698 130 739 251 739 c 0
 380 739 421 697 421 603 c 0
 421 534 401 497 348 473 c 0
 302 452 288 444 288 422 c 0
 288 400 308 386 372 353 c 0
 471 302 506 269 506 186 c 0
 506 51 452 -9 306 -9 c 0
 266 -9 191 1 191 1 c 1
 193 34 l 1
 193 34 270 25 306 25 c 0x9f
 430 25 468 77 468 181 c 0
 468 254 439 280 347 327 c 0
 271 366 251 382 251 422 c 0
 251 462 280 477 328 499 c 0
 371 519 383 548 383 603 c 0
 383 678 351 705 251 705 c 0
 156 705 114 679 114 548 c 2
 114 0 l 1x6f
EndSplineSet
EndChar

StartChar: ccedilla
Encoding: 231 231 189
Width: 429
Flags: MW
HStem: -201 28<248 279.5 248 290> -85 28<244 265> -9 32<261 284> -6 29<211 211> 477 32<201 284>
VStem: 60 37<175 340 175 353.5> 211 33<-57 -8 -57 -6 -57 -6> 313 35<-144.5 -111.5>
LayerCount: 2
Fore
SplineSet
348 -127 m 0xef
 348 -180 314 -201 266 -201 c 0
 222 -201 185 -197 185 -197 c 1
 187 -169 l 1
 187 -169 231 -173 265 -173 c 0
 294 -173 313 -162 313 -127 c 0
 313 -96 294 -85 265 -85 c 2
 211 -85 l 1
 211 -6 l 1xdf
 89 9 60 83 60 261 c 0
 60 446 116 509 265 509 c 0
 303 509 385 499 385 499 c 1
 383 467 l 1
 383 467 303 477 265 477 c 0
 137 477 97 419 97 261 c 0
 97 89 123 23 265 23 c 0
 303 23 385 32 385 32 c 1
 387 0 l 1
 387 0 303 -9 265 -9 c 0
 257 -9 251 -9 244 -8 c 1
 244 -57 l 1
 315 -57 348 -71 348 -127 c 0xef
EndSplineSet
EndChar

StartChar: lslash
Encoding: 322 322 190
Width: 263
Flags: MW
HStem: 0 21G<111 111 111 146> 710 20G<111 146 146 146>
VStem: 111 35<0 319 319 319 384 730>
LayerCount: 2
Fore
SplineSet
111 0 m 1
 111 319 l 1
 33 265 l 1
 14 292 l 1
 111 360 l 1
 111 730 l 1
 146 730 l 1
 146 384 l 1
 227 441 l 1
 246 414 l 1
 146 344 l 1
 146 0 l 1
 111 0 l 1
EndSplineSet
EndChar

StartChar: eth
Encoding: 240 240 191
Width: 535
Flags: MW
HStem: -9 34<202.5 325 202.5 336> 391 34<197.5 287> 708 21G<105 105>
VStem: 45 36<153 266 153 277> 439 36<346 346>
LayerCount: 2
Fore
SplineSet
152 556 m 1
 132 583 l 1
 238 655 l 1
 200 675 156 693 105 708 c 1
 118 739 l 1
 175 722 226 701 270 676 c 1
 372 745 l 1
 392 718 l 1
 303 657 l 1
 416 584 475 483 475 355 c 0
 475 84 412 -9 260 -9 c 0
 127 -9 45 71 45 214 c 0
 45 340 123 425 249 425 c 0
 327 425 438 381 438 381 c 1
 435 473 386 566 271 636 c 1
 152 556 l 1
251 391 m 0
 144 391 81 318 81 214 c 0
 81 92 145 25 260 25 c 0
 390 25 437 99 439 346 c 1
 439 346 323 391 251 391 c 0
EndSplineSet
EndChar

StartChar: Thorn
Encoding: 222 222 192
Width: 601
Flags: MW
HStem: 0 169<92 347 92 347> 135 34<128 347 128 347> 544 34<128 347 128 347>
VStem: 92 36<0 135 169 544 578 700> 516 38<306.5 427.5>
LayerCount: 2
Fore
SplineSet
347 169 m 2x78
 468 169 516 246 516 367 c 0
 516 488 468 544 347 544 c 2
 128 544 l 1
 128 169 l 1
 347 169 l 2x78
347 135 m 2
 128 135 l 1x78
 128 0 l 1
 92 0 l 1xb8
 92 700 l 1
 128 700 l 1
 128 578 l 1
 347 578 l 2
 492 578 554 512 554 367 c 0
 554 222 492 135 347 135 c 2
EndSplineSet
Position2: "'cpsp' Capital Spacing in Lateinisch lookup 0 subtable" dx=5 dy=0 dh=10 dv=0
EndChar

StartChar: oslash
Encoding: 248 248 193
Width: 526
Flags: MW
HStem: -9 32<248.5 337 248.5 345.5> 0 21G<179 179> 477 32<199 277.5> 489 20G<189 279.5>
VStem: 60 37<198 343 198 351.5> 429 37<173 313.5>
LayerCount: 2
Fore
SplineSet
263 509 m 0xac
 296 509 325 506 349 498 c 1
 393 605 l 1
 423 594 l 1xac
 378 487 l 1
 440 454 466 384 466 259 c 0
 466 58 428 -9 263 -9 c 0x9c
 230 -9 202 -6 179 0 c 1x6c
 133 -114 l 1
 103 -104 l 1
 149 9 l 1
 79 41 60 116 60 259 c 0
 60 444 115 509 263 509 c 0xac
263 477 m 0
 135 477 97 427 97 259 c 0
 97 137 106 69 163 40 c 1
 337 468 l 1
 317 474 292 477 263 477 c 0
263 23 m 0
 411 23 429 87 429 259 c 0
 429 368 413 428 366 456 c 1
 191 30 l 1
 210 25 234 23 263 23 c 0
EndSplineSet
EndChar

StartChar: zero.pnum
Encoding: 65540 -1 194
Width: 529
Flags: MW
HStem: -9 32<216 317 216 323.5> 477 32<215.5 316.5>
VStem: 61 35<155.5 339.5 155.5 345> 432 35<154.5 338.5>
LayerCount: 2
Fore
SplineSet
263 509 m 0
 393 509 467 456 467 241 c 0
 467 47 383 -9 264 -9 c 0
 152 -9 61 47 61 243 c 0
 61 447 143 509 263 509 c 0
264 477 m 0
 167 477 96 435 96 244 c 0
 96 67 167 23 265 23 c 0
 369 23 432 67 432 242 c 0
 432 435 369 477 264 477 c 0
EndSplineSet
Substitution2: "'frac' Diagonal Fractions in Lateinisch lookup 1 subtable" zerosuperior
EndChar

StartChar: one.pnum
Encoding: 65541 -1 195
Width: 326
Flags: MW
HStem: 0 21G<208 243 208 208> 462 38<208 243>
VStem: 208 35<0 462 462 462 0 500>
LayerCount: 2
Fore
SplineSet
35 391 m 1
 208 500 l 1
 243 500 l 1
 243 0 l 1
 208 0 l 1
 208 462 l 1
 52 363 l 1
 35 391 l 1
EndSplineSet
Substitution2: "'frac' Diagonal Fractions in Lateinisch lookup 1 subtable" onesuperior
EndChar

StartChar: two.pnum
Encoding: 65542 -1 196
Width: 463
Flags: MW
HStem: 0 32<98 409 58 58> 477 32<197 272.5>
VStem: 358 35<337 408.5>
LayerCount: 2
Fore
SplineSet
409 0 m 1
 58 0 l 1
 58 32 l 1
 259 207 l 2
 322 262 358 304 358 370 c 0
 358 447 319 477 226 477 c 0
 168 477 61 458 61 457 c 2
 58 488 l 1
 58 488 156 509 227 509 c 0
 337 509 393 465 393 370 c 0
 393 289 351 244 293 195 c 2
 98 32 l 1
 409 32 l 1
 409 0 l 1
EndSplineSet
Substitution2: "'frac' Diagonal Fractions in Lateinisch lookup 1 subtable" twosuperior
EndChar

StartChar: three.pnum
Encoding: 65543 -1 197
Width: 484
Flags: MW
HStem: -9 21G<203.5 301> -9 32<204.5 245 204.5 301> 250 32<129 250 129 251 129 250> 478 32<201 284>
VStem: 374 35<347.5 420.5> 389 35<96 180.5>
LayerCount: 2
Fore
SplineSet
66 492 m 1x74
 66 492 162 510 238 510 c 0
 346 510 409 477 409 384 c 0x78
 409 289 313 267 312 267 c 1
 369 251 424 228 424 137 c 0
 424 38 357 -9 245 -9 c 0x74
 162 -9 59 9 59 9 c 1xb4
 64 41 l 1
 64 41 164 23 245 23 c 0
 335 24 389 57 389 135 c 0x74
 389 226 317 246 251 250 c 1
 129 250 l 1
 129 282 l 1
 250 282 l 2
 309 285 374 310 374 385 c 0x78
 374 456 329 478 239 478 c 0
 163 478 70 460 70 460 c 1
 66 492 l 1x74
EndSplineSet
Substitution2: "'frac' Diagonal Fractions in Lateinisch lookup 1 subtable" threesuperior
EndChar

StartChar: four.pnum
Encoding: 65544 -1 198
Width: 465
Flags: MW
HStem: 101 32<79 331 79 331 366 427> 480 20G<216 252 252 252>
VStem: 331 35<-33 101 -33 101 133 280>
LayerCount: 2
Fore
SplineSet
331 -33 m 1
 331 101 l 1
 40 101 l 1
 40 132 l 1
 216 500 l 1
 252 500 l 1
 79 133 l 1
 331 133 l 1
 331 280 l 1
 366 280 l 1
 366 133 l 1
 427 133 l 1
 427 101 l 1
 366 101 l 1
 366 -33 l 1
 331 -33 l 1
EndSplineSet
Substitution2: "'frac' Diagonal Fractions in Lateinisch lookup 1 subtable" foursuperior
EndChar

StartChar: five.pnum
Encoding: 65545 -1 199
Width: 480
Flags: MW
HStem: -9 21G<216 305> -9 32<219 295.5 219 305> 281 32<221 295.5> 469 32<114 405 114 114>
VStem: 75 32 390 35<115.5 207.5>
LayerCount: 2
Fore
SplineSet
83 501 m 1x7c
 405 501 l 1
 405 469 l 1
 114 469 l 1
 100 273 l 1
 100 273 184 313 256 313 c 0
 356 313 425 273 425 164 c 0
 425 47 356 -9 254 -9 c 0x7c
 178 -9 66 9 66 9 c 1xbc
 70 41 l 1
 70 41 184 23 254 23 c 0
 337 23 390 67 390 164 c 0
 390 251 336 281 255 281 c 0
 187 281 91 238 91 238 c 1
 67 244 l 1
 83 501 l 1x7c
EndSplineSet
Substitution2: "'frac' Diagonal Fractions in Lateinisch lookup 1 subtable" fivesuperior
EndChar

StartChar: six.pnum
Encoding: 65546 -1 200
Width: 481
Flags: MW
HStem: -10 31<193 294 193 304.5> 281 32<232.5 305.5> 477 32<209.5 291>
VStem: 61 34<237 237 269 348.5> 393 35<111 199.5>
LayerCount: 2
Fore
SplineSet
400 494 m 1
 397 463 l 1
 397 463 323 477 259 477 c 0
 160 477 95 428 95 269 c 1
 140 290 208 313 257 313 c 0
 372 313 428 259 428 157 c 0
 428 49 366 -10 243 -10 c 0
 126 -10 61 73 61 254 c 0
 61 444 137 509 259 509 c 0
 323 509 400 494 400 494 c 1
255 281 m 0
 185 281 95 237 95 237 c 1
 97 94 143 21 243 21 c 0
 345 21 393 65 393 157 c 0
 393 242 356 281 255 281 c 0
EndSplineSet
Substitution2: "'frac' Diagonal Fractions in Lateinisch lookup 1 subtable" sixsuperior
EndChar

StartChar: seven.pnum
Encoding: 65547 -1 201
Width: 404
Flags: MW
HStem: -9 21G<143 143> 469 32<41 368 41 333>
VStem: 333 35<451 469 469 469>
LayerCount: 2
Fore
SplineSet
41 469 m 1
 41 501 l 1
 368 501 l 1
 368 448 l 1
 143 -9 l 1
 111 1 l 1
 333 451 l 1
 333 469 l 1
 41 469 l 1
EndSplineSet
Substitution2: "'frac' Diagonal Fractions in Lateinisch lookup 1 subtable" sevensuperior
EndChar

StartChar: eight.pnum
Encoding: 65548 -1 202
Width: 512
Flags: MW
HStem: -10 32<208 303 208 314> 246 32<201 300 201 300> 477 32<206.5 301.5>
VStem: 62 35<83.5 164.5 83.5 170> 70 35<352 420.5 352 429> 408 35<351 419.5> 415 35<86.5 174>
LayerCount: 2
Fore
SplineSet
254 509 m 0xec
 370 509 443 473 443 383 c 0xf4
 443 315 406 283 337 263 c 1
 401 244 450 216 450 133 c 0
 450 19 374 -10 254 -10 c 0
 138 -10 62 23 62 126 c 0xf2
 62 214 107 238 167 263 c 1
 108 283 70 315 70 384 c 0
 70 474 136 509 254 509 c 0xec
254 22 m 0xf2
 352 22 415 40 415 133 c 0
 415 215 365 230 300 246 c 1
 201 246 l 1
 135 230 97 203 97 126 c 0
 97 41 162 22 254 22 c 0xf2
254 477 m 0xec
 159 477 105 458 105 383 c 0
 105 321 135 297 201 278 c 1
 300 278 l 1
 371 295 408 320 408 382 c 0
 408 457 349 477 254 477 c 0xec
EndSplineSet
Substitution2: "'frac' Diagonal Fractions in Lateinisch lookup 1 subtable" eightsuperior
EndChar

StartChar: nine.pnum
Encoding: 65549 -1 203
Width: 486
Flags: MW
HStem: -9 32<191 273 191 285> 190 32<181 261.5> 478 32<187 288.5>
VStem: 54 35<304.5 389.5 304.5 396> 388 37<154.5 233.5>
LayerCount: 2
Fore
SplineSet
74 6 m 1
 76 38 l 1
 76 38 159 23 223 23 c 0
 323 23 388 72 388 234 c 1
 388 233 295 190 228 190 c 0
 115 190 54 246 54 344 c 0
 54 448 122 510 235 510 c 0
 363 510 425 424 425 251 c 0
 425 58 347 -9 223 -9 c 0
 159 -9 74 6 74 6 c 1
229 222 m 0
 299 222 389 266 389 266 c 1
 386 408 342 478 235 478 c 0
 139 478 89 435 89 344 c 0
 89 265 133 222 229 222 c 0
EndSplineSet
Substitution2: "'frac' Diagonal Fractions in Lateinisch lookup 1 subtable" ninesuperior
EndChar

StartChar: brokenbar
Encoding: 166 166 204
Width: 209
Flags: MW
HStem: -230 21G<87 122 87 87> 710 20G<87 122 122 122>
VStem: 87 35<-230 146 -230 146 354 730>
LayerCount: 2
Fore
SplineSet
87 730 m 1
 122 730 l 1
 122 354 l 1
 87 354 l 1
 87 730 l 1
87 146 m 1
 122 146 l 1
 122 -230 l 1
 87 -230 l 1
 87 146 l 1
EndSplineSet
EndChar

StartChar: plusminus
Encoding: 177 177 205
Width: 560
Flags: MW
HStem: 50 34<59 501 59 501> 308 34<59 261 59 261 297 501>
VStem: 261 36<164 308 164 308 342 480>
LayerCount: 2
Fore
SplineSet
59 308 m 1
 59 342 l 1
 261 342 l 1
 261 480 l 1
 297 480 l 1
 297 342 l 1
 501 342 l 1
 501 308 l 1
 297 308 l 1
 297 164 l 1
 261 164 l 1
 261 308 l 1
 59 308 l 1
59 84 m 1
 501 84 l 1
 501 50 l 1
 59 50 l 1
 59 84 l 1
EndSplineSet
EndChar

StartChar: pi
Encoding: 960 960 206
Width: 560
Flags: MW
HStem: 0 32<480.5 519 480.5 519> 468 32<181 385 181 181>
VStem: 385 35<154 468 468 468>
LayerCount: 2
Fore
SplineSet
385 154 m 2
 385 468 l 1
 181 468 l 1
 152 0 l 1
 116 0 l 1
 146 467 l 1
 59 466 25 455 25 455 c 1
 25 487 l 1
 25 487 81 500 162 500 c 2
 386 500 l 2
 469 500 531 516 531 516 c 1
 531 484 l 1
 531 484 500 471 420 469 c 1
 420 154 l 2
 420 51 442 32 519 32 c 1
 519 0 l 1
 418 0 385 30 385 154 c 2
EndSplineSet
EndChar

StartChar: bullet
Encoding: 8226 8226 207
Width: 488
Flags: MW
HStem: 110 290<119 369 119 369>
VStem: 119 250<110 400 110 400>
LayerCount: 2
Fore
SplineSet
119 110 m 1
 119 400 l 1
 369 400 l 1
 369 110 l 1
 119 110 l 1
EndSplineSet
EndChar

StartChar: ordfeminine
Encoding: 170 170 208
Width: 366
Flags: MW
HStem: 386 31<122.5 157.5 122.5 160> 517 28.5 629 30<170 204.5>
VStem: 62 33<448 480.5 448 490> 239 31<437 520 520 520 549 571 437 572 437 593.5>
LayerCount: 2
Fore
SplineSet
270 571 m 2
 270 437 l 1
 278 424 293 417 307 414 c 1
 305 386 l 1
 280 387 267 393 251 408 c 1
 251 408 188 386 132 386 c 0
 91 386 62 417 62 466 c 0
 62 514 86 538 137 542 c 2
 239 549 l 1
 239 572 l 2
 239 615 222 629 187 629 c 0
 153 629 83 622 83 622 c 1
 81 651 l 1
 81 651 150 659 187 659 c 0
 244 659 270 634 270 571 c 2
239 520 m 1
 142 514 l 2
 108 512 95 497 95 464 c 0
 95 432 110 417 135 417 c 0
 180 417 239 435 239 435 c 1
 239 520 l 1
EndSplineSet
EndChar

StartChar: ordmasculine
Encoding: 186 186 209
Width: 353
Flags: MW
HStem: 386 32<148.5 205.5 148.5 215> 627 32<148.5 205.5>
VStem: 62 34<486 562 486 571> 256 34<486 562>
LayerCount: 2
Fore
SplineSet
177 659 m 0
 253 659 290 618 290 524 c 0
 290 430 253 386 177 386 c 0
 101 386 62 430 62 524 c 0
 62 618 101 659 177 659 c 0
177 418 m 0
 234 418 256 448 256 524 c 0
 256 600 234 627 177 627 c 0
 120 627 96 600 96 524 c 0
 96 448 120 418 177 418 c 0
EndSplineSet
EndChar

StartChar: quotedblleft
Encoding: 8220 8220 210
Width: 326
Flags: MW
HStem: 527 200<62 140 62 140 111 233 111 195>
VStem: 62 211<527 727>
LayerCount: 2
Fore
SplineSet
273 727 m 1
 233 527 l 1
 195 527 l 1
 244 727 l 1
 273 727 l 1
140 727 m 1
 100 527 l 1
 62 527 l 1
 111 727 l 1
 140 727 l 1
EndSplineSet
EndChar

StartChar: asciitilde
Encoding: 126 126 211
Width: 560
Flags: MW
HStem: 212 34<358 398 358 406> 285 34<166 206>
VStem: 71 422<265 267>
LayerCount: 2
Fore
SplineSet
482 298 m 1
 493 267 l 1
 493 267 431 212 381 212 c 0
 324 212 228 285 184 285 c 0
 148 285 82 233 82 233 c 1
 71 265 l 1
 71 265 133 319 183 319 c 0
 240 319 336 246 380 246 c 0
 416 246 482 298 482 298 c 1
EndSplineSet
EndChar

StartChar: emdash
Encoding: 8212 8212 212
Width: 1143
Flags: MW
HStem: 252 34<72 1072 72 1072>
VStem: 72 1000<252 286 252 286>
LayerCount: 2
Fore
SplineSet
72 286 m 1
 1072 286 l 1
 1072 252 l 1
 72 252 l 1
 72 286 l 1
EndSplineSet
Substitution2: "'case' Case-Sensitive Forms in Lateinisch lookup 4 subtable" emdash.cap
EndChar

StartChar: six
Encoding: 54 54 213
Width: 560
Flags: MW
HStem: -9 34<217 344.5 217 357.5> 372 34<246 345> 635 34<241 348>
VStem: 60 38<357.5 358 357.5 452.5> 470 38<148.5 264>
LayerCount: 2
Fore
SplineSet
476 659 m 1
 472 626 l 1
 472 626 390 635 306 635 c 0
 176 635 99 541 98 358 c 0
 98 357 202 406 290 406 c 0
 433 406 508 340 508 208 c 0
 508 73 431 -9 284 -9 c 0
 128 -9 60 121 60 337 c 0
 60 568 157 669 306 669 c 0
 390 669 476 659 476 659 c 1
289 372 m 0
 197 372 97 323 97 323 c 1
 100 151 150 25 284 25 c 0
 405 25 470 89 470 208 c 0
 470 320 401 372 289 372 c 0
EndSplineSet
Substitution2: "'frac' Diagonal Fractions in Lateinisch lookup 1 subtable" sixsuperior
EndChar

StartChar: nine
Encoding: 57 57 214
Width: 560
Flags: MW
HStem: -9 34<205 317 205 326.5> 256 34<204 300.5 204 303> 635 34<214 338.5>
VStem: 50 38<394 507 394 517.5> 461 38<300 300>
LayerCount: 2
Fore
SplineSet
77 2 m 1
 81 35 l 1
 81 35 163 25 247 25 c 0
 387 25 459 107 461 300 c 1
 461 300 347 256 259 256 c 0
 123 256 50 315 50 451 c 0
 50 584 137 669 270 669 c 0
 431 669 499 534 499 324 c 0
 499 72 406 -9 247 -9 c 0
 163 -9 77 2 77 2 c 1
261 290 m 0
 340 290 462 335 462 335 c 1
 458 513 407 635 270 635 c 0
 158 635 88 563 88 451 c 0
 88 337 147 290 261 290 c 0
EndSplineSet
Substitution2: "'frac' Diagonal Fractions in Lateinisch lookup 1 subtable" ninesuperior
EndChar

StartChar: yen
Encoding: 165 165 215
Width: 560
Flags: MW
HStem: 0 21G<263 299 263 263> 182 34<58 263 58 263 299 503> 331 34<57 228 57 228 57 250 334 502>
VStem: 263 36<0 182 0 182 216 311>
LayerCount: 2
Fore
SplineSet
57 331 m 1
 57 365 l 1
 228 365 l 1
 35 660 l 1
 76 660 l 1
 281 351 l 1
 483 660 l 1
 525 660 l 1
 334 365 l 1
 502 365 l 1
 502 331 l 1
 312 331 l 1
 299 311 l 1
 299 216 l 1
 503 216 l 1
 503 182 l 1
 299 182 l 1
 299 0 l 1
 263 0 l 1
 263 182 l 1
 58 182 l 1
 58 216 l 1
 263 216 l 1
 263 311 l 1
 250 331 l 1
 57 331 l 1
EndSplineSet
EndChar

StartChar: less
Encoding: 60 60 216
Width: 560
Flags: MW
HStem: 15 470<481 481>
VStem: 57 33<251 251 251 269 251 269>
LayerCount: 2
Fore
SplineSet
481 446 m 1
 90 251 l 1
 481 56 l 1
 481 15 l 1
 57 233 l 1
 57 269 l 1
 481 485 l 1
 481 446 l 1
EndSplineSet
EndChar

StartChar: greater
Encoding: 62 62 217
Width: 560
Flags: MW
HStem: 15 470<78 78>
VStem: 469 33<251 251>
LayerCount: 2
Fore
SplineSet
469 251 m 1
 78 446 l 1
 78 485 l 1
 502 269 l 1
 502 233 l 1
 78 15 l 1
 78 56 l 1
 469 251 l 1
EndSplineSet
EndChar

StartChar: bracketleft
Encoding: 91 91 218
Width: 311
Flags: MW
HStem: -123 32<121 268 121 268> 717 32<121 268 121 121>
VStem: 86 35<-91 717 -91 749 -91 749>
LayerCount: 2
Fore
SplineSet
268 749 m 1
 268 717 l 1
 121 717 l 1
 121 -91 l 1
 268 -91 l 1
 268 -123 l 1
 86 -123 l 1
 86 749 l 1
 268 749 l 1
EndSplineSet
Substitution2: "'case' Case-Sensitive Forms in Lateinisch lookup 4 subtable" bracketleft.cap
EndChar

StartChar: backslash
Encoding: 92 92 219
Width: 395
Flags: MW
HStem: 0 21G<330 330>
VStem: 29 336
LayerCount: 2
Fore
SplineSet
365 14 m 1
 330 0 l 1
 29 687 l 1
 64 701 l 1
 365 14 l 1
EndSplineSet
EndChar

StartChar: bracketright
Encoding: 93 93 220
Width: 311
Flags: MW
HStem: -123 32<43 190 43 225 43 190> 717 32<43 225 43 190>
VStem: 190 35<-91 717 717 717>
LayerCount: 2
Fore
SplineSet
43 717 m 1
 43 749 l 1
 225 749 l 1
 225 -123 l 1
 43 -123 l 1
 43 -91 l 1
 190 -91 l 1
 190 717 l 1
 43 717 l 1
EndSplineSet
Substitution2: "'case' Case-Sensitive Forms in Lateinisch lookup 4 subtable" bracketright.cap
EndChar

StartChar: bar
Encoding: 124 124 221
Width: 205
Flags: MW
HStem: -230 21G<85 85 85 120> 710 20G<85 120 120 120>
VStem: 85 35<-230 730 -230 730>
LayerCount: 2
Fore
SplineSet
85 -230 m 1
 85 730 l 1
 120 730 l 1
 120 -230 l 1
 85 -230 l 1
EndSplineSet
EndChar

StartChar: notequal
Encoding: 8800 8800 222
Width: 560
Flags: MW
HStem: -9 21G<196 196> 149 34<68 227 68 242 279 492 68 264> 318 34<68 316 68 301 68 338 353 492> 489 20G<384 384>
VStem: 68 424<149 183 149 183 318 352 149 352>
LayerCount: 2
Fore
SplineSet
68 318 m 1
 68 352 l 1
 316 352 l 1
 384 509 l 1
 416 496 l 1
 353 352 l 1
 492 352 l 1
 492 318 l 1
 338 318 l 1
 279 183 l 1
 492 183 l 1
 492 149 l 1
 264 149 l 1
 196 -9 l 1
 164 4 l 1
 227 149 l 1
 68 149 l 1
 68 183 l 1
 242 183 l 1
 301 318 l 1
 68 318 l 1
EndSplineSet
EndChar

StartChar: mu
Encoding: 181 181 223
Width: 560
Flags: MW
HStem: -230 21G<98 133 98 98> -9 32<230 305> 0 21G<426 461 426 426> 480 20G<98 133 133 133 426 461 461 461>
VStem: 98 35<-230 36 157 242 242 500> 426 35<0 40 40 40 73 500 0 500>
LayerCount: 2
Fore
SplineSet
426 500 m 1xdc
 461 500 l 1
 461 0 l 1
 426 0 l 1xbc
 426 40 l 1
 426 40 348 -9 262 -9 c 0
 198 -9 157 3 133 36 c 1
 133 -230 l 1
 98 -230 l 1
 98 500 l 1
 133 500 l 1
 133 242 l 2
 133 72 151 23 262 23 c 0
 351 23 426 73 426 73 c 1
 426 500 l 1xdc
EndSplineSet
EndChar

StartChar: ae
Encoding: 230 230 224
Width: 818
Flags: MW
HStem: -9 32<148 222.5 148 231.5 527.5 598> 236 32<411 729> 475 34<228 301>
VStem: 48 37<100 173 100 193> 374 37<227 236 167 268> 729 37<268 269 236 344.5>
LayerCount: 2
Fore
SplineSet
563 23 m 0
 633 23 745 32 745 32 c 1
 747 0 l 1
 747 0 635 -9 562 -9 c 0
 493 -9 447 13 419 49 c 1
 381 33 l 1
 381 33 288 -9 175 -9 c 0
 93 -9 48 39 48 137 c 0
 48 249 100 269 233 286 c 2
 376 301 l 1
 376 353 l 2
 376 441 337 475 265 475 c 0
 191 475 77 466 77 466 c 1
 75 499 l 1
 75 499 185 509 265 509 c 0
 343 509 388 477 404 413 c 1
 440 484 502 509 576 509 c 0
 699 509 766 442 766 269 c 2
 766 236 l 1
 411 236 l 1
 411 98 447 23 563 23 c 0
176 23 m 0
 269 23 387 67 404 74 c 1
 380 121 374 186 374 268 c 1
 190 250 l 2
 116 243 85 209 85 137 c 0
 85 63 120 23 176 23 c 0
411 268 m 1
 729 268 l 1
 729 421 680 477 576 477 c 0
 476 477 411 419 411 268 c 1
EndSplineSet
EndChar

StartChar: florin
Encoding: 402 402 225
Width: 560
Flags: MW
HStem: -239 33<111 160.5 111 172.5> -234 28 352 32<150 219 150 219 254 416> 640 33<317.5 368.5> 667 21G<439 439>
VStem: 219 35<-60 352 384 458 458 494>
LayerCount: 2
Fore
SplineSet
254 -60 m 2xb4
 254 -194 218 -239 127 -239 c 0xb4
 92 -239 35 -234 35 -234 c 1x74
 37 -201 l 1
 37 -201 95 -206 127 -206 c 0
 194 -206 219 -170 219 -60 c 2
 219 352 l 1
 150 352 l 1
 150 384 l 1
 219 384 l 1
 219 458 l 2
 219 548 224 673 346 673 c 0xb4
 391 673 439 667 439 667 c 1xac
 437 635 l 1
 437 635 391 640 346 640 c 0
 289 640 254 594 254 494 c 2
 254 384 l 1
 416 384 l 1
 416 352 l 1
 254 352 l 1
 254 -60 l 2xb4
EndSplineSet
EndChar

StartChar: oe
Encoding: 339 339 226
Width: 873
Flags: MW
HStem: -9 32<191.5 318 570 653> 236 32<466 784 466 821 466 784> 477 32<201 313 191 320.5 590.5 683>
VStem: 60 37<175 345 175 353.5> 429 37<179.5 236 268 339> 784 37<268 269 236 344.5>
LayerCount: 2
Fore
SplineSet
618 23 m 0
 688 23 800 32 800 32 c 1
 802 0 l 1
 802 0 690 -9 617 -9 c 0
 523 -9 473 30 448 98 c 1
 424 24 371 -9 265 -9 c 0
 99 -9 60 60 60 261 c 0
 60 446 117 509 265 509 c 0
 361 509 422 474 449 389 c 1
 482 478 550 509 631 509 c 0
 754 509 821 442 821 269 c 2
 821 236 l 1
 466 236 l 1
 466 98 502 23 618 23 c 0
265 23 m 0
 412 23 429 100 429 259 c 0
 429 419 376 477 265 477 c 0
 137 477 97 429 97 261 c 0
 97 89 118 23 265 23 c 0
466 268 m 1
 784 268 l 1
 784 421 735 477 631 477 c 0
 531 477 466 419 466 268 c 1
EndSplineSet
EndChar

StartChar: daggerdbl
Encoding: 8225 8225 227
Width: 527
Flags: MW
HStem: 121 32<63 246 63 246 281 464> 466 34<63 246 63 246 281 464>
VStem: 246 35<-79 121 -79 121 153 466 500 700>
LayerCount: 2
Fore
SplineSet
246 -79 m 1
 246 121 l 1
 63 121 l 1
 63 153 l 1
 246 153 l 1
 246 466 l 1
 63 466 l 1
 63 500 l 1
 246 500 l 1
 246 700 l 1
 281 700 l 1
 281 500 l 1
 464 500 l 1
 464 466 l 1
 281 466 l 1
 281 153 l 1
 464 153 l 1
 464 121 l 1
 281 121 l 1
 281 -79 l 1
 246 -79 l 1
EndSplineSet
EndChar

StartChar: quotedbl
Encoding: 34 34 228
Width: 348
Flags: MW
HStem: 490 210<77 110 77 77 238 271 238 238>
VStem: 75.5 36 236.5 36
LayerCount: 2
Fore
SplineSet
271 490 m 1
 238 490 l 1
 235 700 l 1
 274 700 l 1
 271 490 l 1
110 490 m 1
 77 490 l 1
 74 700 l 1
 113 700 l 1
 110 490 l 1
EndSplineSet
EndChar

StartChar: quotesingle
Encoding: 39 39 229
Width: 187
Flags: MW
HStem: 490 210<76 76 76 109>
VStem: 75 36.5
LayerCount: 2
Fore
SplineSet
76 490 m 1
 74 700 l 1
 114 700 l 1
 109 490 l 1
 76 490 l 1
EndSplineSet
EndChar

StartChar: parenleft
Encoding: 40 40 230
Width: 234
Flags: MW
HStem: -125 875<156 191 156 191>
VStem: 59 37<208 395.5 208 401>
LayerCount: 2
Fore
SplineSet
156 750 m 1
 191 750 l 1
 191 750 96 490 96 301 c 0
 96 115 191 -125 191 -125 c 1
 156 -125 l 1
 156 -125 59 101 59 301 c 0
 59 501 156 750 156 750 c 1
EndSplineSet
Substitution2: "'case' Case-Sensitive Forms in Lateinisch lookup 4 subtable" parenleft.cap
EndChar

StartChar: parenright
Encoding: 41 41 231
Width: 234
Flags: MW
HStem: -125 875<44 79 44 79>
VStem: 139 37<208 395.5>
LayerCount: 2
Fore
SplineSet
44 750 m 1
 79 750 l 1
 79 750 176 501 176 301 c 0
 176 101 79 -125 79 -125 c 1
 44 -125 l 1
 44 -125 139 115 139 301 c 0
 139 490 44 750 44 750 c 1
EndSplineSet
Substitution2: "'case' Case-Sensitive Forms in Lateinisch lookup 4 subtable" parenright.cap
EndChar

StartChar: comma
Encoding: 44 44 232
Width: 197
Flags: MW
HStem: -123 210<44 126 44 126>
VStem: 44 82
LayerCount: 2
Fore
SplineSet
44 -123 m 1
 86 87 l 1
 126 87 l 1
 75 -123 l 1
 44 -123 l 1
EndSplineSet
EndChar

StartChar: hyphen
Encoding: 45 45 233
Width: 458
Flags: MW
HStem: 264 34<76 383 76 383>
VStem: 76 307<264 298 264 298>
LayerCount: 2
Fore
SplineSet
76 264 m 1
 76 298 l 1
 383 298 l 1
 383 264 l 1
 76 264 l 1
EndSplineSet
EndChar

StartChar: period
Encoding: 46 46 234
Width: 190
Flags: MW
HStem: 0 80<75 115 75 115>
VStem: 75 40<0 80 0 80>
LayerCount: 2
Fore
SplineSet
75 0 m 1
 75 80 l 1
 115 80 l 1
 115 0 l 1
 75 0 l 1
EndSplineSet
EndChar

StartChar: colon
Encoding: 58 58 235
Width: 191
Flags: MW
HStem: 0 80<75 115 75 115> 344 80<75 115 75 115>
VStem: 75 40<0 80 0 80 344 424>
LayerCount: 2
Fore
SplineSet
75 344 m 1
 75 424 l 1
 115 424 l 1
 115 344 l 1
 75 344 l 1
75 0 m 1
 75 80 l 1
 115 80 l 1
 115 0 l 1
 75 0 l 1
EndSplineSet
EndChar

StartChar: semicolon
Encoding: 59 59 236
Width: 228
Flags: MW
HStem: 344 80<100 140 100 140>
VStem: 100 40<344 424 344 424>
LayerCount: 2
Fore
SplineSet
103 87 m 1
 62 -123 l 1
 93 -123 l 1
 145 87 l 1
 103 87 l 1
100 344 m 1
 100 424 l 1
 140 424 l 1
 140 344 l 1
 100 344 l 1
EndSplineSet
EndChar

StartChar: equal
Encoding: 61 61 237
Width: 560
Flags: MW
HStem: 149 34<68 492 68 492> 318 34<68 492 68 492>
VStem: 68 424<149 183 149 183 318 352 149 352>
LayerCount: 2
Fore
SplineSet
68 318 m 1
 68 352 l 1
 492 352 l 1
 492 318 l 1
 68 318 l 1
68 149 m 1
 68 183 l 1
 492 183 l 1
 492 149 l 1
 68 149 l 1
EndSplineSet
EndChar

StartChar: question
Encoding: 63 63 238
Width: 453
Flags: MW
HStem: 1 80<171 211 171 211> 676 33<183 260>
VStem: 171 40<1 81 1 81> 173 35<221.5 228 190 263.5> 372 35<516.5 599>
LayerCount: 2
Fore
SplineSet
407 551 m 0xe8
 407 469 390 443 306 369 c 0
 255 324 208 284 208 228 c 2
 208 190 l 1
 174 190 l 1
 174 190 173 212 173 231 c 0xd8
 173 296 228 344 280 391 c 0
 351 455 372 482 372 551 c 0
 372 647 313 676 207 676 c 0
 159 676 46 648 46 648 c 1
 41 682 l 1
 41 682 153 709 207 709 c 0
 334 709 407 668 407 551 c 0xe8
171 1 m 1
 171 81 l 1
 211 81 l 1
 211 1 l 1
 171 1 l 1
EndSplineSet
EndChar

StartChar: underscore
Encoding: 95 95 239
Width: 640
Flags: MW
HStem: -138 34<106 534 106 534>
VStem: 106 428<-138 -104 -138 -104>
LayerCount: 2
Fore
SplineSet
106 -104 m 1
 534 -104 l 1
 534 -138 l 1
 106 -138 l 1
 106 -104 l 1
EndSplineSet
EndChar

StartChar: braceleft
Encoding: 123 123 240
Width: 346
Flags: MW
HStem: -124 32<302 304> 719 32<302 304>
VStem: 29 39 126 35<9 72.5 9 72.5 557.5 619>
LayerCount: 2
Fore
SplineSet
168 169 m 0
 166 130 161 92 161 53 c 0
 161 -35 190 -87 304 -92 c 1
 302 -124 l 1
 174 -119 126 -66 126 53 c 0
 126 92 133 151 133 176 c 0
 133 240 105 272 29 294 c 1
 29 326 l 1
 106 345 133 381 133 446 c 0
 133 474 126 537 126 574 c 0
 126 693 174 746 302 751 c 1
 304 719 l 1
 190 714 161 664 161 574 c 0
 161 541 168 484 168 455 c 0
 168 367 141 335 68 311 c 1
 141 287 168 253 168 169 c 0
EndSplineSet
Substitution2: "'case' Case-Sensitive Forms in Lateinisch lookup 4 subtable" braceleft.cap
EndChar

StartChar: braceright
Encoding: 125 125 241
Width: 346
Flags: MW
HStem: -124 32<42 44> 719 32<42 44>
VStem: 185 35<9 72.5 557.5 619> 278 39
LayerCount: 2
Fore
SplineSet
178 169 m 0
 178 253 205 287 278 311 c 1
 205 335 178 367 178 455 c 0
 178 484 185 541 185 574 c 0
 185 664 156 714 42 719 c 1
 44 751 l 1
 172 746 220 693 220 574 c 0
 220 537 213 474 213 446 c 0
 213 381 240 345 317 326 c 1
 317 294 l 1
 241 272 213 240 213 176 c 0
 213 151 220 92 220 53 c 0
 220 -66 172 -119 44 -124 c 1
 42 -92 l 1
 156 -87 185 -35 185 53 c 0
 185 92 180 130 178 169 c 0
EndSplineSet
Substitution2: "'case' Case-Sensitive Forms in Lateinisch lookup 4 subtable" braceright.cap
EndChar

StartChar: cent
Encoding: 162 162 242
Width: 560
Flags: MW
HStem: 50 27 425 35<318 323>
VStem: 109 40<181 311.5 181 322> 283 35<461 591 460 591>
LayerCount: 2
Fore
SplineSet
284 -85 m 1
 284 41 l 1
 161 45 109 84 109 247 c 0
 109 397 161 457 283 461 c 1
 283 591 l 1
 318 591 l 1
 318 460 l 1
 363 460 434 448 434 448 c 1
 432 415 l 1
 432 415 352 425 294 425 c 0
 186 425 149 376 149 247 c 0
 149 115 181 77 304 77 c 0
 362 77 434 85 434 85 c 1
 436 50 l 1
 436 50 362 42 319 41 c 1
 319 -85 l 1
 284 -85 l 1
EndSplineSet
EndChar

StartChar: quoteleft
Encoding: 8216 8216 243
Width: 193
Flags: MW
HStem: 527 200<62 140 62 140>
VStem: 62 78
LayerCount: 2
Fore
SplineSet
140 727 m 1
 100 527 l 1
 62 527 l 1
 111 727 l 1
 140 727 l 1
EndSplineSet
EndChar

StartChar: quoteright
Encoding: 8217 8217 244
Width: 191
Flags: MW
HStem: 527 200<63 141 63 141>
VStem: 63 78
LayerCount: 2
Fore
SplineSet
63 527 m 1
 103 727 l 1
 141 727 l 1
 92 527 l 1
 63 527 l 1
EndSplineSet
EndChar

StartChar: divide
Encoding: 247 247 245
Width: 560
Flags: MW
HStem: 39 80<261 299 261 299> 234 34<58 502 58 502> 383 80<261 299 261 299>
VStem: 261 38<39 119 39 119 383 463>
LayerCount: 2
Fore
SplineSet
58 234 m 1
 58 268 l 1
 502 268 l 1
 502 234 l 1
 58 234 l 1
261 383 m 1
 261 463 l 1
 299 463 l 1
 299 383 l 1
 261 383 l 1
261 39 m 1
 261 119 l 1
 299 119 l 1
 299 39 l 1
 261 39 l 1
EndSplineSet
EndChar

StartChar: Euro
Encoding: 8364 8364 246
Width: 560
Flags: MW
HStem: -8 32<257 360 257 362> 245 34<32 95 32 97 32 95 133 454 133 133> 393 34<32 98 32 96 134 454> 637 32<258 358.5>
VStem: 95 37<279 328> 98 36<427 427>
LayerCount: 2
Fore
SplineSet
32 393 m 1xf8
 32 427 l 1xf8
 98 427 l 1xf4
 111 575 163 669 330 669 c 0
 396 669 462 660 505 651 c 1
 502 618 l 1
 462 627 387 637 330 637 c 0
 186 637 144 557 134 427 c 1
 454 427 l 1
 454 393 l 1
 132 393 l 1
 131 372 131 350 131 328 c 0
 131 311 131 294 132 279 c 1
 454 279 l 1
 454 245 l 1
 133 245 l 1
 143 106 184 24 330 24 c 0
 390 24 453 33 502 42 c 1
 505 10 l 1
 458 1 394 -8 330 -8 c 0
 163 -8 109 85 97 245 c 1
 32 245 l 1
 32 279 l 1
 95 279 l 1
 95 328 l 2
 95 350 95 372 96 393 c 1
 32 393 l 1xf8
EndSplineSet
EndChar

StartChar: ampersand
Encoding: 38 38 247
Width: 680
Flags: MW
HStem: -9 33<206.5 324 206.5 328> 662 32<273.5 355>
VStem: 47 35<149.5 261.5 149.5 270> 159 35<529.5 587 529.5 592> 430 35<506.5 584.5> 522 35<367 367>
LayerCount: 2
Fore
SplineSet
312 694 m 0
 421 694 465 634 465 549 c 0
 465 450 415 405 300 367 c 1
 487 182 l 1
 501 222 518 310 522 367 c 1
 557 367 l 1
 551 298 532 202 514 156 c 1
 654 19 l 1
 630 -7 l 1
 499 123 l 1
 452 29 379 -9 277 -9 c 0
 101 -9 47 74 47 208 c 0
 47 332 99 377 210 409 c 1
 163 460 159 497 159 550 c 0
 159 634 209 694 312 694 c 0
279 24 m 0
 369 24 433 61 473 148 c 1
 236 383 l 1
 123 353 82 314 82 209 c 0
 82 90 134 24 279 24 c 0
194 550 m 0
 194 509 200 466 239 427 c 2
 275 391 l 1
 387 429 430 463 430 550 c 0
 430 619 398 662 312 662 c 0
 235 662 194 624 194 550 c 0
EndSplineSet
EndChar

StartChar: asterisk
Encoding: 42 42 248
Width: 417
Flags: MW
HStem: 519 34<227 362 227 362 225 362>
VStem: 64 298<458 519>
LayerCount: 2
Fore
SplineSet
362 519 m 1
 225 519 l 1
 267 390 l 1
 235 380 l 1
 193 510 l 1
 83 431 l 1
 64 458 l 1
 174 538 l 1
 65 618 l 1
 85 645 l 1
 195 564 l 1
 237 693 l 1
 269 683 l 1
 227 553 l 1
 362 553 l 1
 362 519 l 1
EndSplineSet
EndChar

StartChar: sterling
Encoding: 163 163 249
Width: 560
Flags: MW
HStem: 0 34<83 175 210 384 83 175> 374 32<106 175 106 175 210 392> 637 32<271 328.5>
VStem: 175 35<34 374 34 374 406 454>
LayerCount: 2
Fore
SplineSet
432 657 m 1
 432 625 l 1
 432 625 345 637 312 637 c 0
 230 637 210 603 210 454 c 2
 210 406 l 1
 392 406 l 1
 392 374 l 1
 210 374 l 1
 210 34 l 1
 384 34 l 1
 466 50 l 1
 473 18 l 1
 391 0 l 1
 83 0 l 1
 83 34 l 1
 175 34 l 1
 175 374 l 1
 106 374 l 1
 106 406 l 1
 175 406 l 1
 175 458 l 2
 175 631 211 669 312 669 c 0
 350 669 432 657 432 657 c 1
EndSplineSet
EndChar

StartChar: paragraph
Encoding: 182 182 250
Width: 589
Flags: MW
HStem: 0 21G<233 269 233 233 421 457 421 421> 667 33<269 421 269 269 457 457 457 554>
VStem: 233 36<0 350 350 350> 421 36<0 667 0 667>
LayerCount: 2
Fore
SplineSet
421 0 m 1
 421 667 l 1
 269 667 l 1
 269 0 l 1
 233 0 l 1
 233 350 l 1
 226 350 l 2
 123 350 40 419 40 524 c 0
 40 629 123 700 226 700 c 2
 554 700 l 1
 554 667 l 1
 457 667 l 1
 457 0 l 1
 421 0 l 1
EndSplineSet
EndChar

StartChar: dagger
Encoding: 8224 8224 251
Width: 477
Flags: MW
HStem: 466 34<38 221 38 221 256 439>
VStem: 221.5 34
LayerCount: 2
Fore
SplineSet
38 466 m 1
 38 500 l 1
 221 500 l 1
 221 700 l 1
 256 700 l 1
 256 500 l 1
 439 500 l 1
 439 466 l 1
 256 466 l 1
 255 -79 l 1
 222 -79 l 1
 221 466 l 1
 38 466 l 1
EndSplineSet
EndChar

StartChar: percent
Encoding: 37 37 252
Width: 560
Flags: MW
HStem: -9 32<395.5 445 395.5 450> -1 21G<175 175> 231 32<395.5 445> 397 32<116.5 166 116.5 171> 637 32<116.5 166> 660 21G<392 392>
VStem: 38 35<502 569.5 502 583.5> 209 35<501 569> 317 35<96 163.5 96 177.5> 488 35<95 163>
LayerCount: 2
Fore
SplineSet
175 -1 m 1x77c0
 360 669 l 1
 392 660 l 1
 206 -9 l 1xb7c0
 175 -1 l 1x77c0
141 669 m 0xbbc0
 202 669 244 631 244 535 c 0
 244 439 201 397 141 397 c 0
 80 397 38 439 38 536 c 0
 38 631 79 669 141 669 c 0xbbc0
73 536 m 0
 73 468 92 429 141 429 c 0
 191 429 209 467 209 535 c 0
 209 603 191 637 141 637 c 0
 92 637 73 603 73 536 c 0
420 263 m 0
 481 263 523 225 523 129 c 0
 523 33 480 -9 420 -9 c 0
 359 -9 317 33 317 130 c 0
 317 225 358 263 420 263 c 0
352 130 m 0
 352 62 371 23 420 23 c 0
 470 23 488 61 488 129 c 0
 488 197 470 231 420 231 c 0
 371 231 352 197 352 130 c 0
EndSplineSet
EndChar

StartChar: plus
Encoding: 43 43 253
Width: 560
Flags: MW
HStem: 234 34<59 261 59 261 297 501>
VStem: 261 36<20 234 20 234 268 480>
LayerCount: 2
Fore
SplineSet
59 234 m 1
 59 268 l 1
 261 268 l 1
 261 480 l 1
 297 480 l 1
 297 268 l 1
 501 268 l 1
 501 234 l 1
 297 234 l 1
 297 20 l 1
 261 20 l 1
 261 234 l 1
 59 234 l 1
EndSplineSet
EndChar

StartChar: asciicircum
Encoding: 94 94 254
Width: 560
Flags: MW
HStem: 624 36<280 280>
VStem: 82 405<323 323>
LayerCount: 2
Fore
SplineSet
447 323 m 1
 280 624 l 1
 122 323 l 1
 82 323 l 1
 262 660 l 1
 298 660 l 1
 487 323 l 1
 447 323 l 1
EndSplineSet
EndChar

StartChar: quotedblright
Encoding: 8221 8221 255
Width: 335
Flags: MW
HStem: 527 200<63 141 63 141 103 236 103 207>
VStem: 63 222<527 727>
LayerCount: 2
Fore
SplineSet
63 527 m 1
 103 727 l 1
 141 727 l 1
 92 527 l 1
 63 527 l 1
207 527 m 1
 247 727 l 1
 285 727 l 1
 236 527 l 1
 207 527 l 1
EndSplineSet
EndChar

StartChar: zerosuperior
Encoding: 8304 8304 256
Width: 280
Flags: MW
HStem: 469 33<116 164 116 173> 766 33<113.5 165.5>
VStem: 28 35<585.5 681 585.5 697.5> 216 35<586 680.5>
LayerCount: 2
Fore
SplineSet
139 799 m 0
 209 799 251 758 251 635 c 0
 251 510 206 469 140 469 c 0
 74 469 28 510 28 636 c 0
 28 759 72 799 139 799 c 0
139 766 m 0
 88 766 63 727 63 635 c 0
 63 536 92 502 140 502 c 0
 188 502 216 536 216 636 c 0
 216 725 192 766 139 766 c 0
EndSplineSet
Substitution2: "Single Substitution lookup 5 subtable" zeroinferior
EndChar

StartChar: onesuperior
Encoding: 185 185 257
Width: 280
Flags: MW
HStem: 751 39<145 180>
VStem: 145 35<478 751 751 751 478 790>
LayerCount: 2
Fore
SplineSet
46 723 m 1
 145 790 l 1
 180 790 l 1
 180 478 l 1
 145 478 l 1
 145 751 l 1
 63 695 l 1
 46 723 l 1
EndSplineSet
Substitution2: "Single Substitution lookup 5 subtable" oneinferior
EndChar

StartChar: twosuperior
Encoding: 178 178 258
Width: 280
Flags: MW
HStem: 478 33<79 230 79 230> 767 32<114 147>
VStem: 188 35<695 733>
LayerCount: 2
Fore
SplineSet
230 478 m 1
 36 478 l 1
 36 509 l 1
 134 616 l 2
 163 647 188 675 188 715 c 0
 188 751 163 767 131 767 c 0
 97 767 41 757 41 757 c 1
 39 786 l 1
 39 786 90 799 132 799 c 0
 192 799 223 771 223 714 c 0
 223 667 203 639 159 594 c 2
 79 511 l 1
 230 511 l 1
 230 478 l 1
EndSplineSet
Substitution2: "Single Substitution lookup 5 subtable" twoinferior
EndChar

StartChar: threesuperior
Encoding: 179 179 259
Width: 280
Flags: MW
HStem: 469 33<119.5 166 119 175.5> 482 20G<119 166> 623 33<82 147 82 147> 766 33<117 162>
VStem: 198 35<701.5 734> 207 35<544 584>
LayerCount: 2
Fore
SplineSet
41 788 m 1xb4
 41 788 94 799 139 799 c 0
 204 799 233 775 233 719 c 0xb8
 233 662 191 644 187 643 c 1
 222 633 242 619 242 562 c 0
 242 498 207 469 144 469 c 0xb4
 95 469 37 480 37 480 c 1x74
 40 511 l 1
 40 511 94 502 144 502 c 0
 188 502 207 527 207 561 c 0
 207 607 181 623 147 623 c 2xb4
 82 623 l 1
 82 656 l 1
 147 656 l 2
 169 656 198 684 198 719 c 0
 198 749 184 766 140 766 c 0xb8
 94 766 44 757 44 757 c 1
 41 788 l 1xb4
EndSplineSet
Substitution2: "Single Substitution lookup 5 subtable" threeinferior
EndChar

StartChar: foursuperior
Encoding: 8308 8308 260
Width: 280
Flags: MW
HStem: 535 33<71 177 71 177 213 250>
VStem: 177 36<478 535 478 535 568 656>
LayerCount: 2
Fore
SplineSet
177 478 m 1
 177 535 l 1
 31 535 l 1
 31 566 l 1
 120 790 l 1
 158 790 l 1
 71 568 l 1
 177 568 l 1
 177 656 l 1
 213 656 l 1
 213 568 l 1
 250 568 l 1
 250 535 l 1
 213 535 l 1
 213 478 l 1
 177 478 l 1
EndSplineSet
Substitution2: "Single Substitution lookup 5 subtable" fourinferior
EndChar

StartChar: fivesuperior
Encoding: 8309 8309 261
Width: 280
Flags: MW
HStem: 469 33<125.5 168 125.5 179> 482 20G<125.5 168> 640 33<133.5 167> 757 33<91 234 91 91>
VStem: 55.5 32 209 35<552 601>
LayerCount: 2
Fore
SplineSet
60 790 m 1xbc
 234 790 l 1
 234 757 l 1
 91 757 l 1
 84 652 l 1
 84 652 115 673 152 673 c 0
 203 673 244 651 244 576 c 0
 244 504 211 469 147 469 c 0xbc
 102 469 47 481 47 481 c 1x7c
 50 511 l 1
 50 511 104 502 147 502 c 0
 189 502 209 528 209 576 c 0
 209 626 182 640 152 640 c 0
 112 640 82 618 82 618 c 1
 51 620 l 1
 60 790 l 1xbc
EndSplineSet
Substitution2: "Single Substitution lookup 5 subtable" fiveinferior
EndChar

StartChar: sixsuperior
Encoding: 8310 8310 262
Width: 280
Flags: MW
HStem: 469 33<118 169.5 118 177> 648 32<130 169.5> 766 33<126.5 170.5 115 171>
VStem: 37 35<625 625.5 625 694.5> 212 35<558 604>
LayerCount: 2
Fore
SplineSet
232 790 m 1
 230 759 l 1
 230 759 190 766 152 766 c 0
 101 766 74 737 73 660 c 0
 73 659 113 680 147 680 c 0
 216 680 247 643 247 579 c 0
 247 512 210 469 144 469 c 0
 73 469 37 524 37 633 c 0
 37 756 78 799 152 799 c 0
 189 799 232 790 232 790 c 1
146 648 m 0
 109 648 72 626 72 625 c 0
 75 546 92 502 144 502 c 0
 195 502 212 537 212 579 c 0
 212 629 193 648 146 648 c 0
EndSplineSet
Substitution2: "Single Substitution lookup 5 subtable" sixinferior
EndChar

StartChar: sevensuperior
Encoding: 8311 8311 263
Width: 280
Flags: MW
HStem: 756 34<32 224 32 188>
VStem: 188 36<731 756 756 756>
LayerCount: 2
Fore
SplineSet
32 756 m 1
 32 790 l 1
 224 790 l 1
 224 729 l 1
 113 470 l 1
 79 479 l 1
 188 731 l 1
 188 756 l 1
 32 756 l 1
EndSplineSet
Substitution2: "Single Substitution lookup 5 subtable" seveninferior
EndChar

StartChar: eightsuperior
Encoding: 8312 8312 264
Width: 280
Flags: MW
HStem: 469 33<117 164.5 117 173.5> 628 32<122 158 122 158> 766 33<114.5 165.5>
VStem: 29 35<539 580.5 539 584> 34 35<700 733 700 745.5> 211 35<699.5 732.5> 216 35<540.5 581.5>
LayerCount: 2
Fore
SplineSet
140 799 m 0xec
 209 799 246 775 246 717 c 0xf4
 246 674 235 657 192 644 c 1
 232 632 251 611 251 563 c 0
 251 496 207 469 140 469 c 0
 77 469 29 491 29 557 c 0xf2
 29 611 49 628 88 644 c 1
 50 658 34 674 34 717 c 0
 34 774 70 799 140 799 c 0xec
140 502 m 0xf2
 189 502 216 519 216 562 c 0
 216 601 198 618 158 628 c 1
 122 628 l 1
 84 618 64 602 64 559 c 0
 64 519 94 502 140 502 c 0xf2
140 766 m 0xec
 89 766 69 749 69 717 c 0
 69 683 84 672 122 660 c 1
 158 660 l 1
 198 671 211 683 211 716 c 0
 211 749 191 766 140 766 c 0xec
EndSplineSet
Substitution2: "Single Substitution lookup 5 subtable" eightinferior
EndChar

StartChar: ninesuperior
Encoding: 8313 8313 265
Width: 280
Flags: MW
HStem: 469 33<109.5 156.5 109.5 167.5> 590 32<113 150.5 113 151> 766 33<116.5 164.5>
VStem: 33 35<674.5 718.5 674.5 728> 212 35<607 607 640 640>
LayerCount: 2
Fore
SplineSet
46 479 m 1
 49 509 l 1
 49 509 91 502 128 502 c 0
 185 502 211 538 212 607 c 1
 212 607 169 590 133 590 c 0
 71 590 33 630 33 694 c 0
 33 762 77 799 137 799 c 0
 210 799 247 746 247 631 c 0
 247 517 207 469 128 469 c 0
 91 469 46 479 46 479 c 1
134 622 m 0
 167 622 212 640 212 640 c 1
 210 724 191 766 138 766 c 0
 95 766 68 742 68 695 c 0
 68 654 92 622 134 622 c 0
EndSplineSet
Substitution2: "Single Substitution lookup 5 subtable" nineinferior
EndChar

StartChar: questiondown
Encoding: 191 191 266
Width: 447
Flags: MW
HStem: -208 33<190 267 190 270> 420 80<239 279 239 279>
VStem: 43 35<-98 -15.5 -98 -9> 239 40<420 500 420 500> 242 35<273 279.5 237.5 311 237.5 311>
LayerCount: 2
Fore
SplineSet
43 -50 m 0xf0
 43 32 60 58 144 132 c 0
 195 177 242 217 242 273 c 2
 242 311 l 1
 276 311 l 1
 276 311 277 289 277 270 c 0xe8
 277 205 222 157 170 110 c 0
 99 46 78 19 78 -50 c 0
 78 -146 137 -175 243 -175 c 0
 291 -175 404 -147 404 -147 c 1
 409 -181 l 1
 409 -181 297 -208 243 -208 c 0
 116 -208 43 -167 43 -50 c 0xf0
279 500 m 1
 279 420 l 1
 239 420 l 1
 239 500 l 1
 279 500 l 1
EndSplineSet
Substitution2: "'case' Case-Sensitive Forms in Lateinisch lookup 4 subtable" questiondown.cap
EndChar

StartChar: questiondown.cap
Encoding: 65550 -1 267
Width: 447
Flags: MW
HStem: -8 33<190 267 190 270> 620 80<239 279 239 279>
VStem: 43 35<102 184.5 102 191> 239 40<620 700 620 700> 242 35<473 479.5 437.5 511 437.5 511>
LayerCount: 2
Fore
SplineSet
43 150 m 0xf0
 43 232 60 258 144 332 c 0
 195 377 242 417 242 473 c 2
 242 511 l 1
 276 511 l 1
 276 511 277 489 277 470 c 0xe8
 277 405 222 357 170 310 c 0
 99 246 78 219 78 150 c 0
 78 54 137 25 243 25 c 0
 291 25 404 53 404 53 c 1
 409 19 l 1
 409 19 297 -8 243 -8 c 0
 116 -8 43 33 43 150 c 0xf0
279 700 m 1
 279 620 l 1
 239 620 l 1
 239 700 l 1
 279 700 l 1
EndSplineSet
EndChar

StartChar: ellipsis
Encoding: 8230 8230 268
Width: 698
Flags: MW
HStem: 0 80<75 115 75 115 329 369 583 623>
VStem: 75 40<0 80 0 80> 329 40<0 80 0 80> 583 40<0 80 0 80>
LayerCount: 2
Fore
SplineSet
75 0 m 1
 75 80 l 1
 115 80 l 1
 115 0 l 1
 75 0 l 1
329 0 m 1
 329 80 l 1
 369 80 l 1
 369 0 l 1
 329 0 l 1
583 0 m 1
 583 80 l 1
 623 80 l 1
 623 0 l 1
 583 0 l 1
EndSplineSet
EndChar

StartChar: endash.cap
Encoding: 65551 -1 269
Width: 643
Flags: MW
HStem: 282 34<72 572 72 572>
VStem: 72 500<282 316 282 316>
LayerCount: 2
Fore
SplineSet
72 316 m 1
 572 316 l 1
 572 282 l 1
 72 282 l 1
 72 316 l 1
EndSplineSet
Position2: "'cpsp' Capital Spacing in Lateinisch lookup 0 subtable" dx=5 dy=0 dh=10 dv=0
EndChar

StartChar: emdash.cap
Encoding: 65552 -1 270
Width: 1143
Flags: MW
HStem: 282 34<72 1072 72 1072>
VStem: 72 1000<282 316 282 316>
LayerCount: 2
Fore
SplineSet
72 316 m 1
 1072 316 l 1
 1072 282 l 1
 72 282 l 1
 72 316 l 1
EndSplineSet
Position2: "'cpsp' Capital Spacing in Lateinisch lookup 0 subtable" dx=5 dy=0 dh=10 dv=0
EndChar

StartChar: periodcentered
Encoding: 183 183 271
Width: 191
Flags: MW
HStem: 270 80<76 116 76 116>
VStem: 76 40<270 350 270 350>
LayerCount: 2
Fore
SplineSet
76 270 m 1
 76 350 l 1
 116 350 l 1
 116 270 l 1
 76 270 l 1
EndSplineSet
Substitution2: "'case' Case-Sensitive Forms in Lateinisch lookup 4 subtable" periodcentered.cap
EndChar

StartChar: periodcentered.cap
Encoding: 65553 -1 272
Width: 190
Flags: MW
HStem: 300 80<75 115 75 115>
VStem: 75 40<300 380 300 380>
LayerCount: 2
Fore
SplineSet
75 300 m 1
 75 380 l 1
 115 380 l 1
 115 300 l 1
 75 300 l 1
EndSplineSet
Position2: "'cpsp' Capital Spacing in Lateinisch lookup 0 subtable" dx=5 dy=0 dh=10 dv=0
EndChar

StartChar: currency
Encoding: 164 164 273
Width: 560
Flags: MW
HStem: 82 36<259.5 300> 386 36<259.5 300 259.5 316.5>
VStem: 110 36<231.5 272> 414 36<231.5 272 231.5 288.5>
LayerCount: 2
Fore
SplineSet
457 49 m 1
 387 120 l 1
 358 96 320 82 280 82 c 0
 239 82 202 96 173 120 c 1
 103 49 l 1
 77 75 l 1
 148 145 l 1
 124 174 110 211 110 252 c 0
 110 292 124 330 148 359 c 1
 77 429 l 1
 103 455 l 1
 173 384 l 1
 202 408 239 422 280 422 c 0
 320 422 358 408 387 384 c 1
 457 455 l 1
 483 429 l 1
 412 359 l 1
 436 330 450 292 450 252 c 0
 450 211 436 174 412 145 c 1
 483 75 l 1
 457 49 l 1
280 118 m 0
 353 118 414 179 414 252 c 0
 414 325 353 386 280 386 c 0
 207 386 146 325 146 252 c 0
 146 179 207 118 280 118 c 0
EndSplineSet
EndChar

StartChar: perthousand
Encoding: 8240 8240 274
Width: 828
Flags: MW
HStem: -9 32<401.5 451 401.5 456 659.5 709> -1 21G<181 181> 231 32<401.5 451 659.5 709> 429 208<122.5 172> 660 21G<398 398> 669 21G<116 177.5 366 366>
VStem: 79 136<502 569 501 569.5> 323 35<95.5 163.5 95.5 177.5> 494 35<95 163> 581 35<95.5 163.5 95.5 177.5> 752 35<95 163>
LayerCount: 2
Fore
SplineSet
147 637 m 0xb7e0
 197 637 215 603 215 535 c 0
 215 467 197 429 147 429 c 0
 98 429 79 468 79 536 c 0
 79 603 98 637 147 637 c 0xb7e0
181 -1 m 1x42
 366 669 l 1
 398 660 l 1
 212 -9 l 1x8a
 181 -1 l 1x42
44 536 m 0
 44 439 86 397 147 397 c 0
 207 397 250 439 250 535 c 0
 250 631 208 669 147 669 c 0x05
 85 669 44 631 44 536 c 0
323 130 m 0xa1e0
 323 225 364 263 426 263 c 0
 487 263 529 225 529 129 c 0
 529 33 486 -9 426 -9 c 0
 365 -9 323 33 323 130 c 0xa1e0
358 130 m 0
 358 61 377 23 426 23 c 0
 476 23 494 61 494 129 c 0
 494 197 476 231 426 231 c 0
 377 231 358 197 358 130 c 0
581 130 m 0
 581 225 622 263 684 263 c 0
 745 263 787 225 787 129 c 0
 787 33 744 -9 684 -9 c 0
 623 -9 581 33 581 130 c 0
616 130 m 0
 616 61 635 23 684 23 c 0
 734 23 752 61 752 129 c 0
 752 197 734 231 684 231 c 0
 635 231 616 197 616 130 c 0
EndSplineSet
EndChar

StartChar: lessequal
Encoding: 8804 8804 275
Width: 560
Flags: MW
HStem: 24 34<65 489 65 489>
VStem: 65 46<309 309 309 326 309 326>
LayerCount: 2
Fore
SplineSet
489 446 m 1
 111 309 l 1
 489 161 l 1
 489 122 l 1
 65 290 l 1
 65 326 l 1
 489 485 l 1
 489 446 l 1
65 24 m 1
 65 58 l 1
 489 58 l 1
 489 24 l 1
 65 24 l 1
EndSplineSet
EndChar

StartChar: greaterequal
Encoding: 8805 8805 276
Width: 560
Flags: MW
HStem: 24 34<70 494 70 494>
VStem: 448 46<309 309>
LayerCount: 2
Fore
SplineSet
448 309 m 1
 70 446 l 1
 70 485 l 1
 494 326 l 1
 494 290 l 1
 70 122 l 1
 70 161 l 1
 448 309 l 1
494 58 m 1
 494 24 l 1
 70 24 l 1
 70 58 l 1
 494 58 l 1
EndSplineSet
EndChar

StartChar: logicalnot
Encoding: 172 172 277
Width: 560
Flags: MW
HStem: 298 34<71 457 71 493>
VStem: 457 36<126 298 298 298>
LayerCount: 2
Fore
SplineSet
71 332 m 1
 493 332 l 1
 493 126 l 1
 457 126 l 1
 457 298 l 1
 71 298 l 1
 71 332 l 1
EndSplineSet
EndChar

StartChar: Delta
Encoding: 8710 8710 278
Width: 560
Flags: MW
HStem: 0 34<99 458 99 500> 626 34<266 291 266 266>
VStem: 59 441<0 26 0 26>
LayerCount: 2
Fore
SplineSet
59 26 m 1
 241 660 l 1
 317 660 l 1
 499 26 l 1
 500 0 l 1
 59 0 l 1
 59 26 l 1
291 626 m 1
 266 626 l 1
 99 34 l 1
 458 34 l 1
 291 626 l 1
EndSplineSet
EndChar

StartChar: Omega
Encoding: 8486 8486 279
Width: 560
Flags: MW
HStem: -9 34<41 192 41 230 41 192 367 519> 636 34<204.5 354.5>
VStem: 71 38<306 450 306 467> 451 38<306 450>
LayerCount: 2
Fore
SplineSet
41 25 m 1
 192 25 l 1
 192 25 71 242 71 370 c 0
 71 564 107 670 280 670 c 0
 453 670 489 564 489 370 c 0
 489 242 367 25 367 25 c 1
 519 25 l 1
 519 -9 l 1
 330 -9 l 1
 330 20 l 1
 330 20 451 252 451 360 c 0
 451 540 429 636 280 636 c 0
 129 636 109 540 109 360 c 0
 109 252 230 20 230 20 c 1
 230 -9 l 1
 41 -9 l 1
 41 25 l 1
EndSplineSet
EndChar

StartChar: oslashacute
Encoding: 511 511 280
Width: 526
Flags: MW
HStem: 701 21G<367 367>
VStem: 60 406<187.5 321.5 158.5 351.5>
LayerCount: 2
Fore
SplineSet
263 509 m 0
 115 509 60 444 60 259 c 0
 60 116 79 41 149 9 c 1
 103 -104 l 1
 133 -114 l 1
 179 0 l 1
 202 -6 230 -9 263 -9 c 0
 428 -9 466 58 466 259 c 0
 466 384 440 454 378 487 c 1
 423 594 l 1
 393 605 l 1
 349 498 l 1
 325 506 296 509 263 509 c 0
263 477 m 0
 292 477 317 474 337 468 c 1
 163 40 l 1
 106 69 97 137 97 259 c 0
 97 427 135 477 263 477 c 0
263 23 m 0
 234 23 210 25 191 30 c 1
 366 456 l 1
 413 428 429 368 429 259 c 0
 429 87 411 23 263 23 c 0
159 636 m 1
 351 732 l 1
 367 701 l 1
 174 609 l 1
 159 636 l 1
EndSplineSet
EndChar

StartChar: exclamdown
Encoding: 161 161 281
Width: 204
Flags: MW
HStem: 420 80<81 121 81 121>
VStem: 81 40<420 500 420 500> 84 35<-200 286 -200 286>
LayerCount: 2
Fore
SplineSet
121 500 m 1xc0
 121 420 l 1
 81 420 l 1
 81 500 l 1
 121 500 l 1xc0
119 286 m 1xa0
 119 -200 l 1
 84 -200 l 1
 84 286 l 1
 119 286 l 1xa0
EndSplineSet
Substitution2: "'case' Case-Sensitive Forms in Lateinisch lookup 4 subtable" exclamdown.cap
EndChar

StartChar: exclamdown.cap
Encoding: 65554 -1 282
Width: 225
Flags: MW
HStem: -1 21G<95 130 95 95> 619 80<92 132 92 132>
VStem: 92 40<619 699 619 699> 95 35<-1 485 -1 485>
LayerCount: 2
Fore
SplineSet
132 699 m 1xe0
 132 619 l 1
 92 619 l 1
 92 699 l 1
 132 699 l 1xe0
130 485 m 1xd0
 130 -1 l 1
 95 -1 l 1
 95 485 l 1
 130 485 l 1xd0
EndSplineSet
EndChar

StartChar: quotesinglbase
Encoding: 8218 8218 283
Width: 192
Flags: MW
HStem: -85 200<43 121 43 121>
VStem: 43 78
LayerCount: 2
Fore
SplineSet
121 115 m 1
 81 -85 l 1
 43 -85 l 1
 92 115 l 1
 121 115 l 1
EndSplineSet
EndChar

StartChar: parenleft.cap
Encoding: 65555 -1 284
Width: 234
Flags: MW
HStem: -95 875<156 191 156 191>
VStem: 59 37<238 425.5 238 431>
LayerCount: 2
Fore
SplineSet
156 780 m 1
 191 780 l 1
 191 780 96 520 96 331 c 0
 96 145 191 -95 191 -95 c 1
 156 -95 l 1
 156 -95 59 131 59 331 c 0
 59 531 156 780 156 780 c 1
EndSplineSet
Position2: "'cpsp' Capital Spacing in Lateinisch lookup 0 subtable" dx=5 dy=0 dh=10 dv=0
EndChar

StartChar: parenright.cap
Encoding: 65556 -1 285
Width: 234
Flags: MW
HStem: -90 875<44 79 44 79>
VStem: 139 37<264.5 452>
LayerCount: 2
Fore
SplineSet
79 -90 m 1
 44 -90 l 1
 44 -90 139 170 139 359 c 0
 139 545 44 785 44 785 c 1
 79 785 l 1
 79 785 176 559 176 359 c 0
 176 159 79 -90 79 -90 c 1
EndSplineSet
Position2: "'cpsp' Capital Spacing in Lateinisch lookup 0 subtable" dx=5 dy=0 dh=10 dv=0
EndChar

StartChar: bracketleft.cap
Encoding: 65557 -1 286
Width: 311
Flags: MW
HStem: -93 32<121 268 121 268> 747 32<121 268 121 121>
VStem: 86 35<-61 747 -61 779 -61 779>
LayerCount: 2
Fore
SplineSet
268 779 m 1
 268 747 l 1
 121 747 l 1
 121 -61 l 1
 268 -61 l 1
 268 -93 l 1
 86 -93 l 1
 86 779 l 1
 268 779 l 1
EndSplineSet
Position2: "'cpsp' Capital Spacing in Lateinisch lookup 0 subtable" dx=5 dy=0 dh=10 dv=0
EndChar

StartChar: bracketright.cap
Encoding: 65558 -1 287
Width: 311
Flags: MW
HStem: -93 32<43 190 43 225 43 190> 747 32<43 225 43 190>
VStem: 190 35<-61 747 747 747>
LayerCount: 2
Fore
SplineSet
43 747 m 1
 43 779 l 1
 225 779 l 1
 225 -93 l 1
 43 -93 l 1
 43 -61 l 1
 190 -61 l 1
 190 747 l 1
 43 747 l 1
EndSplineSet
Position2: "'cpsp' Capital Spacing in Lateinisch lookup 0 subtable" dx=5 dy=0 dh=10 dv=0
EndChar

StartChar: braceleft.cap
Encoding: 65559 -1 288
Width: 346
Flags: MW
HStem: -94 32<303 305> 749 32<303 305>
VStem: 30 39 127 35<39 102.5 39 102.5 587.5 649>
LayerCount: 2
Fore
SplineSet
169 199 m 0
 167 160 162 122 162 83 c 0
 162 -5 191 -57 305 -62 c 1
 303 -94 l 1
 175 -89 127 -36 127 83 c 0
 127 122 134 181 134 206 c 0
 134 270 106 302 30 324 c 1
 30 356 l 1
 107 375 134 411 134 476 c 0
 134 504 127 567 127 604 c 0
 127 723 175 776 303 781 c 1
 305 749 l 1
 191 744 162 694 162 604 c 0
 162 571 169 514 169 485 c 0
 169 397 142 365 69 341 c 1
 142 317 169 283 169 199 c 0
EndSplineSet
Position2: "'cpsp' Capital Spacing in Lateinisch lookup 0 subtable" dx=5 dy=0 dh=10 dv=0
EndChar

StartChar: braceright.cap
Encoding: 65560 -1 289
Width: 345
Flags: MW
HStem: -94 32<41 43> 749 32<41 43>
VStem: 184 35<38 99.5 584.5 648> 277 39
LayerCount: 2
Fore
SplineSet
177 488 m 0
 179 527 184 565 184 604 c 0
 184 692 155 744 41 749 c 1
 43 781 l 1
 171 776 219 723 219 604 c 0
 219 565 212 506 212 481 c 0
 212 417 240 385 316 363 c 1
 316 331 l 1
 239 312 212 276 212 211 c 0
 212 183 219 120 219 83 c 0
 219 -36 171 -89 43 -94 c 1
 41 -62 l 1
 155 -57 184 -7 184 83 c 0
 184 116 177 173 177 202 c 0
 177 290 204 322 277 346 c 1
 204 370 177 404 177 488 c 0
EndSplineSet
Position2: "'cpsp' Capital Spacing in Lateinisch lookup 0 subtable" dx=5 dy=0 dh=10 dv=0
EndChar

StartChar: grave.cap
Encoding: 65561 -1 290
Width: 215
Flags: MW
HStem: 799 123
VStem: 10 208<826 891>
LayerCount: 2
Fore
SplineSet
26 922 m 1
 218 826 l 1
 203 799 l 1
 10 891 l 1
 26 922 l 1
EndSplineSet
EndChar

StartChar: acute.cap
Encoding: 65562 -1 291
Width: 215
Flags: MW
HStem: 799 123
VStem: 20 208<826 891>
LayerCount: 2
Fore
SplineSet
20 826 m 1
 212 922 l 1
 228 891 l 1
 35 799 l 1
 20 826 l 1
EndSplineSet
EndChar

StartChar: circumflex.cap
Encoding: 65563 -1 292
Width: 446
Flags: MW
HStem: 905 29<223 223>
VStem: 74 298<809 809>
LayerCount: 2
Fore
SplineSet
74 809 m 1
 208 934 l 1
 238 934 l 1
 372 809 l 1
 327 809 l 1
 223 905 l 1
 120 809 l 1
 74 809 l 1
EndSplineSet
EndChar

StartChar: caron.cap
Encoding: 65564 -1 293
Width: 215
Flags: MW
HStem: 809 29<107 122 122 122 122 137>
VStem: -27 298<934 934>
LayerCount: 2
Fore
SplineSet
107 809 m 1
 -27 934 l 1
 18 934 l 1
 122 838 l 1
 225 934 l 1
 271 934 l 1
 137 809 l 1
 107 809 l 1
EndSplineSet
EndChar

StartChar: tilde.cap
Encoding: 65565 -1 294
Width: 215
Flags: MW
HStem: 833 32<198 223 198 229.5> 893 31<44.5 71>
VStem: -22 306<870 885>
LayerCount: 2
Fore
SplineSet
273 913 m 1
 284 885 l 1
 284 885 245 833 214 833 c 0xe0
 171 833 87 893 55 893 c 0
 34 893 -12 841 -12 841 c 1
 -22 870 l 1
 -22 870 22 924 55 924 c 0x60
 98 924 182 865 214 865 c 0
 232 865 273 913 273 913 c 1
EndSplineSet
EndChar

StartChar: dieresis.cap
Encoding: 65566 -1 295
Width: 215
Flags: MW
HStem: 838 62<-8 27 -8 27 188 223>
VStem: -8 35<838 900 838 900> 188 35<838 900 838 900>
LayerCount: 2
Fore
SplineSet
-8 838 m 1
 -8 900 l 1
 27 900 l 1
 27 838 l 1
 -8 838 l 1
188 838 m 1
 188 900 l 1
 223 900 l 1
 223 838 l 1
 188 838 l 1
EndSplineSet
EndChar

StartChar: macron.cap
Encoding: 65567 -1 296
Width: 215
Flags: MW
HStem: 832 32<-20 267 -20 267>
VStem: -20 287<832 864 832 864>
LayerCount: 2
Fore
SplineSet
-20 832 m 1
 -20 864 l 1
 267 864 l 1
 267 832 l 1
 -20 832 l 1
EndSplineSet
EndChar

StartChar: breve.cap
Encoding: 65568 -1 297
Width: 215
Flags: MW
HStem: 805 32<95.5 150.5 95.5 160>
VStem: -15 35<896.5 924 896.5 924> 226 35<896.5 924>
LayerCount: 2
Fore
SplineSet
-15 924 m 1
 20 924 l 1
 20 869 68 837 123 837 c 0
 178 837 226 869 226 924 c 1
 261 924 l 1
 261 850 197 805 123 805 c 0
 49 805 -15 850 -15 924 c 1
EndSplineSet
EndChar

StartChar: ring.cap
Encoding: 65569 -1 298
Width: 215
Flags: MW
HStem: 730 30<100 140 100 149> 884 30<100 140>
VStem: 23 33<802 842 802 851> 184 33<802 842>
LayerCount: 2
Fore
SplineSet
217 822 m 0
 217 764 178 730 120 730 c 0
 62 730 23 764 23 822 c 0
 23 880 62 914 120 914 c 0
 178 914 217 880 217 822 c 0
56 822 m 0
 56 782 80 760 120 760 c 0
 160 760 184 782 184 822 c 0
 184 862 160 884 120 884 c 0
 80 884 56 862 56 822 c 0
EndSplineSet
EndChar

StartChar: hungarumlaut.cap
Encoding: 65570 -1 299
Width: 215
Flags: MW
HStem: 761 118<140 153>
VStem: -52 397<791 849>
LayerCount: 2
Fore
SplineSet
139 791 m 1
 330 878 l 1
 345 849 l 1
 153 761 l 1
 139 791 l 1
-52 791 m 1
 140 879 l 1
 154 849 l 1
 -37 762 l 1
 -52 791 l 1
EndSplineSet
EndChar

StartChar: dotaccent.cap
Encoding: 65571 -1 300
Width: 215
Flags: MW
HStem: 823 55<90 125 90 125>
VStem: 90 35<823 878 823 878>
LayerCount: 2
Fore
SplineSet
90 823 m 1
 90 878 l 1
 125 878 l 1
 125 823 l 1
 90 823 l 1
EndSplineSet
EndChar

StartChar: Aringacute
Encoding: 506 506 301
Width: 592
Flags: MW
HStem: 0 21G<28 64 28 28 528 564 528 528> 215 34<140 452 140 463 129 452> 666 21G<268 268 268 324> 666 34<268 302 296 302 296 324> 824 30<276 316>
VStem: 199 33<744 782 742 791> 360 33<744 782>
LayerCount: 2
Fore
SplineSet
393 762 m 0xde
 393 726 378 699 353 684 c 1xee
 564 0 l 1
 528 0 l 1
 463 215 l 1
 129 215 l 1
 64 0 l 1
 28 0 l 1
 238 684 l 1
 214 699 199 726 199 762 c 0
 199 820 238 854 296 854 c 0
 354 854 393 820 393 762 c 0xde
268 666 m 1
 140 249 l 1
 452 249 l 1
 324 666 l 1
 268 666 l 1
232 762 m 0
 232 722 256 700 296 700 c 2
 302 700 l 2
 338 702 360 724 360 762 c 0
 360 802 336 824 296 824 c 0
 256 824 232 802 232 762 c 0
190 915 m 1
 382 1011 l 1
 398 980 l 1
 205 888 l 1
 190 915 l 1
EndSplineSet
Position2: "'cpsp' Capital Spacing in Lateinisch lookup 0 subtable" dx=5 dy=0 dh=10 dv=0
EndChar

StartChar: Eng
Encoding: 330 330 302
Width: 665
Flags: MW
HStem: -173 34<400 458.5 400 460> 0 34<488 537 510 537 510 537> 666 34<128 154 128 128>
VStem: 92 36<0 666 0 700 0 700> 537 36<-4 0 0 0 34 700>
LayerCount: 2
Fore
SplineSet
92 0 m 1
 92 700 l 1
 177 700 l 1
 510 34 l 1
 537 34 l 1
 537 700 l 1
 573 700 l 1
 573 -19 l 2
 573 -169 520 -173 400 -173 c 1
 400 -139 l 1
 517 -139 537 -137 537 -4 c 2
 537 0 l 1
 488 0 l 1
 154 666 l 1
 128 666 l 1
 128 0 l 1
 92 0 l 1
EndSplineSet
Position2: "'cpsp' Capital Spacing in Lateinisch lookup 0 subtable" dx=5 dy=0 dh=10 dv=0
EndChar

StartChar: amacron
Encoding: 257 257 303
Width: 495
Flags: MW
HStem: -9 32<149.5 227 149.5 229> -8 31 475 34<228.5 301.5> 642 32<115 382 115 382>
VStem: 48 37<100.5 171.5 100.5 179.5> 376 35<65 269 269 269 301 353 65 396.5>
LayerCount: 2
Fore
SplineSet
411 353 m 2xbc
 411 65 l 2
 414 36 451 26 486 23 c 1xbc
 484 -8 l 1x7c
 441 -8 403 3 381 34 c 1
 381 34 279 -9 179 -9 c 0
 97 -9 48 40 48 137 c 0
 48 222 88 271 186 281 c 2
 376 301 l 1
 376 353 l 2
 376 440 338 475 265 475 c 0
 192 475 76 458 76 458 c 1
 73 491 l 1
 73 491 185 509 265 509 c 0
 366 509 411 456 411 353 c 2xbc
376 269 m 1
 190 250 l 2
 112 242 85 206 85 137 c 0
 85 64 119 23 180 23 c 0
 274 23 376 64 376 64 c 1
 376 269 l 1
115 642 m 1
 115 674 l 1
 382 674 l 1
 382 642 l 1
 115 642 l 1
EndSplineSet
EndChar

StartChar: abreve
Encoding: 259 259 304
Width: 497
Flags: MW
HStem: 595 32<219.5 284.5 219.5 294>
VStem: 85 291<100.5 168> 114 35<695.5 723 695.5 723> 355 35<695.5 723>
LayerCount: 2
Fore
SplineSet
411 66 m 2xb0
 411 353 l 2
 411 456 366 509 265 509 c 0
 185 509 73 491 73 491 c 1
 76 458 l 1
 76 458 192 475 265 475 c 0
 338 475 376 440 376 353 c 2
 376 301 l 1
 186 281 l 2
 87 271 48 222 48 137 c 0
 48 40 97 -9 175 -9 c 0
 288 -9 381 32 381 32 c 1
 403 1 441 -8 484 -8 c 1
 486 24 l 1
 452 27 414 37 411 66 c 2xb0
190 250 m 2
 376 268 l 1
 376 63 l 1
 376 63 275 23 176 23 c 0
 120 23 85 64 85 137 c 0xc0
 85 199 112 242 190 250 c 2
114 723 m 1xb0
 149 723 l 1
 149 668 187 627 252 627 c 0
 317 627 355 668 355 723 c 1
 390 723 l 1
 390 649 336 595 252 595 c 0
 168 595 114 649 114 723 c 1xb0
EndSplineSet
EndChar

StartChar: aringacute
Encoding: 507 507 305
Width: 495
Flags: MW
HStem: -9 32<149.5 227 149.5 229> -8 31 475 34<228.5 301.5> 555 31<224.5 259 224.5 268.5> 713 32<224.5 259>
VStem: 48 37<100.5 171.5 100.5 179.5> 146 34<632.5 667 632.5 676.5> 303 33<632.5 667> 376 35<65 269 269 269 301 353 65 396.5>
LayerCount: 2
Fore
SplineSet
411 353 m 2xbf80
 411 65 l 2
 414 36 451 26 486 23 c 1xbf80
 484 -8 l 1x7f80
 441 -8 403 3 381 34 c 1
 381 34 279 -9 179 -9 c 0
 97 -9 48 40 48 137 c 0
 48 222 88 271 186 281 c 2
 376 301 l 1
 376 353 l 2
 376 440 338 475 265 475 c 0
 192 475 76 458 76 458 c 1
 73 491 l 1
 73 491 185 509 265 509 c 0
 366 509 411 456 411 353 c 2xbf80
376 269 m 1
 190 250 l 2
 112 242 85 206 85 137 c 0
 85 64 119 23 180 23 c 0
 274 23 376 64 376 64 c 1
 376 269 l 1
146 650 m 0
 146 703 188 745 242 745 c 0
 295 745 336 703 336 650 c 0
 336 596 295 555 242 555 c 0
 188 555 146 596 146 650 c 0
180 650 m 0
 180 615 207 586 242 586 c 0
 276 586 303 615 303 650 c 0
 303 684 276 713 242 713 c 0
 207 713 180 684 180 650 c 0
148 806 m 1
 340 902 l 1
 356 871 l 1
 163 779 l 1
 148 806 l 1
EndSplineSet
EndChar

StartChar: aogonek
Encoding: 261 261 306
Width: 494
Flags: MW
HStem: -200 34<412 435.5 412 436> -9 32<149.5 227 149.5 229> -8 31 475 34<228.5 301.5>
VStem: 48 37<100.5 171.5 100.5 179.5> 342 37<-129.5 -102.5 -129.5 -97> 376 35<65 269 269 269 301 353 65 396.5>
LayerCount: 2
Fore
SplineSet
411 353 m 2xda
 411 65 l 2
 414 36 451 26 486 23 c 1xda
 484 -8 l 1xba
 473 -8 463 -7 453 -6 c 1xbc
 436 -25 379 -89 379 -116 c 0
 379 -143 398 -166 426 -166 c 0
 445 -166 482 -159 482 -159 c 1
 486 -192 l 1
 486 -192 450 -200 422 -200 c 0
 376 -200 342 -169 342 -118 c 0
 342 -76 412 -6 421 2 c 1
 405 9 391 19 381 34 c 1xdc
 381 34 279 -9 179 -9 c 0
 97 -9 48 40 48 137 c 0
 48 222 88 271 186 281 c 2
 376 301 l 1
 376 353 l 2
 376 440 338 475 265 475 c 0
 192 475 76 458 76 458 c 1
 73 491 l 1
 73 491 185 509 265 509 c 0
 366 509 411 456 411 353 c 2xda
376 269 m 1
 190 250 l 2
 112 242 85 206 85 137 c 0
 85 64 119 23 180 23 c 0
 274 23 376 64 376 64 c 1
 376 269 l 1
EndSplineSet
EndChar

StartChar: aeacute
Encoding: 509 509 307
Width: 818
Flags: MW
HStem: -9 32<148 222.5 148 231.5 527.5 598> 236 32<411 729> 475 34<228 301> 701 21G<521 521>
VStem: 48 37<100 173 100 193> 374 37<227 236 167 268> 729 37<268 269 236 344.5>
LayerCount: 2
Fore
SplineSet
563 23 m 0
 633 23 745 32 745 32 c 1
 747 0 l 1
 747 0 635 -9 562 -9 c 0
 493 -9 447 13 419 49 c 1
 381 33 l 1
 381 33 288 -9 175 -9 c 0
 93 -9 48 39 48 137 c 0
 48 249 100 269 233 286 c 2
 376 301 l 1
 376 353 l 2
 376 441 337 475 265 475 c 0
 191 475 77 466 77 466 c 1
 75 499 l 1
 75 499 185 509 265 509 c 0
 343 509 388 477 404 413 c 1
 440 484 502 509 576 509 c 0
 699 509 766 442 766 269 c 2
 766 236 l 1
 411 236 l 1
 411 98 447 23 563 23 c 0
176 23 m 0
 269 23 387 67 404 74 c 1
 380 121 374 186 374 268 c 1
 190 250 l 2
 116 243 85 209 85 137 c 0
 85 63 120 23 176 23 c 0
411 268 m 1
 729 268 l 1
 729 421 680 477 576 477 c 0
 476 477 411 419 411 268 c 1
313 636 m 1
 505 732 l 1
 521 701 l 1
 328 609 l 1
 313 636 l 1
EndSplineSet
EndChar

StartChar: cacute
Encoding: 263 263 308
Width: 429
Flags: MW
HStem: -9 32<194 284 194 284> 477 32<201 284> 701 21G<354 354>
VStem: 60 37<175 340 175 353.5>
LayerCount: 2
Fore
SplineSet
265 509 m 0
 303 509 385 499 385 499 c 1
 383 467 l 1
 383 467 303 477 265 477 c 0
 137 477 97 419 97 261 c 0
 97 89 123 23 265 23 c 0
 303 23 385 32 385 32 c 1
 387 0 l 1
 387 0 303 -9 265 -9 c 0
 98 -9 60 60 60 261 c 0
 60 446 116 509 265 509 c 0
146 636 m 1
 338 732 l 1
 354 701 l 1
 161 609 l 1
 146 636 l 1
EndSplineSet
EndChar

StartChar: ccircumflex
Encoding: 265 265 309
Width: 429
Flags: MW
HStem: -9 32<194 284 194 284> 477 32<201 284> 600 132<103 252 103 252 224 331 224 374> 700 21G<239 239>
VStem: 60 37<175 340 175 353.5>
LayerCount: 2
Fore
SplineSet
265 509 m 0xd8
 303 509 385 499 385 499 c 1
 383 467 l 1
 383 467 303 477 265 477 c 0
 137 477 97 419 97 261 c 0
 97 89 123 23 265 23 c 0
 303 23 385 32 385 32 c 1
 387 0 l 1
 387 0 303 -9 265 -9 c 0
 98 -9 60 60 60 261 c 0
 60 446 116 509 265 509 c 0xd8
103 600 m 1xe8
 224 732 l 1
 252 732 l 1
 374 600 l 1
 331 600 l 1xe8
 239 700 l 1xd8
 146 600 l 1
 103 600 l 1xe8
EndSplineSet
EndChar

StartChar: ccaron
Encoding: 269 269 310
Width: 429
Flags: MW
HStem: -9 32<194 284 194 284> 477 32<201 284> 600 33<224 239 239 239 239 252> 712 20G<103 145 145 145 332 374 374 374>
VStem: 60 37<175 340 175 353.5>
LayerCount: 2
Fore
SplineSet
265 509 m 0
 303 509 385 499 385 499 c 1
 383 467 l 1
 383 467 303 477 265 477 c 0
 137 477 97 419 97 261 c 0
 97 89 123 23 265 23 c 0
 303 23 385 32 385 32 c 1
 387 0 l 1
 387 0 303 -9 265 -9 c 0
 98 -9 60 60 60 261 c 0
 60 446 116 509 265 509 c 0
224 600 m 1
 103 732 l 1
 145 732 l 1
 239 633 l 1
 332 732 l 1
 374 732 l 1
 252 600 l 1
 224 600 l 1
EndSplineSet
EndChar

StartChar: cdotaccent
Encoding: 267 267 311
Width: 429
Flags: MW
HStem: -9 32<194 284 194 284> 477 32<201 284> 645 55<230 265 230 265>
VStem: 60 37<175 340 175 353.5> 230 35<645 700 645 700>
LayerCount: 2
Fore
SplineSet
265 509 m 0
 303 509 385 499 385 499 c 1
 383 467 l 1
 383 467 303 477 265 477 c 0
 137 477 97 419 97 261 c 0
 97 89 123 23 265 23 c 0
 303 23 385 32 385 32 c 1
 387 0 l 1
 387 0 303 -9 265 -9 c 0
 98 -9 60 60 60 261 c 0
 60 446 116 509 265 509 c 0
230 645 m 1
 230 700 l 1
 265 700 l 1
 265 645 l 1
 230 645 l 1
EndSplineSet
EndChar

StartChar: dcaron
Encoding: 271 271 312
Width: 515
Flags: MW
HStem: -9 32<200 271 200 273.5> 0 21G<401 436 401 401> 477 32<198 288.5> 710 20G<401 436 436 436>
VStem: 58 37<141 316.5 141 328> 401 35<0 42 42 42 75 465 465 465 497 730 0 730>
LayerCount: 2
Fore
SplineSet
537 687 m 1xbc
 500 498 l 1
 528 498 l 1
 574 687 l 1
 537 687 l 1xbc
436 730 m 1
 436 0 l 1
 401 0 l 1x7c
 401 42 l 1
 401 42 319 -9 228 -9 c 0
 166 -9 58 -1 58 242 c 0
 58 414 105 509 269 509 c 0
 316 509 376 501 401 497 c 1
 401 730 l 1
 436 730 l 1
228 23 m 0xbc
 314 23 401 75 401 75 c 1
 401 465 l 1
 375 469 308 477 269 477 c 0
 127 477 95 391 95 242 c 0
 95 40 172 23 228 23 c 0xbc
EndSplineSet
EndChar

StartChar: dcroat
Encoding: 273 273 313
Width: 515
Flags: MW
HStem: -9 32<200 271 200 273.5> 0 21G<401 436 401 401> 477 32<198 288.5> 622 32<228 401 228 401 436 495> 622 108<228 436 401 495 401 436>
VStem: 58 37<141 316.5 141 328> 401 35<0 42 42 42 75 465 465 465 497 622 0 622 654 730>
LayerCount: 2
Fore
SplineSet
436 730 m 1xae
 436 654 l 1
 495 654 l 1
 495 622 l 1
 436 622 l 1
 436 0 l 1
 401 0 l 1x76
 401 42 l 1
 401 42 319 -9 228 -9 c 0
 166 -9 58 -1 58 242 c 0
 58 414 105 509 269 509 c 0
 316 509 376 501 401 497 c 1
 401 622 l 1
 228 622 l 1
 228 654 l 1
 401 654 l 1xb6
 401 730 l 1
 436 730 l 1xae
228 23 m 0xb6
 314 23 401 75 401 75 c 1
 401 465 l 1
 375 469 308 477 269 477 c 0
 127 477 95 391 95 242 c 0
 95 40 172 23 228 23 c 0xb6
EndSplineSet
EndChar

StartChar: ecaron
Encoding: 283 283 314
Width: 502
Flags: MW
HStem: -9 32<246 282 189 282.5> 236 32<95 413 95 450 95 413> 477 32<210 312> 600 33<237 252 252 252 252 265> 712 20G<116 158 158 158 345 387 387 387>
VStem: 58 37<168.5 236 268 344> 413 37<268 269 236 344.5>
LayerCount: 2
Fore
SplineSet
247 23 m 0
 317 23 429 32 429 32 c 1
 431 0 l 1
 431 0 319 -9 246 -9 c 0
 97 -8 58 87 58 250 c 0
 58 448 146 509 260 509 c 0
 383 509 450 442 450 269 c 2
 450 236 l 1
 95 236 l 1
 95 98 131 23 247 23 c 0
95 268 m 1
 413 268 l 1
 413 421 364 477 260 477 c 0
 160 477 95 420 95 268 c 1
237 600 m 1
 116 732 l 1
 158 732 l 1
 252 633 l 1
 345 732 l 1
 387 732 l 1
 265 600 l 1
 237 600 l 1
EndSplineSet
EndChar

StartChar: emacron
Encoding: 275 275 315
Width: 502
Flags: MW
HStem: -9 32<246 282 189 282.5> 236 32<95 413 95 450 95 413> 477 32<210 312> 642 32<130 397 130 397>
VStem: 58 37<168.5 236 268 344> 413 37<268 269 236 344.5>
LayerCount: 2
Fore
SplineSet
247 23 m 0
 317 23 429 32 429 32 c 1
 431 0 l 1
 431 0 319 -9 246 -9 c 0
 97 -8 58 87 58 250 c 0
 58 448 146 509 260 509 c 0
 383 509 450 442 450 269 c 2
 450 236 l 1
 95 236 l 1
 95 98 131 23 247 23 c 0
95 268 m 1
 413 268 l 1
 413 421 364 477 260 477 c 0
 160 477 95 420 95 268 c 1
130 642 m 1
 130 674 l 1
 397 674 l 1
 397 642 l 1
 130 642 l 1
EndSplineSet
EndChar

StartChar: ebreve
Encoding: 277 277 316
Width: 502
Flags: MW
HStem: -9 32<246 282 189 282.5> 236 32<95 413 95 450 95 413> 477 32<210 312> 595 32<222.5 287.5 222.5 297>
VStem: 58 37<168.5 236 268 344> 117 35<695.5 723 695.5 723> 358 35<695.5 723> 413 37<268 269 236 344.5>
LayerCount: 2
Fore
SplineSet
247 23 m 0
 317 23 429 32 429 32 c 1
 431 0 l 1
 431 0 319 -9 246 -9 c 0
 97 -8 58 87 58 250 c 0
 58 448 146 509 260 509 c 0
 383 509 450 442 450 269 c 2
 450 236 l 1
 95 236 l 1
 95 98 131 23 247 23 c 0
95 268 m 1
 413 268 l 1
 413 421 364 477 260 477 c 0
 160 477 95 420 95 268 c 1
117 723 m 1xff
 152 723 l 1
 152 668 190 627 255 627 c 0
 320 627 358 668 358 723 c 1
 393 723 l 1
 393 649 339 595 255 595 c 0
 171 595 117 649 117 723 c 1xff
EndSplineSet
EndChar

StartChar: edotaccent
Encoding: 279 279 317
Width: 502
Flags: MW
HStem: -9 32<246 282 189 282.5> 236 32<95 413 95 450 95 413> 477 32<210 312> 645 55<234 269 234 269>
VStem: 58 37<168.5 236 268 344> 234 35<645 700 645 700> 413 37<268 269 236 344.5>
LayerCount: 2
Fore
SplineSet
247 23 m 0
 317 23 429 32 429 32 c 1
 431 0 l 1
 431 0 319 -9 246 -9 c 0
 97 -8 58 87 58 250 c 0
 58 448 146 509 260 509 c 0
 383 509 450 442 450 269 c 2
 450 236 l 1
 95 236 l 1
 95 98 131 23 247 23 c 0
95 268 m 1
 413 268 l 1
 413 421 364 477 260 477 c 0
 160 477 95 420 95 268 c 1
234 645 m 1
 234 700 l 1
 269 700 l 1
 269 645 l 1
 234 645 l 1
EndSplineSet
EndChar

StartChar: eogonek
Encoding: 281 281 318
Width: 502
Flags: MW
HStem: -200 34<371 394.5 371 395> -9 32<246 266> 0 23 0 32<429 431> 236 32<95 413 95 450 95 413> 477 32<210 312>
VStem: 58 37<168.5 236 268 344> 301 37<-129.5 -101 -129.5 -100> 413 37<268 269 236 344.5>
LayerCount: 2
Fore
SplineSet
247 23 m 0xcf80
 317 23 429 32 429 32 c 1x9f80
 431 0 l 1
 431 0 424 0 417 -1 c 1xaf80
 408 -10 338 -86 338 -116 c 0
 338 -143 357 -166 385 -166 c 0
 404 -166 441 -159 441 -159 c 1
 445 -192 l 1
 445 -192 409 -200 381 -200 c 0
 335 -200 301 -169 301 -118 c 0
 301 -82 354 -24 374 -4 c 1
 335 -6 286 -9 246 -9 c 0
 97 -8 58 87 58 250 c 0
 58 448 146 509 260 509 c 0
 383 509 450 442 450 269 c 2
 450 236 l 1
 95 236 l 1
 95 98 131 23 247 23 c 0xcf80
95 268 m 1
 413 268 l 1
 413 421 364 477 260 477 c 0
 160 477 95 420 95 268 c 1
EndSplineSet
EndChar

StartChar: gcircumflex
Encoding: 285 285 319
Width: 501
Flags: MW
HStem: -239 32<188 319 188 330.5> 27 32<269.5 340.5> 179 32<228 287.5 188 293.5> 465 35<374 482> 478 32<188 263 182.5 287.5> 600 132<120 269 120 269 241 348 241 391> 700 21G<256 256>
VStem: 58 36<-126.5 -55 -126.5 -47> 65 36<295 393 293 402.5> 121 34<97.5 119.5 88.5 120.5> 377 37<293 377.5 281.5 393> 432 37<-128 -34.5>
LayerCount: 2
Fore
SplineSet
256 -239 m 0xf310
 90 -239 58 -198 58 -80 c 0xf310
 58 -14 89 9 143 48 c 1
 127 58 121 82 121 113 c 0xf2d0
 121 128 151 191 151 191 c 1
 105 206 65 247 65 343 c 0
 65 462 129 510 236 510 c 0xea90
 290 510 342 497 342 497 c 1
 482 500 l 1
 482 465 l 1
 374 465 l 1
 399 442 414 412 414 343 c 0
 414 220 355 179 232 179 c 0
 224 179 190 181 178 183 c 1
 178 183 155 126 155 113 c 0xf2f0
 155 64 161 59 292 59 c 0
 416 59 469 39 469 -85 c 0
 469 -193 405 -239 256 -239 c 0xf310
290 27 m 0
 249 27 169 30 169 30 c 1
 111 -10 94 -31 94 -79 c 0
 94 -174 119 -207 257 -207 c 0
 381 -207 432 -171 432 -85 c 0
 432 16 391 27 290 27 c 0
235 211 m 0xecb0
 340 211 377 243 377 343 c 0
 377 443 340 478 235 478 c 0
 141 478 101 443 101 343 c 0
 101 243 141 211 235 211 c 0xecb0
120 600 m 1
 241 732 l 1
 269 732 l 1
 391 600 l 1
 348 600 l 1xf490
 256 700 l 1xf290
 163 600 l 1
 120 600 l 1
EndSplineSet
EndChar

StartChar: gbreve
Encoding: 287 287 320
Width: 501
Flags: MW
HStem: -239 32<188 319 188 330.5> 27 32<269.5 340.5> 179 32<228 287.5 188 293.5> 465 35<374 482> 478 32<188 263 182.5 287.5> 595 32<222.5 287.5 222.5 297>
VStem: 58 36<-126.5 -55 -126.5 -47> 65 36<295 393 293 402.5> 117 35<695.5 723 695.5 723> 121 34<97.5 119.5 88.5 120.5> 358 35<695.5 723> 377 37<293 377.5 281.5 393> 432 37<-128 -34.5>
LayerCount: 2
Fore
SplineSet
256 -239 m 0xf628
 90 -239 58 -198 58 -80 c 0xf628
 58 -14 89 9 143 48 c 1
 127 58 121 82 121 113 c 0xf568
 121 128 151 191 151 191 c 1
 105 206 65 247 65 343 c 0
 65 462 129 510 236 510 c 0xed28
 290 510 342 497 342 497 c 1
 482 500 l 1
 482 465 l 1
 374 465 l 1
 399 442 414 412 414 343 c 0
 414 220 355 179 232 179 c 0
 224 179 190 181 178 183 c 1
 178 183 155 126 155 113 c 0xf558
 155 64 161 59 292 59 c 0
 416 59 469 39 469 -85 c 0
 469 -193 405 -239 256 -239 c 0xf628
290 27 m 0
 249 27 169 30 169 30 c 1
 111 -10 94 -31 94 -79 c 0
 94 -174 119 -207 257 -207 c 0
 381 -207 432 -171 432 -85 c 0
 432 16 391 27 290 27 c 0
235 211 m 0xed18
 340 211 377 243 377 343 c 0
 377 443 340 478 235 478 c 0
 141 478 101 443 101 343 c 0
 101 243 141 211 235 211 c 0xed18
117 723 m 1xf5a8
 152 723 l 1
 152 668 190 627 255 627 c 0
 320 627 358 668 358 723 c 1
 393 723 l 1
 393 649 339 595 255 595 c 0
 171 595 117 649 117 723 c 1xf5a8
EndSplineSet
EndChar

StartChar: gdotaccent
Encoding: 289 289 321
Width: 501
Flags: MW
HStem: -239 32<188 319 188 330.5> 27 32<269.5 340.5> 179 32<228 287.5 188 293.5> 465 35<374 482> 478 32<188 263 182.5 287.5> 645 55<237 272 237 272>
VStem: 58 36<-126.5 -55 -126.5 -47> 65 36<295 393 293 402.5> 121 34<97.5 119.5 88.5 120.5> 237 35<645 700 645 700> 377 37<293 377.5 281.5 393> 432 37<-128 -34.5>
LayerCount: 2
Fore
SplineSet
256 -239 m 0xf650
 90 -239 58 -198 58 -80 c 0xf650
 58 -14 89 9 143 48 c 1
 127 58 121 82 121 113 c 0xf5d0
 121 128 151 191 151 191 c 1
 105 206 65 247 65 343 c 0
 65 462 129 510 236 510 c 0xed50
 290 510 342 497 342 497 c 1
 482 500 l 1
 482 465 l 1
 374 465 l 1
 399 442 414 412 414 343 c 0
 414 220 355 179 232 179 c 0
 224 179 190 181 178 183 c 1
 178 183 155 126 155 113 c 0xf5f0
 155 64 161 59 292 59 c 0
 416 59 469 39 469 -85 c 0
 469 -193 405 -239 256 -239 c 0xf650
290 27 m 0
 249 27 169 30 169 30 c 1
 111 -10 94 -31 94 -79 c 0
 94 -174 119 -207 257 -207 c 0
 381 -207 432 -171 432 -85 c 0
 432 16 391 27 290 27 c 0
235 211 m 0xed70
 340 211 377 243 377 343 c 0
 377 443 340 478 235 478 c 0
 141 478 101 443 101 343 c 0
 101 243 141 211 235 211 c 0xed70
237 645 m 1
 237 700 l 1
 272 700 l 1
 272 645 l 1
 237 645 l 1
EndSplineSet
EndChar

StartChar: gcommaaccent
Encoding: 291 291 322
Width: 501
Flags: MW
HStem: -239 32<188 319 188 330.5> 27 32<269.5 340.5> 179 32<228 287.5 188 293.5> 465 35<374 482> 478 32<188 263 182.5 287.5> 593 189<207 281 207 281>
VStem: 58 36<-126.5 -55 -126.5 -47> 65 36<295 393 293 402.5> 121 34<97.5 119.5 88.5 120.5> 377 37<293 377.5 281.5 393> 432 37<-128 -34.5>
LayerCount: 2
Fore
SplineSet
281 782 m 1xf520
 244 593 l 1
 207 593 l 1
 253 782 l 1
 281 782 l 1xf520
256 -239 m 0xf620
 90 -239 58 -198 58 -80 c 0xf620
 58 -14 89 9 143 48 c 1
 127 58 121 82 121 113 c 0xf5a0
 121 128 151 191 151 191 c 1
 105 206 65 247 65 343 c 0
 65 462 129 510 236 510 c 0xed20
 290 510 342 497 342 497 c 1
 482 500 l 1
 482 465 l 1
 374 465 l 1
 399 442 414 412 414 343 c 0
 414 220 355 179 232 179 c 0
 224 179 190 181 178 183 c 1
 178 183 155 126 155 113 c 0xf5e0
 155 64 161 59 292 59 c 0
 416 59 469 39 469 -85 c 0
 469 -193 405 -239 256 -239 c 0xf620
290 27 m 0
 249 27 169 30 169 30 c 1
 111 -10 94 -31 94 -79 c 0
 94 -174 119 -207 257 -207 c 0
 381 -207 432 -171 432 -85 c 0
 432 16 391 27 290 27 c 0
235 211 m 0xed60
 340 211 377 243 377 343 c 0
 377 443 340 478 235 478 c 0
 141 478 101 443 101 343 c 0
 101 243 141 211 235 211 c 0xed60
EndSplineSet
EndChar

StartChar: hcircumflex
Encoding: 293 293 323
Width: 526
Flags: MW
HStem: 0 21G<79 114 79 79 417 417 417 452> 477 32<245 343.5> 710 20G<79 114 114 114> 890 32<262 262>
VStem: 79 35<0 437 470 730> 417 35<0 258 258 260 0 343>
LayerCount: 2
Fore
SplineSet
114 0 m 1
 79 0 l 1
 79 730 l 1
 114 730 l 1
 114 470 l 1
 114 470 202 509 288 509 c 0
 424 509 452 454 452 260 c 2
 452 0 l 1
 417 0 l 1
 417 258 l 2
 417 428 399 477 288 477 c 0
 199 477 114 437 114 437 c 1
 114 0 l 1
126 790 m 1
 247 922 l 1
 275 922 l 1
 397 790 l 1
 354 790 l 1
 262 890 l 1
 169 790 l 1
 126 790 l 1
EndSplineSet
EndChar

StartChar: hbar
Encoding: 295 295 324
Width: 526
Flags: MW
HStem: 0 21G<79 114 79 79 417 452 417 417> 477 32<245 343.5> 612 32<8 79 8 79 114 275> 612 118<8 114 8 114 79 114 79 275>
VStem: 79 35<0 437 470 612 644 730> 417 35<0 258 258 260 0 343>
LayerCount: 2
Fore
SplineSet
8 612 m 1xec
 8 644 l 1
 79 644 l 1xec
 79 730 l 1
 114 730 l 1xdc
 114 644 l 1
 275 644 l 1
 275 612 l 1
 114 612 l 1
 114 470 l 1
 114 470 202 509 288 509 c 0
 424 509 452 454 452 260 c 2
 452 0 l 1
 417 0 l 1
 417 258 l 2
 417 428 399 477 288 477 c 0
 199 477 114 437 114 437 c 1
 114 0 l 1
 79 0 l 1
 79 612 l 1
 8 612 l 1xec
EndSplineSet
EndChar

StartChar: itilde
Encoding: 297 297 325
Width: 193
Flags: MW
HStem: 630 32<160 185 160 189.5> 668 21G<-53 -53> 684 31<16.5 43> 703 21G<238 238>
VStem: -53 300<668 673>
LayerCount: 2
Fore
SplineSet
79 500 m 1x58
 79 0 l 1
 114 0 l 1
 114 500 l 1
 79 500 l 1x58
238 703 m 1
 247 673 l 1
 247 673 205 630 174 630 c 0x98
 134 630 59 684 27 684 c 0
 6 684 -43 639 -43 639 c 1
 -53 668 l 1
 -53 668 -4 715 29 715 c 0x28
 69 715 144 662 176 662 c 0x98
 194 662 238 703 238 703 c 1
EndSplineSet
EndChar

StartChar: imacron
Encoding: 299 299 326
Width: 193
Flags: MW
HStem: 642 32<-37 230 -37 230>
VStem: -37 116 114 116
LayerCount: 2
Fore
SplineSet
79 500 m 1
 79 0 l 1
 114 0 l 1
 114 500 l 1
 79 500 l 1
-37 642 m 1
 -37 674 l 1
 230 674 l 1
 230 642 l 1
 -37 642 l 1
EndSplineSet
EndChar

StartChar: ibreve
Encoding: 301 301 327
Width: 193
Flags: MW
HStem: 595 32<64.5 129.5 64.5 139>
VStem: -41 35<695.5 723 695.5 723> 200 35<695.5 723>
LayerCount: 2
Fore
SplineSet
79 500 m 1
 79 0 l 1
 114 0 l 1
 114 500 l 1
 79 500 l 1
-41 723 m 1
 -6 723 l 1
 -6 668 32 627 97 627 c 0
 162 627 200 668 200 723 c 1
 235 723 l 1
 235 649 181 595 97 595 c 0
 13 595 -41 649 -41 723 c 1
EndSplineSet
EndChar

StartChar: iogonek
Encoding: 303 303 328
Width: 193
Flags: MW
HStem: -200 34<66 89.5 66 90> 0 21G<114 114> 480 20G<79 114 114 114> 645 55<79 114 79 114>
VStem: -4 37<-129.5 -100 -129.5 -97.5> 79 35<3 500 0 500 645 700>
LayerCount: 2
Fore
SplineSet
114 500 m 1
 114 0 l 1
 114 0 33 -84 33 -116 c 0
 33 -143 52 -166 80 -166 c 0
 99 -166 136 -159 136 -159 c 1
 140 -192 l 1
 140 -192 104 -200 76 -200 c 0
 30 -200 -4 -169 -4 -118 c 0
 -4 -77 67 -8 79 3 c 1
 79 500 l 1
 114 500 l 1
79 645 m 1
 79 700 l 1
 114 700 l 1
 114 645 l 1
 79 645 l 1
EndSplineSet
EndChar

StartChar: jcircumflex
Encoding: 309 309 329
Width: 193
Flags: MW
HStem: 480 20G<79 114 114 114> 600 132<-43 106 -43 106 78 185 78 228> 700 21G<93 93>
VStem: 79 35<6 500>
LayerCount: 2
Fore
SplineSet
79 6 m 2xb0
 79 500 l 1
 114 500 l 1
 114 5 l 2
 114 -107 84 -152 -45 -218 c 1
 -59 -187 l 1
 55 -125 79 -92 79 6 c 2xb0
-43 600 m 1xd0
 78 732 l 1
 106 732 l 1
 228 600 l 1
 185 600 l 1xd0
 93 700 l 1xb0
 0 600 l 1
 -43 600 l 1xd0
EndSplineSet
EndChar

StartChar: kcommaaccent
Encoding: 311 311 330
Width: 455
Flags: MW
HStem: -267 189<173 247 173 247> 0 21G<79 114 79 79 390 390 390 432> 257 32<114 210 114 210> 480 20G<382 424 424 424> 710 20G<79 114 114 114>
VStem: 79 35<0 257 289 730>
LayerCount: 2
Fore
SplineSet
173 -267 m 1
 210 -78 l 1
 247 -78 l 1
 201 -267 l 1
 173 -267 l 1
114 0 m 1
 79 0 l 1
 79 730 l 1
 114 730 l 1
 114 289 l 1
 210 289 l 1
 382 500 l 1
 424 500 l 1
 240 274 l 1
 432 0 l 1
 390 0 l 1
 210 257 l 1
 114 257 l 1
 114 0 l 1
EndSplineSet
EndChar

StartChar: lacute
Encoding: 314 314 331
Width: 205
Flags: MW
HStem: 0 21G<85 85 85 120> 710 20G<85 120 120 120>
VStem: 85 35<0 730 0 730>
LayerCount: 2
Fore
SplineSet
85 0 m 1
 85 730 l 1
 120 730 l 1
 120 0 l 1
 85 0 l 1
59 836 m 1
 251 932 l 1
 267 901 l 1
 74 809 l 1
 59 836 l 1
EndSplineSet
EndChar

StartChar: lcaron
Encoding: 318 318 332
Width: 199
Flags: MW
HStem: 0 21G<85 85 85 120> 710 20G<85 120 120 120>
VStem: 85 35<0 730 0 730>
LayerCount: 2
Fore
SplineSet
223 687 m 1
 186 498 l 1
 214 498 l 1
 260 687 l 1
 223 687 l 1
85 0 m 1
 85 730 l 1
 120 730 l 1
 120 0 l 1
 85 0 l 1
EndSplineSet
EndChar

StartChar: lcommaaccent
Encoding: 316 316 333
Width: 205
Flags: MW
HStem: 0 21G<85 85 85 120> 710 20G<85 120 120 120>
VStem: 85 35<0 730 0 730>
LayerCount: 2
Fore
SplineSet
85 0 m 1
 85 730 l 1
 120 730 l 1
 120 0 l 1
 85 0 l 1
79 -78 m 1
 42 -267 l 1
 70 -267 l 1
 116 -78 l 1
 79 -78 l 1
EndSplineSet
EndChar

StartChar: nacute
Encoding: 324 324 334
Width: 527
Flags: MW
HStem: 701 21G<378 378>
VStem: 114 304<0 258 0 427 0 427 0 500 0 500>
LayerCount: 2
Fore
SplineSet
79 0 m 1
 114 0 l 1
 114 427 l 1
 114 427 200 477 289 477 c 0
 400 477 418 428 418 258 c 2
 418 0 l 1
 453 0 l 1
 453 260 l 2
 453 454 425 509 289 509 c 0
 203 509 114 460 114 460 c 1
 114 500 l 1
 79 500 l 1
 79 0 l 1
170 636 m 1
 362 732 l 1
 378 701 l 1
 185 609 l 1
 170 636 l 1
EndSplineSet
EndChar

StartChar: ncaron
Encoding: 328 328 335
Width: 527
Flags: MW
HStem: 0 21G<79 114 79 79 418 418 418 453> 460 40<79 114> 477 32<246 344.5> 600 33<250 265 265 265 265 278> 712 20G<129 171 171 171 358 400 400 400>
VStem: 79 35<0 427 460 500> 418 35<0 258 258 260 0 343>
LayerCount: 2
Fore
SplineSet
114 0 m 1xbe
 79 0 l 1
 79 500 l 1
 114 500 l 1xde
 114 460 l 1
 114 460 203 509 289 509 c 0
 425 509 453 454 453 260 c 2
 453 0 l 1
 418 0 l 1
 418 258 l 2
 418 428 400 477 289 477 c 0
 200 477 114 427 114 427 c 1
 114 0 l 1xbe
250 600 m 1
 129 732 l 1
 171 732 l 1
 265 633 l 1
 358 732 l 1
 400 732 l 1
 278 600 l 1
 250 600 l 1
EndSplineSet
EndChar

StartChar: ncommaaccent
Encoding: 326 326 336
Width: 527
Flags: MW
HStem: -267 189<219 293 219 293> 0 21G<79 114 79 79 418 418 418 453> 460 40<79 114> 477 32<246 344.5>
VStem: 79 35<0 427 460 500> 418 35<0 258 258 260 0 343>
LayerCount: 2
Fore
SplineSet
219 -267 m 1xdc
 256 -78 l 1
 293 -78 l 1
 247 -267 l 1
 219 -267 l 1xdc
114 0 m 1
 79 0 l 1
 79 500 l 1
 114 500 l 1xec
 114 460 l 1
 114 460 203 509 289 509 c 0
 425 509 453 454 453 260 c 2
 453 0 l 1
 418 0 l 1
 418 258 l 2
 418 428 400 477 289 477 c 0
 200 477 114 427 114 427 c 1
 114 0 l 1
EndSplineSet
EndChar

StartChar: omacron
Encoding: 333 333 337
Width: 526
Flags: MW
HStem: 509 185<189 337> 662 32<130 397 130 397>
VStem: 97 332<173 343>
LayerCount: 2
Fore
SplineSet
263 509 m 0xa0
 115 509 60 444 60 259 c 0
 60 58 98 -9 263 -9 c 0
 428 -9 466 58 466 259 c 0
 466 444 411 509 263 509 c 0xa0
263 23 m 0
 115 23 97 87 97 259 c 0
 97 427 135 477 263 477 c 0
 391 477 429 427 429 259 c 0
 429 87 411 23 263 23 c 0
130 662 m 1x60
 130 694 l 1
 397 694 l 1
 397 662 l 1
 130 662 l 1x60
EndSplineSet
EndChar

StartChar: obreve
Encoding: 335 335 338
Width: 526
Flags: MW
HStem: 595 32<233.5 298.5 233.5 308>
VStem: 97 332<173 343> 128 35<695.5 723 695.5 723> 369 35<695.5 723>
LayerCount: 2
Fore
SplineSet
263 509 m 0xb0
 115 509 60 444 60 259 c 0
 60 58 98 -9 263 -9 c 0
 428 -9 466 58 466 259 c 0
 466 444 411 509 263 509 c 0xb0
263 23 m 0xc0
 115 23 97 87 97 259 c 0
 97 427 135 477 263 477 c 0
 391 477 429 427 429 259 c 0
 429 87 411 23 263 23 c 0xc0
128 723 m 1xb0
 163 723 l 1
 163 668 201 627 266 627 c 0
 331 627 369 668 369 723 c 1
 404 723 l 1
 404 649 350 595 266 595 c 0
 182 595 128 649 128 723 c 1xb0
EndSplineSet
EndChar

StartChar: ohungarumlaut
Encoding: 337 337 339
Width: 526
Flags: MW
HStem: -9 735<283 283 283 345.5>
VStem: 60 426<158.5 699> 97 332<173 343>
LayerCount: 2
Fore
SplineSet
263 509 m 0xc0
 115 509 60 444 60 259 c 0
 60 58 98 -9 263 -9 c 0
 428 -9 466 58 466 259 c 0
 466 444 411 509 263 509 c 0xc0
263 23 m 0xa0
 115 23 97 87 97 259 c 0
 97 427 135 477 263 477 c 0
 391 477 429 427 429 259 c 0
 429 87 411 23 263 23 c 0xa0
305 622 m 1
 468 726 l 1
 486 699 l 1
 323 595 l 1
 305 622 l 1
120 622 m 1
 283 726 l 1
 301 699 l 1
 138 595 l 1
 120 622 l 1
EndSplineSet
EndChar

StartChar: racute
Encoding: 341 341 340
Width: 328
Flags: MW
HStem: 0 21G<79 79 79 114> 480 20G<79 114 114 114> 701 21G<287 287>
VStem: 79 35<0 389 422 500>
LayerCount: 2
Fore
SplineSet
79 0 m 1
 79 500 l 1
 114 500 l 1
 114 422 l 1
 114 422 202 489 312 510 c 1
 312 474 l 1
 214 454 114 389 114 389 c 1
 114 0 l 1
 79 0 l 1
79 636 m 1
 271 732 l 1
 287 701 l 1
 94 609 l 1
 79 636 l 1
EndSplineSet
EndChar

StartChar: rcommaaccent
Encoding: 343 343 341
Width: 328
Flags: MW
HStem: 0 21G<79 79 79 114> 480 20G<79 114 114 114>
VStem: 79 35<0 389 422 500>
LayerCount: 2
Fore
SplineSet
79 -78 m 1
 42 -267 l 1
 70 -267 l 1
 116 -78 l 1
 79 -78 l 1
79 0 m 1
 79 500 l 1
 114 500 l 1
 114 422 l 1
 114 422 202 489 312 510 c 1
 312 474 l 1
 214 454 114 389 114 389 c 1
 114 0 l 1
 79 0 l 1
EndSplineSet
EndChar

StartChar: rcaron
Encoding: 345 345 342
Width: 328
Flags: MW
HStem: 0 21G<79 79 79 114> 480 20G<79 114 114 114> 600 33<161 176 176 176 176 189> 712 20G<40 82 82 82 269 311 311 311>
VStem: 79 35<0 389 422 500>
LayerCount: 2
Fore
SplineSet
79 0 m 1
 79 500 l 1
 114 500 l 1
 114 422 l 1
 114 422 202 489 312 510 c 1
 312 474 l 1
 214 454 114 389 114 389 c 1
 114 0 l 1
 79 0 l 1
161 600 m 1
 40 732 l 1
 82 732 l 1
 176 633 l 1
 269 732 l 1
 311 732 l 1
 189 600 l 1
 161 600 l 1
EndSplineSet
EndChar

StartChar: sacute
Encoding: 347 347 343
Width: 461
Flags: MW
HStem: -9 32<194.5 267 194.5 281> 477 32<190 256> 701 21G<337 337>
VStem: 51 37<346 417.5 346 428> 375 37<93 177>
LayerCount: 2
Fore
SplineSet
394 494 m 1
 392 461 l 1
 392 461 290 477 222 477 c 0
 158 477 88 458 88 377 c 0
 88 315 115 296 230 278 c 0
 361 257 412 238 412 144 c 0
 412 27 340 -9 222 -9 c 0
 165 -9 57 7 57 7 c 1
 61 40 l 1
 61 40 169 23 220 23 c 0
 314 23 375 45 375 141 c 0
 375 213 339 227 220 245 c 0
 103 263 51 282 51 375 c 0
 51 481 141 509 222 509 c 0
 299 509 394 494 394 494 c 1
129 636 m 1
 321 732 l 1
 337 701 l 1
 144 609 l 1
 129 636 l 1
EndSplineSet
EndChar

StartChar: scircumflex
Encoding: 349 349 344
Width: 461
Flags: MW
HStem: -9 32<194.5 267 194.5 281> 477 32<190 256> 600 132<97 246 97 246 218 325 218 368> 700 21G<233 233>
VStem: 51 37<346 417.5 346 428> 375 37<93 177>
LayerCount: 2
Fore
SplineSet
394 494 m 1xdc
 392 461 l 1
 392 461 290 477 222 477 c 0
 158 477 88 458 88 377 c 0
 88 315 115 296 230 278 c 0
 361 257 412 238 412 144 c 0
 412 27 340 -9 222 -9 c 0
 165 -9 57 7 57 7 c 1
 61 40 l 1
 61 40 169 23 220 23 c 0
 314 23 375 45 375 141 c 0
 375 213 339 227 220 245 c 0
 103 263 51 282 51 375 c 0
 51 481 141 509 222 509 c 0
 299 509 394 494 394 494 c 1xdc
97 600 m 1xec
 218 732 l 1
 246 732 l 1
 368 600 l 1
 325 600 l 1xec
 233 700 l 1xdc
 140 600 l 1
 97 600 l 1xec
EndSplineSet
EndChar

StartChar: scedilla
Encoding: 351 351 345
Width: 461
Flags: MW
HStem: -201 28<242 273.5 242 284> -85 28<238 259> -9 32<238 238> 477 32<190 256>
VStem: 51 37<346 417.5 346 428> 205 33<-57 -9 -57 -8 -57 -8> 307 35<-144.5 -111.5> 375 37<93 177>
LayerCount: 2
Fore
SplineSet
342 -127 m 0
 342 -180 308 -201 260 -201 c 0
 216 -201 179 -197 179 -197 c 1
 181 -169 l 1
 181 -169 225 -173 259 -173 c 0
 288 -173 307 -162 307 -127 c 0
 307 -96 288 -85 259 -85 c 2
 205 -85 l 1
 205 -8 l 1
 146 -6 57 7 57 7 c 1
 61 40 l 1
 61 40 169 23 220 23 c 0
 314 23 375 45 375 141 c 0
 375 213 339 227 220 245 c 0
 103 263 51 282 51 375 c 0
 51 481 141 509 222 509 c 0
 299 509 394 494 394 494 c 1
 392 461 l 1
 392 461 290 477 222 477 c 0
 158 477 88 458 88 377 c 0
 88 315 115 296 230 278 c 0
 361 257 412 238 412 144 c 0
 412 32 346 -6 238 -9 c 1
 238 -57 l 1
 309 -57 342 -71 342 -127 c 0
EndSplineSet
Substitution2: "'locl' Localized Forms in Lateinisch lookup 0 subtable" scommaaccent
EndChar

StartChar: scommaaccent
Encoding: 537 537 346
Width: 461
Flags: MW
HStem: -9 32<194.5 267 194.5 281> 477 32<190 256>
VStem: 51 37<346 417.5 346 428> 375 37<93 177>
LayerCount: 2
Fore
SplineSet
233 -78 m 1
 196 -267 l 1
 224 -267 l 1
 270 -78 l 1
 233 -78 l 1
394 494 m 1
 392 461 l 1
 392 461 290 477 222 477 c 0
 158 477 88 458 88 377 c 0
 88 315 115 296 230 278 c 0
 361 257 412 238 412 144 c 0
 412 27 340 -9 222 -9 c 0
 165 -9 57 7 57 7 c 1
 61 40 l 1
 61 40 169 23 220 23 c 0
 314 23 375 45 375 141 c 0
 375 213 339 227 220 245 c 0
 103 263 51 282 51 375 c 0
 51 481 141 509 222 509 c 0
 299 509 394 494 394 494 c 1
EndSplineSet
EndChar

StartChar: tcaron
Encoding: 357 357 347
Width: 395
Flags: MW
HStem: -10 32<194.5 249 194.5 252.5> -2 24 468 32<29 108 29 108 143 325> 483 17
VStem: 108 35<168 206 206 468 500 663> 366 34<483 700 483 700>
LayerCount: 2
Fore
SplineSet
325 468 m 1x6c
 143 468 l 1
 143 206 l 2
 143 57 154 22 235 22 c 0
 263 22 333 30 333 30 c 1
 336 -2 l 1x6c
 336 -2 270 -10 235 -10 c 0xac
 144 -10 108 24 108 168 c 2
 108 468 l 1
 29 468 l 1
 29 500 l 1
 108 500 l 1
 108 663 l 1
 143 663 l 1
 143 500 l 1
 325 500 l 1
 325 468 l 1x6c
400 700 m 1
 400 483 l 1
 366 483 l 1x5c
 366 700 l 1
 400 700 l 1
EndSplineSet
EndChar

StartChar: tcommaaccent
Encoding: 539 539 348
Width: 342
Flags: MW
HStem: -10 32<194.5 249 194.5 252.5> -2 24 468 32<29 108 29 108 143 325>
VStem: 108 35<168 206 206 468 500 663>
LayerCount: 2
Fore
SplineSet
203 -78 m 1x70
 166 -267 l 1
 194 -267 l 1
 240 -78 l 1
 203 -78 l 1x70
325 468 m 1
 143 468 l 1
 143 206 l 2
 143 57 154 22 235 22 c 0
 263 22 333 30 333 30 c 1
 336 -2 l 1x70
 336 -2 270 -10 235 -10 c 0xb0
 144 -10 108 24 108 168 c 2
 108 468 l 1
 29 468 l 1
 29 500 l 1
 108 500 l 1
 108 663 l 1
 143 663 l 1
 143 500 l 1
 325 500 l 1
 325 468 l 1
EndSplineSet
EndChar

StartChar: tbar
Encoding: 359 359 349
Width: 347
Flags: MW
HStem: -10 32<198.5 253 198.5 256.5> -2 24 282 32<41 112 41 112 147 308> 468 32<33 112 33 112 147 329>
VStem: 112 35<168 206 206 282 314 468 500 663>
LayerCount: 2
Fore
SplineSet
329 468 m 1x78
 147 468 l 1
 147 314 l 1
 308 314 l 1
 308 282 l 1
 147 282 l 1
 147 206 l 2
 147 57 158 22 239 22 c 0
 267 22 337 30 337 30 c 1
 340 -2 l 1x78
 340 -2 274 -10 239 -10 c 0xb8
 148 -10 112 24 112 168 c 2
 112 282 l 1
 41 282 l 1
 41 314 l 1
 112 314 l 1
 112 468 l 1
 33 468 l 1
 33 500 l 1
 112 500 l 1
 112 663 l 1
 147 663 l 1
 147 500 l 1
 329 500 l 1
 329 468 l 1x78
EndSplineSet
EndChar

StartChar: utilde
Encoding: 361 361 350
Width: 516
Flags: MW
HStem: 630 32<323 348 323 352.5> 668 21G<110 110> 684 31<179.5 206> 703 21G<401 401>
VStem: 109 293<242 500>
LayerCount: 2
Fore
SplineSet
437 500 m 1x58
 402 500 l 1
 402 73 l 1
 402 73 327 23 238 23 c 0
 127 23 109 72 109 242 c 2
 109 500 l 1
 74 500 l 1
 74 240 l 2
 74 46 102 -9 238 -9 c 0
 324 -9 402 40 402 40 c 1
 402 0 l 1
 437 0 l 1
 437 500 l 1x58
401 703 m 1
 410 673 l 1
 410 673 368 630 337 630 c 0x98
 297 630 222 684 190 684 c 0
 169 684 120 639 120 639 c 1
 110 668 l 1
 110 668 159 715 192 715 c 0x28
 232 715 307 662 339 662 c 0x98
 357 662 401 703 401 703 c 1
EndSplineSet
EndChar

StartChar: umacron
Encoding: 363 363 351
Width: 516
Flags: MW
HStem: 642 32<122 389 122 389>
VStem: 109 293<242 500>
LayerCount: 2
Fore
SplineSet
437 500 m 1
 402 500 l 1
 402 73 l 1
 402 73 327 23 238 23 c 0
 127 23 109 72 109 242 c 2
 109 500 l 1
 74 500 l 1
 74 240 l 2
 74 46 102 -9 238 -9 c 0
 324 -9 402 40 402 40 c 1
 402 0 l 1
 437 0 l 1
 437 500 l 1
122 642 m 1
 122 674 l 1
 389 674 l 1
 389 642 l 1
 122 642 l 1
EndSplineSet
EndChar

StartChar: ubreve
Encoding: 365 365 352
Width: 516
Flags: MW
HStem: 595 32<216.5 281.5 216.5 291>
VStem: 109 293<242 500> 111 35<695.5 723 695.5 723> 352 35<695.5 723>
LayerCount: 2
Fore
SplineSet
437 500 m 1xb0
 402 500 l 1
 402 73 l 1
 402 73 327 23 238 23 c 0
 127 23 109 72 109 242 c 2
 109 500 l 1
 74 500 l 1
 74 240 l 2xc0
 74 46 102 -9 238 -9 c 0
 324 -9 402 40 402 40 c 1
 402 0 l 1
 437 0 l 1
 437 500 l 1xb0
111 723 m 1xb0
 146 723 l 1
 146 668 184 627 249 627 c 0
 314 627 352 668 352 723 c 1
 387 723 l 1
 387 649 333 595 249 595 c 0
 165 595 111 649 111 723 c 1xb0
EndSplineSet
EndChar

StartChar: uring
Encoding: 367 367 353
Width: 516
Flags: MW
HStem: 555 31<240.5 275 240.5 284.5> 713 32<240.5 275>
VStem: 109 293<242 500> 162 34<632.5 667 632.5 676.5> 319 33<632.5 667>
LayerCount: 2
Fore
SplineSet
437 500 m 1xd8
 402 500 l 1
 402 73 l 1
 402 73 327 23 238 23 c 0
 127 23 109 72 109 242 c 2
 109 500 l 1
 74 500 l 1
 74 240 l 2xe0
 74 46 102 -9 238 -9 c 0
 324 -9 402 40 402 40 c 1
 402 0 l 1
 437 0 l 1
 437 500 l 1xd8
162 650 m 0xd8
 162 703 204 745 258 745 c 0
 311 745 352 703 352 650 c 0
 352 596 311 555 258 555 c 0
 204 555 162 596 162 650 c 0xd8
196 650 m 0
 196 615 223 586 258 586 c 0
 292 586 319 615 319 650 c 0
 319 684 292 713 258 713 c 0
 223 713 196 684 196 650 c 0
EndSplineSet
EndChar

StartChar: uhungarumlaut
Encoding: 369 369 354
Width: 516
Flags: MW
HStem: -9 735<280 280 280 281>
VStem: 109 293<242 500>
LayerCount: 2
Fore
SplineSet
437 500 m 1
 402 500 l 1
 402 73 l 1
 402 73 327 23 238 23 c 0
 127 23 109 72 109 242 c 2
 109 500 l 1
 74 500 l 1
 74 240 l 2
 74 46 102 -9 238 -9 c 0
 324 -9 402 40 402 40 c 1
 402 0 l 1
 437 0 l 1
 437 500 l 1
302 622 m 1
 465 726 l 1
 483 699 l 1
 320 595 l 1
 302 622 l 1
117 622 m 1
 280 726 l 1
 298 699 l 1
 135 595 l 1
 117 622 l 1
EndSplineSet
EndChar

StartChar: uogonek
Encoding: 371 371 355
Width: 516
Flags: MW
HStem: -200 34<390 413.5 390 414> -9 32<182.5 281> 0 21G<437 437> 480 20G<74 109 109 109 402 437 437 437>
VStem: 74 35<240 242 242 500> 320 37<-129.5 -100 -129.5 -97.5> 402 35<3 40 40 40 73 500 0 500>
LayerCount: 2
Fore
SplineSet
402 500 m 1xde
 437 500 l 1
 437 0 l 1xbe
 437 0 357 -84 357 -116 c 0
 357 -143 376 -166 404 -166 c 0
 423 -166 460 -159 460 -159 c 1
 464 -192 l 1
 464 -192 428 -200 400 -200 c 0
 354 -200 320 -169 320 -118 c 0
 320 -77 391 -8 402 3 c 1
 402 40 l 1
 402 40 324 -9 238 -9 c 0
 102 -9 74 46 74 240 c 2
 74 500 l 1
 109 500 l 1
 109 242 l 2
 109 72 127 23 238 23 c 0
 327 23 402 73 402 73 c 1
 402 500 l 1xde
EndSplineSet
EndChar

StartChar: wgrave
Encoding: 7809 7809 356
Width: 756
Flags: MW
HStem: 0 32<200 211 200 239 171 211 545 556> 448 42<378 378> 480 20G<36 73 73 73 683 720 720 720> 701 21G<250 250> 712 20G<266 266>
VStem: 36 684<500 500>
LayerCount: 2
Fore
SplineSet
36 500 m 1xb4
 73 500 l 1xac
 200 32 l 1
 211 32 l 1
 359 490 l 1
 397 490 l 1xd4
 545 32 l 1
 556 32 l 1
 683 500 l 1
 720 500 l 1xb4
 585 0 l 1
 517 0 l 1
 378 448 l 1xd4
 239 0 l 1
 171 0 l 1
 36 500 l 1xb4
266 732 m 1
 458 636 l 1
 443 609 l 1
 250 701 l 1
 266 732 l 1
EndSplineSet
EndChar

